<svg width="20" height="20" viewBox="0 0 20 20" fill="none" xmlns="http://www.w3.org/2000/svg">
<g clip-path="url(#clip0_4018_1059)">
<path d="M11.3521 2.65332C10.9417 2.65332 10.6078 2.98723 10.6078 3.39762C10.6078 3.80805 10.9417 4.14191 11.3521 4.14191C11.7625 4.14191 12.0964 3.80801 12.0964 3.39762C12.0964 2.98719 11.7625 2.65332 11.3521 2.65332Z" fill="url(#paint0_linear_4018_1059)"/>
<path d="M19.0804 12.0321C19.5874 12.0321 20 11.6196 20 11.1125V0.919609C20 0.412539 19.5875 0 19.0804 0H8.8875C8.38043 0 7.9679 0.412539 7.9679 0.919609V6.80418H11.2618C12.3282 6.80418 13.1958 7.6718 13.1958 8.73824V12.0321H19.0804ZM16.6159 1.48957C17.668 1.48957 18.5239 2.34551 18.5239 3.39758C18.5239 4.44965 17.668 5.30562 16.6159 5.30562C15.5638 5.30562 14.7078 4.44969 14.7078 3.39758C14.7078 2.34547 15.5638 1.48957 16.6159 1.48957ZM16.6159 6.72648C17.668 6.72648 18.5239 7.58242 18.5239 8.63453C18.5239 9.68664 17.668 10.5426 16.6159 10.5426C15.5638 10.5426 14.7078 9.68664 14.7078 8.63453C14.7078 7.58242 15.5638 6.72648 16.6159 6.72648ZM11.3521 5.30562C10.3 5.30562 9.44403 4.44969 9.44403 3.39758C9.44403 2.34547 10.3 1.48957 11.3521 1.48957C12.4042 1.48957 13.2601 2.34551 13.2601 3.39758C13.2601 4.44965 12.4041 5.30562 11.3521 5.30562Z" fill="url(#paint1_linear_4018_1059)"/>
<path d="M8.63071 17.4045C9.04114 17.4045 9.37501 17.0706 9.37501 16.6602C9.37501 16.2498 9.0411 15.9159 8.63071 15.9159C8.22032 15.9159 7.88641 16.2498 7.88641 16.6602C7.88641 17.0706 8.22028 17.4045 8.63071 17.4045Z" fill="url(#paint2_linear_4018_1059)"/>
<path d="M16.6159 9.37879C17.0269 9.37879 17.3602 9.04556 17.3602 8.63449C17.3602 8.22343 17.0269 7.8902 16.6159 7.8902C16.2048 7.8902 15.8716 8.22343 15.8716 8.63449C15.8716 9.04556 16.2048 9.37879 16.6159 9.37879Z" fill="url(#paint3_linear_4018_1059)"/>
<path d="M16.6159 4.14185C17.0263 4.14185 17.3602 3.80795 17.3602 3.39756C17.3602 2.98717 17.0263 2.65326 16.6159 2.65326C16.2054 2.65326 15.8716 2.98717 15.8716 3.39756C15.8716 3.80799 16.2054 4.14185 16.6159 4.14185Z" fill="url(#paint4_linear_4018_1059)"/>
<path d="M3.4014 12.0519C3.81246 12.0519 4.1457 11.7187 4.1457 11.3077C4.1457 10.8966 3.81246 10.5634 3.4014 10.5634C2.99034 10.5634 2.6571 10.8966 2.6571 11.3077C2.6571 11.7187 2.99034 12.0519 3.4014 12.0519Z" fill="url(#paint5_linear_4018_1059)"/>
<path d="M11.2618 20C11.6866 20 12.0321 19.6544 12.0321 19.2297V8.73821C12.0321 8.31344 11.6866 7.9679 11.2618 7.9679H0.770352C0.345586 7.9679 0 8.31344 0 8.73821V19.2297C0 19.6544 0.345586 20 0.770352 20H11.2618V20ZM8.63074 14.7522C9.68285 14.7522 10.5388 15.6081 10.5388 16.6602C10.5388 17.7123 9.68285 18.5682 8.63074 18.5682C7.57863 18.5682 6.7227 17.7123 6.7227 16.6602C6.7227 15.6081 7.57863 14.7522 8.63074 14.7522ZM3.40141 9.39961C4.45352 9.39961 5.30945 10.2556 5.30945 11.3077C5.30945 12.3598 4.45352 13.2157 3.40141 13.2157C2.3493 13.2157 1.49336 12.3598 1.49336 11.3077C1.49336 10.2556 2.34934 9.39961 3.40141 9.39961Z" fill="url(#paint6_linear_4018_1059)"/>
</g>
<defs>
<linearGradient id="paint0_linear_4018_1059" x1="11.3521" y1="4.14191" x2="11.3521" y2="2.65332" gradientUnits="userSpaceOnUse">
<stop stop-color="#9F2FFF"/>
<stop offset="1" stop-color="#0BB1D3"/>
</linearGradient>
<linearGradient id="paint1_linear_4018_1059" x1="13.9839" y1="12.0321" x2="13.9839" y2="-3.87273e-05" gradientUnits="userSpaceOnUse">
<stop stop-color="#9F2FFF"/>
<stop offset="1" stop-color="#0BB1D3"/>
</linearGradient>
<linearGradient id="paint2_linear_4018_1059" x1="8.63071" y1="17.4045" x2="8.63071" y2="15.9159" gradientUnits="userSpaceOnUse">
<stop stop-color="#9F2FFF"/>
<stop offset="1" stop-color="#0BB1D3"/>
</linearGradient>
<linearGradient id="paint3_linear_4018_1059" x1="16.6159" y1="9.37879" x2="16.6159" y2="7.89019" gradientUnits="userSpaceOnUse">
<stop stop-color="#9F2FFF"/>
<stop offset="1" stop-color="#0BB1D3"/>
</linearGradient>
<linearGradient id="paint4_linear_4018_1059" x1="16.6159" y1="4.14185" x2="16.6159" y2="2.65325" gradientUnits="userSpaceOnUse">
<stop stop-color="#9F2FFF"/>
<stop offset="1" stop-color="#0BB1D3"/>
</linearGradient>
<linearGradient id="paint5_linear_4018_1059" x1="3.4014" y1="12.0519" x2="3.4014" y2="10.5633" gradientUnits="userSpaceOnUse">
<stop stop-color="#9F2FFF"/>
<stop offset="1" stop-color="#0BB1D3"/>
</linearGradient>
<linearGradient id="paint6_linear_4018_1059" x1="6.01605" y1="20" x2="6.01605" y2="7.96786" gradientUnits="userSpaceOnUse">
<stop stop-color="#9F2FFF"/>
<stop offset="1" stop-color="#0BB1D3"/>
</linearGradient>
<clipPath id="clip0_4018_1059">
<rect width="20" height="20" fill="white"/>
</clipPath>
</defs>
</svg>
