<svg width="40" height="40" viewBox="0 0 40 40" fill="none" xmlns="http://www.w3.org/2000/svg">
<g clip-path="url(#clip0_4018_1353)">
<path d="M6.72687 13.7269C4.2875 13.5938 2.34375 11.5676 2.34375 9.09559V4.81348H5.90992V2.46973H1.17188C0.524687 2.46973 0 2.99441 0 3.6416V9.09559C0 12.9457 3.13234 16.078 6.98242 16.078H7.82242C7.38828 15.3348 7.02055 14.5484 6.72687 13.7269Z" fill="#12113A"/>
<path d="M38.8281 2.46973H34.0566V4.81348H37.6562V9.09559C37.6562 11.5791 35.6944 13.6126 33.239 13.7287C32.9454 14.5496 32.5779 15.3354 32.144 16.0781H33.0175C36.8676 16.0781 39.9999 12.9457 39.9999 9.09566V3.6416C40 2.99441 39.4753 2.46973 38.8281 2.46973Z" fill="#12113A"/>
<path d="M22.9385 26.8629L22.9396 22.7618C21.986 22.9665 20.9971 23.0753 19.9833 23.0753C18.9168 23.0753 17.878 22.9554 16.8788 22.7295V26.8629H22.9385Z" fill="#12113A"/>
<path d="M29.5012 37.6523H28.1021V30.1451C28.1021 29.6269 27.682 29.2068 27.1638 29.2068H12.8361C12.3178 29.2068 11.8978 29.6269 11.8978 30.1451V37.6523H10.5835C9.95253 37.6523 9.40957 38.1373 9.37988 38.7676C9.34816 39.4405 9.88441 39.9961 10.5504 39.9961H29.5343C30.2003 39.9961 30.7366 39.4405 30.7049 38.7676C30.6752 38.1373 30.1322 37.6523 29.5012 37.6523ZM15.6649 32.6483H24.335C24.9822 32.6483 25.5069 33.173 25.5069 33.8202C25.5069 34.4674 24.9822 34.9921 24.335 34.9921H15.6649C15.0177 34.9921 14.493 34.4674 14.493 33.8202C14.493 33.173 15.0177 32.6483 15.6649 32.6483Z" fill="#12113A"/>
<path d="M20.9176 7.8143L20 5.95508L19.0825 7.8143C18.9118 8.16016 18.5818 8.39984 18.2001 8.45531L16.1483 8.75344L17.633 10.2006C17.9092 10.4698 18.0352 10.8577 17.97 11.2379L17.6196 13.2812L19.4547 12.3164C19.6254 12.2267 19.8128 12.1818 20 12.1818C20.1873 12.1818 20.3746 12.2266 20.5453 12.3164L22.3805 13.2812L22.03 11.2379C21.9649 10.8577 22.0909 10.4698 22.3671 10.2006L23.8518 8.75344L21.8 8.45531C21.4183 8.39984 21.0883 8.16016 20.9176 7.8143Z" fill="#12113A"/>
<path d="M30.4796 0.00415039H9.48694C8.80585 0.00415039 8.25366 0.556338 8.25366 1.23743V9.00204C8.25366 15.4808 13.5336 20.7497 20.0166 20.7316C26.5001 20.7134 31.7129 15.3721 31.7129 8.88845V1.23735C31.7129 0.55626 31.1607 0.00415039 30.4796 0.00415039ZM27.188 8.77438L24.4441 11.4489L25.0919 15.2255C25.1673 15.6652 24.9866 16.1095 24.6257 16.3717C24.4216 16.52 24.1798 16.5955 23.9368 16.5955C23.7502 16.5955 23.563 16.551 23.3916 16.4609L20 14.6778L16.6084 16.4609C16.2137 16.6684 15.7351 16.6339 15.3743 16.3717C15.0134 16.1095 14.8326 15.6652 14.9081 15.2255L15.5559 11.4489L12.812 8.77438C12.4926 8.46306 12.3776 7.99735 12.5155 7.57306C12.6533 7.14884 13.0201 6.83962 13.4616 6.77556L17.2534 6.22454L18.9492 2.78853C19.1466 2.38853 19.5541 2.13532 20.0001 2.13532C20.4461 2.13532 20.8535 2.38853 21.0509 2.78853L22.7467 6.22454L26.5386 6.77556C26.98 6.83962 27.3468 7.14884 27.4846 7.57306C27.6223 7.99735 27.5074 8.46306 27.188 8.77438Z" fill="#12113A"/>
</g>
<defs>
<clipPath id="clip0_4018_1353">
<rect width="40" height="40" fill="white"/>
</clipPath>
</defs>
</svg>
