<svg width="48" height="48" viewBox="0 0 48 48" fill="none" xmlns="http://www.w3.org/2000/svg">
<path d="M34.7378 25.7086C34.6914 20.5518 38.9602 18.043 39.1554 17.9262C36.7378 14.4014 32.9906 13.9198 31.6738 13.8814C28.5266 13.5502 25.4738 15.7646 23.8706 15.7646C22.2354 15.7646 19.7666 13.9134 17.1058 13.9678C13.6818 14.0206 10.4786 16.003 8.72175 19.0814C5.09615 25.3582 7.80015 34.5822 11.2738 39.6558C13.0114 42.1406 15.0418 44.915 17.6994 44.8174C20.2994 44.7102 21.2706 43.1598 24.4082 43.1598C27.517 43.1598 28.429 44.8174 31.1394 44.755C33.9298 44.7102 35.6866 42.259 37.3634 39.7518C39.3714 36.9038 40.1778 34.099 40.2098 33.955C40.1442 33.9326 34.7906 31.8894 34.7378 25.7086Z" fill="#05213E"/>
<path d="M29.6175 10.5424C31.0159 8.7936 31.9727 6.4144 31.7071 4C29.6831 4.0896 27.1519 5.4 25.6943 7.1104C24.4047 8.6176 23.2527 11.088 23.5503 13.4112C25.8239 13.5808 28.1583 12.264 29.6175 10.5424Z" fill="#05213E"/>
</svg>
