<svg width="323" height="85" viewBox="0 0 323 85" fill="none" xmlns="http://www.w3.org/2000/svg">
<path d="M9.40895 62.1258V22.513L29.6785 10.4315L49.948 22.513V62.1258L29.6785 74.2073L9.40895 62.1258Z" fill="#62B400"/>
<path d="M29.6785 10.4315L49.948 22.513V62.1258L29.6785 74.2073V10.4315Z" fill="#4C8C00"/>
<path d="M29.6785 34.4398L9.40895 22.513L29.6785 10.4315L29.6785 34.4398Z" fill="#92E200"/>
<path d="M29.6785 50.1985L9.40895 62.1258L29.6785 74.1896V50.1985Z" fill="#92E200"/>
<path d="M29.6785 34.4398L49.948 22.513L29.6785 10.4315L29.6785 34.4398Z" fill="#62B400"/>
<path d="M29.6785 50.1985L49.948 62.1258L29.6785 74.1896V50.1985Z" fill="#62B400"/>
<path d="M29.6808 62.5731L40.143 56.3519V28.2878L29.6808 22.0666L19.2186 28.2878V56.3519L29.6808 62.5731Z" fill="#C6EA4B"/>
<path d="M29.6811 22.049L29.6808 62.5731L40.143 56.3519V28.2878L29.6811 22.049Z" fill="#92E200"/>
<path d="M29.75 0L2.125 16.4466V68.5362L29.75 85L57.375 68.5534V16.4466L29.75 0ZM42.748 22.1866L32.185 15.8967V7.21795L50.0867 17.873L42.748 22.1866ZM29.75 64.7897L19.187 58.4998V26.5002L29.75 20.2103L40.313 26.5002V58.517L29.75 64.7897ZM27.315 15.8967L16.752 22.1866L9.43009 17.873L27.3318 7.21795V15.8967H27.315ZM14.3169 26.5002V58.4998L6.99506 62.8134V22.1866L14.3169 26.5002ZM16.752 62.8134L27.315 69.1033V77.7821L9.4133 67.127L16.752 62.8134ZM32.185 69.1033L42.748 62.8134L50.0699 67.127L32.1682 77.7821V69.1033H32.185ZM45.1831 58.4998V26.5002L52.5049 22.1866V62.8134L45.1831 58.4998Z" fill="#D7FF96"/>
<path d="M255.128 40.8425C254.83 45.1775 253.98 48.96 252.577 52.19C251.175 55.3775 249.475 58.055 247.477 60.2225C245.522 62.39 243.397 64.005 241.102 65.0675C238.85 66.13 236.704 66.6613 234.664 66.6613C233.091 66.6613 231.583 66.3213 230.138 65.6413C228.735 64.9613 227.502 63.9412 226.44 62.5813C225.42 61.1788 224.613 59.4363 224.018 57.3538C223.423 55.2713 223.125 52.8275 223.125 50.0225C223.125 44.54 223.911 39.7588 225.484 35.6788C227.056 31.5988 229.033 28.1988 231.413 25.4788C233.835 22.7588 236.406 20.74 239.126 19.4225C241.889 18.105 244.46 17.4463 246.84 17.4463C248.54 17.4463 250.006 17.7438 251.239 18.3388C252.514 18.9338 253.555 19.7413 254.362 20.7613C255.17 21.7388 255.744 22.9075 256.084 24.2675C256.466 25.585 256.658 26.9875 256.658 28.475L247.924 30.1325C247.541 28.4325 247.031 27.2213 246.394 26.4988C245.756 25.7763 245.034 25.415 244.226 25.415C243.164 25.415 241.995 26.18 240.72 27.71C239.445 29.1975 238.255 31.1313 237.15 33.5113C236.045 35.8913 235.11 38.505 234.345 41.3525C233.58 44.2 233.155 47.005 233.07 49.7675C233.07 52.4025 233.452 54.2938 234.217 55.4413C235.025 56.5463 236.045 57.0988 237.278 57.0988C238.128 57.0988 238.999 56.8863 239.891 56.4613C240.826 56.0363 241.655 55.4413 242.378 54.6763C243.1 53.8688 243.695 52.955 244.163 51.935C244.673 50.8725 244.949 49.725 244.991 48.4925L238.17 49.5125L239.381 43.2013C241.379 42.9463 243.334 42.6913 245.246 42.4363C246.861 42.2238 248.561 41.9688 250.346 41.6713C252.174 41.3738 253.768 41.0975 255.128 40.8425Z" fill="#FED402"/>
<path d="M254.045 65.195L262.396 19.8688L282.541 18.1475C282.244 19.0825 281.989 20.0388 281.777 21.0163C281.564 21.8238 281.352 22.6738 281.139 23.5663C280.969 24.4163 280.82 25.1813 280.693 25.8612C280.268 25.9038 279.651 25.9463 278.844 25.9888C278.079 25.9888 277.25 26.01 276.358 26.0525C275.465 26.0525 274.551 26.0525 273.617 26.0525C272.724 26.0525 271.938 26.0525 271.258 26.0525L269.027 37.4638C270.344 37.3788 271.576 37.315 272.724 37.2725C273.659 37.23 274.615 37.2088 275.593 37.2088C276.57 37.2088 277.293 37.1875 277.76 37.145C277.59 38.335 277.42 39.5038 277.25 40.6513C277.123 41.7988 276.953 42.9675 276.74 44.1575C276.315 44.2 275.614 44.2425 274.637 44.285C273.702 44.285 272.745 44.3063 271.768 44.3488C270.663 44.3913 269.451 44.4338 268.134 44.4763L265.966 56.2063L275.274 54.74L274.637 62.0075L254.045 65.195Z" fill="#FED402"/>
<path d="M274.625 64.7488C276.495 59.0963 278.28 53.55 279.98 48.11C280.703 45.815 281.446 43.4138 282.211 40.9063C282.976 38.3988 283.741 35.9125 284.506 33.4475C285.271 30.9825 285.973 28.6025 286.61 26.3075C287.29 24.0125 287.885 21.8875 288.395 19.9325C290.733 19.9325 292.943 19.805 295.025 19.55C297.108 19.295 299.36 19.0613 301.783 18.8488C301.655 19.7838 301.506 20.8462 301.336 22.0362C301.209 23.1838 301.039 24.395 300.826 25.67C300.656 26.945 300.465 28.2625 300.253 29.6225C300.04 30.9825 299.785 32.725 299.488 34.85C299.19 36.975 298.786 39.6313 298.276 42.8188H299.105C300.338 39.5888 301.358 36.9113 302.165 34.7863C302.973 32.6188 303.631 30.855 304.141 29.495C304.651 28.135 305.161 26.8175 305.671 25.5425C306.224 24.225 306.734 22.9925 307.201 21.845C307.711 20.655 308.179 19.6138 308.604 18.7213C309.666 18.6363 310.665 18.53 311.6 18.4025C312.535 18.275 313.47 18.1475 314.405 18.02C315.34 17.85 316.275 17.7013 317.21 17.5738C318.188 17.4037 319.25 17.2125 320.398 17C319.973 19.465 319.569 21.9938 319.186 24.5863C318.804 27.1788 318.464 29.7713 318.166 32.3638C317.869 34.9138 317.571 37.4425 317.274 39.95C317.019 42.4575 316.785 44.8375 316.573 47.09C316.063 52.36 315.616 57.5025 315.234 62.5175L304.141 64.4938C304.141 64.2813 304.163 63.7075 304.205 62.7725C304.29 61.8375 304.375 60.69 304.46 59.33C304.588 57.97 304.736 56.4613 304.906 54.8038C305.119 53.1463 305.31 51.4888 305.48 49.8313C305.693 48.1738 305.905 46.58 306.118 45.05C306.33 43.4775 306.543 42.1388 306.755 41.0338H306.181C305.586 42.8188 304.928 44.71 304.205 46.7075C303.483 48.6625 302.739 50.66 301.974 52.7C301.251 54.74 300.529 56.7375 299.806 58.6925C299.084 60.6475 298.446 62.5175 297.894 64.3025C296.406 64.345 295.131 64.4088 294.069 64.4938C293.006 64.5363 291.774 64.6 290.371 64.685L292.411 41.0338H291.455C291.37 41.5863 291.158 42.5213 290.818 43.8388C290.478 45.1138 290.074 46.6013 289.606 48.3013C289.181 49.9588 288.714 51.7013 288.204 53.5288C287.694 55.3138 287.205 56.9925 286.738 58.565C286.313 60.095 285.951 61.37 285.654 62.39C285.356 63.3675 285.186 63.92 285.144 64.0475L274.625 64.7488Z" fill="#FED402"/>
<path d="M112.349 50.1278C112.349 52.5078 111.881 54.6753 110.946 56.6303C110.054 58.5428 108.821 60.2003 107.249 61.6028C105.719 63.0053 103.891 64.0891 101.766 64.8541C99.6838 65.6191 97.4313 66.0016 95.0087 66.0016C93.3088 66.0016 91.6088 65.5553 89.9088 64.6628C88.2088 63.7278 86.5725 62.2616 85 60.2641L89.7175 51.0203C90.015 51.5728 90.4613 52.1466 91.0563 52.7416C91.6513 53.2941 92.31 53.7828 93.0325 54.2078C93.7975 54.6328 94.5413 54.9941 95.2638 55.2916C96.0288 55.5466 96.7088 55.6741 97.3038 55.6741C97.8138 55.6741 98.345 55.5891 98.8975 55.4191C99.45 55.2491 99.96 54.9941 100.428 54.6541C100.895 54.3141 101.256 53.9316 101.511 53.5066C101.809 53.0391 101.958 52.5078 101.958 51.9128C101.958 50.8928 101.618 49.9578 100.938 49.1078C100.3 48.2153 99.4925 47.3866 98.515 46.6216C97.5375 45.8141 96.475 45.0066 95.3275 44.1991C94.18 43.3916 93.1175 42.5416 92.14 41.6491C91.205 40.7566 90.3975 39.7578 89.7175 38.6528C89.0375 37.5478 88.6975 36.3153 88.6975 34.9553C88.6975 32.7453 89.3563 30.6841 90.6738 28.7716C91.9913 26.8591 93.6275 25.2228 95.5825 23.8628C97.58 22.4603 99.7475 21.3553 102.085 20.5478C104.423 19.7403 106.632 19.3366 108.715 19.3366C109.862 19.3366 110.946 19.4853 111.966 19.7828C112.986 20.0378 113.858 20.4841 114.58 21.1216C115.345 21.7166 115.94 22.4816 116.365 23.4166C116.833 24.3516 117.066 25.5203 117.066 26.9228C117.066 27.5178 117.003 28.1128 116.875 28.7078C116.79 29.3028 116.705 29.9403 116.62 30.6203L107.376 33.2978C107.461 32.9578 107.525 32.6178 107.568 32.2778C107.653 31.9378 107.695 31.5978 107.695 31.2578C107.695 29.9828 107.461 29.0691 106.994 28.5166C106.569 27.9216 105.995 27.6241 105.273 27.6241C104.933 27.6241 104.508 27.7516 103.998 28.0066C103.53 28.2616 103.041 28.6016 102.531 29.0266C102.064 29.4091 101.66 29.8766 101.32 30.4291C100.98 30.9816 100.81 31.5766 100.81 32.2141C100.81 33.2341 101.086 34.0841 101.639 34.7641C102.234 35.4441 102.956 36.0816 103.806 36.6766C104.656 37.2716 105.57 37.8878 106.548 38.5253C107.568 39.1203 108.503 39.9066 109.353 40.8841C110.203 41.8616 110.904 43.0941 111.456 44.5816C112.051 46.0266 112.349 47.8753 112.349 50.1278Z" fill="white"/>
<path d="M130.37 63.8341C129.053 63.8341 127.65 63.8766 126.163 63.9616C124.718 64.0466 123.251 64.1741 121.764 64.3441C120.276 64.5141 118.81 64.7478 117.365 65.0453C115.963 65.3003 114.688 65.6191 113.54 66.0016C113.795 64.0891 114.093 61.9641 114.433 59.6266C114.773 57.2891 115.155 54.8666 115.58 52.3591C116.048 49.8516 116.494 47.3228 116.919 44.7728C117.386 42.2228 117.854 39.7791 118.321 37.4416C119.384 31.8741 120.51 26.2003 121.7 20.4203L132.856 18.9541C131.709 23.8841 130.604 28.6866 129.541 33.3616C129.074 35.3591 128.606 37.4416 128.139 39.6091C127.671 41.7341 127.225 43.8166 126.8 45.8566C126.375 47.8966 125.993 49.8728 125.653 51.7853C125.313 53.6978 125.036 55.3978 124.824 56.8853C125.886 56.8003 127.013 56.7578 128.203 56.7578C129.435 56.7153 130.519 56.6941 131.454 56.6941C131.496 57.5016 131.56 58.3091 131.645 59.1166C131.73 59.8816 131.815 60.5828 131.9 61.2203C132.028 61.8578 132.113 62.4316 132.155 62.9416C132.24 63.4091 132.304 63.7278 132.346 63.8978C132.006 63.8978 131.666 63.8978 131.326 63.8978C131.029 63.8553 130.71 63.8341 130.37 63.8341Z" fill="white"/>
<path d="M168.987 31.3853C168.987 34.8703 168.605 38.1641 167.84 41.2666C167.117 44.3266 166.14 47.1528 164.907 49.7453C163.675 52.2953 162.23 54.5903 160.572 56.6303C158.957 58.6278 157.257 60.3491 155.472 61.7941C153.687 63.1966 151.881 64.2803 150.053 65.0453C148.226 65.7678 146.483 66.1291 144.826 66.1291C143.423 66.1291 142.148 65.8741 141.001 65.3641C139.853 64.8116 138.855 64.0253 138.005 63.0053C137.155 61.9428 136.475 60.6041 135.965 58.9891C135.497 57.3316 135.263 55.3553 135.263 53.0603C135.263 50.6803 135.561 48.1728 136.156 45.5378C136.751 42.9028 137.558 40.2891 138.578 37.6966C139.598 35.1041 140.852 32.6391 142.34 30.3016C143.827 27.9641 145.463 25.9028 147.248 24.1178C149.033 22.2903 150.946 20.8453 152.986 19.7828C155.026 18.7203 157.151 18.1891 159.361 18.1891C161.273 18.1891 162.846 18.5928 164.078 19.4003C165.353 20.1653 166.331 21.1853 167.011 22.4603C167.733 23.6928 168.243 25.0953 168.541 26.6678C168.838 28.2403 168.987 29.8128 168.987 31.3853ZM144.762 51.4028C144.762 51.8703 144.847 52.3591 145.017 52.8691C145.187 53.3791 145.421 53.8253 145.718 54.2078C146.016 54.5903 146.377 54.9303 146.802 55.2278C147.27 55.4828 147.758 55.6103 148.268 55.6103C150.181 55.6103 151.881 54.9516 153.368 53.6341C154.856 52.3166 156.088 50.7016 157.066 48.7891C158.043 46.8766 158.787 44.8366 159.297 42.6691C159.85 40.5016 160.126 38.5253 160.126 36.7403C160.126 36.2303 160.083 35.6778 159.998 35.0828C159.956 34.4878 159.828 33.9353 159.616 33.4253C159.446 32.9153 159.148 32.4903 158.723 32.1503C158.341 31.7678 157.81 31.5766 157.13 31.5766C155.77 31.5766 154.516 31.9166 153.368 32.5966C152.221 33.2766 151.18 34.1903 150.245 35.3378C149.352 36.4428 148.566 37.7178 147.886 39.1628C147.206 40.5653 146.611 42.0103 146.101 43.4978C145.633 44.9428 145.293 46.3666 145.081 47.7691C144.868 49.1716 144.762 50.3828 144.762 51.4028Z" fill="white"/>
<path d="M171.739 65.9378C172.716 61.2628 173.651 56.6516 174.544 52.1041C174.926 50.1916 175.309 48.1941 175.691 46.1116C176.074 44.0291 176.435 41.9891 176.775 39.9916C177.158 37.9516 177.476 35.9966 177.731 34.1266C178.029 32.2141 178.284 30.4716 178.496 28.8991C177.519 28.7716 176.52 28.7291 175.5 28.7716C174.523 28.8141 173.545 28.6866 172.568 28.3891C172.61 27.7091 172.631 26.9228 172.631 26.0303C172.631 25.1378 172.653 24.2453 172.695 23.3528C172.738 22.3753 172.78 21.3341 172.823 20.2291C173.928 20.3141 175.033 20.3778 176.138 20.4203C177.243 20.4628 178.348 20.4841 179.453 20.4841C181.62 20.4841 183.703 20.4416 185.7 20.3566C187.74 20.2291 189.61 20.1016 191.31 19.9741C193.053 19.8041 194.753 19.6128 196.41 19.4003L195.709 22.8428C195.496 23.8203 195.284 24.8191 195.071 25.8391C194.901 26.8591 194.731 27.7303 194.561 28.4528C193.626 28.7078 192.67 28.8991 191.693 29.0266C190.758 29.1116 189.823 29.2391 188.888 29.4091C188.59 30.8541 188.271 32.4691 187.931 34.2541C187.591 35.9966 187.251 37.8241 186.911 39.7366C186.614 41.6066 186.316 43.5191 186.019 45.4741C185.721 47.4291 185.424 49.2991 185.126 51.0841C184.446 55.2916 183.809 59.6478 183.214 64.1528L171.739 65.9378Z" fill="white"/>
<path d="M218.615 50.1278C218.615 52.5078 218.147 54.6753 217.212 56.6303C216.32 58.5428 215.087 60.2003 213.515 61.6028C211.985 63.0053 210.157 64.0891 208.032 64.8541C205.95 65.6191 203.697 66.0016 201.275 66.0016C199.575 66.0016 197.875 65.5553 196.175 64.6628C194.475 63.7278 192.838 62.2616 191.266 60.2641L195.983 51.0203C196.281 51.5728 196.727 52.1466 197.322 52.7416C197.917 53.2941 198.576 53.7828 199.298 54.2078C200.063 54.6328 200.807 54.9941 201.53 55.2916C202.295 55.5466 202.975 55.6741 203.57 55.6741C204.08 55.6741 204.611 55.5891 205.163 55.4191C205.716 55.2491 206.226 54.9941 206.693 54.6541C207.161 54.3141 207.522 53.9316 207.777 53.5066C208.075 53.0391 208.223 52.5078 208.223 51.9128C208.223 50.8928 207.883 49.9578 207.203 49.1078C206.566 48.2153 205.758 47.3866 204.781 46.6216C203.803 45.8141 202.741 45.0066 201.593 44.1991C200.446 43.3916 199.383 42.5416 198.406 41.6491C197.471 40.7566 196.663 39.7578 195.983 38.6528C195.303 37.5478 194.963 36.3153 194.963 34.9553C194.963 32.7453 195.622 30.6841 196.94 28.7716C198.257 26.8591 199.893 25.2228 201.848 23.8628C203.846 22.4603 206.013 21.3553 208.351 20.5478C210.688 19.7403 212.898 19.3366 214.981 19.3366C216.128 19.3366 217.212 19.4853 218.232 19.7828C219.252 20.0378 220.123 20.4841 220.846 21.1216C221.611 21.7166 222.206 22.4816 222.631 23.4166C223.098 24.3516 223.332 25.5203 223.332 26.9228C223.332 27.5178 223.268 28.1128 223.141 28.7078C223.056 29.3028 222.971 29.9403 222.886 30.6203L213.642 33.2978C213.727 32.9578 213.791 32.6178 213.833 32.2778C213.918 31.9378 213.961 31.5978 213.961 31.2578C213.961 29.9828 213.727 29.0691 213.26 28.5166C212.835 27.9216 212.261 27.6241 211.538 27.6241C211.198 27.6241 210.773 27.7516 210.263 28.0066C209.796 28.2616 209.307 28.6016 208.797 29.0266C208.33 29.4091 207.926 29.8766 207.586 30.4291C207.246 30.9816 207.076 31.5766 207.076 32.2141C207.076 33.2341 207.352 34.0841 207.905 34.7641C208.5 35.4441 209.222 36.0816 210.072 36.6766C210.922 37.2716 211.836 37.8878 212.813 38.5253C213.833 39.1203 214.768 39.9066 215.618 40.8841C216.468 41.8616 217.17 43.0941 217.722 44.5816C218.317 46.0266 218.615 47.8753 218.615 50.1278Z" fill="white"/>
</svg>
