<svg width="48" height="48" viewBox="0 0 48 48" fill="none" xmlns="http://www.w3.org/2000/svg">
<path d="M22.5321 22.8986L6.15234 40.2848C6.15296 40.2884 6.15419 40.2914 6.15477 40.2951C6.65712 42.183 8.38151 43.5732 10.428 43.5732C11.2461 43.5732 12.0142 43.352 12.6729 42.9637L12.7252 42.9331L31.1637 32.2932L22.533 22.8984" fill="#EB3131"/>
<path d="M39.1048 19.9381L39.0891 19.9274L31.1287 15.3125L22.1602 23.2931L31.1598 32.2917L39.0783 27.7227C40.4665 26.9733 41.409 25.5097 41.409 23.822C41.409 22.1464 40.4792 20.6901 39.1047 19.9382" fill="#F6B60B"/>
<path d="M6.15023 7.28906C6.05176 7.65218 6 8.03253 6 8.4275V39.1505C6 39.5447 6.05115 39.9263 6.15085 40.2882L23.0961 23.3463L6.15085 7.2895" fill="#5778C5"/>
<path d="M22.6543 23.7871L31.133 15.3108L12.7153 4.63238C12.0458 4.23141 11.2644 4 10.4284 4C8.38189 4 6.65517 5.39265 6.15272 7.28279C6.1521 7.28463 6.1521 7.2859 6.1521 7.28752L22.6542 23.7874" fill="#3BAD49"/>
</svg>
