<svg width="116" height="40" viewBox="0 0 116 40" fill="none" xmlns="http://www.w3.org/2000/svg">
<path d="M71.9238 27.2249C73.494 27.7557 74.3012 28.4744 74.3344 29.3922C74.1464 31.8027 73.2507 33.008 71.6474 33.008H67.5782L66.0854 28.7729C67.4124 30.5311 68.8277 31.4157 70.3094 31.4378C71.0613 31.2388 71.4262 30.7191 71.4262 29.8787C68.1421 28.8061 66.5056 27.1696 66.5056 24.9692C66.5056 23.1557 67.733 22.1495 70.1988 21.9505C72.6647 21.7514 73.8921 22.3264 73.8921 23.6644C73.5935 24.8918 73.0517 25.511 72.2666 25.522L71.0724 24.5158C71.7248 23.9519 71.6916 23.5206 70.9729 23.211C69.9888 23.5427 69.5022 24.0072 69.5022 24.6043C69.5465 25.8095 70.3537 26.6831 71.9238 27.2028V27.2249Z" fill="#62D6FF"/>
<path d="M106.373 27.2249C107.943 27.7557 108.75 28.4744 108.784 29.3922C108.596 31.8027 107.7 33.008 106.097 33.008H102.027L100.535 28.7729C101.862 30.5311 103.277 31.4157 104.759 31.4378C105.511 31.2388 105.875 30.7191 105.875 29.8787C102.591 28.8061 100.955 27.1696 100.955 24.9692C100.955 23.1557 102.182 22.1495 104.648 21.9505C107.114 21.7514 108.341 22.3264 108.341 23.6644C108.043 24.8918 107.501 25.511 106.716 25.522L105.522 24.5158C106.174 23.9519 106.141 23.5206 105.422 23.211C104.438 23.5427 103.951 24.0072 103.951 24.6043C103.996 25.8095 104.803 26.6831 106.373 27.2028V27.2249Z" fill="#62D6FF"/>
<path d="M79.3101 30.5427C79.3322 30.8192 79.3764 31.0624 79.4317 31.2725C80.9245 31.1288 82.3067 30.8302 83.5672 30.3879C82.8374 31.1951 82.4062 32.0797 82.2514 33.0528C81.8422 33.0528 81.4552 33.0528 81.0903 33.0528H76.2029V32.9201C76.3356 32.7542 76.4351 32.5663 76.5015 32.3672V32.2677C76.5236 31.936 76.5457 31.5379 76.5457 31.0845C76.5457 25.3015 76.3577 22.3712 75.9707 22.2717L79.4538 21.7078L79.3211 24.1294V30.5538L79.3101 30.5427Z" fill="#62D6FF"/>
<path d="M88.4326 21.9066C90.1244 21.9066 91.1196 23.0677 91.4182 25.3897V28.2426C91.4182 31.4382 90.423 33.0415 88.4326 33.0415H86.4865C84.7947 33.0415 83.7995 31.8805 83.501 29.5584V26.7056C83.501 23.51 84.4962 21.9066 86.4865 21.9066H88.4326ZM87.0947 23.6537C86.9509 23.7532 86.7408 23.7975 86.4865 23.7975V30.0118C86.4865 30.7526 86.9067 31.1949 87.7249 31.3608C87.935 31.2613 88.1673 31.2171 88.4216 31.2171V25.0027C88.4216 24.2619 87.9793 23.8196 87.0836 23.6537H87.0947Z" fill="#62D6FF"/>
<path d="M97.0577 23.8861V23.9524C97.0577 29.7355 97.2457 32.6658 97.6327 32.7653L94.1496 33.3292L94.2823 30.9076V24.4832C94.2601 24.2068 94.2159 23.9635 94.1606 23.7534C93.5304 23.8972 92.5794 24.1957 91.3188 24.638C92.0486 23.8308 92.4799 22.9462 92.6347 21.9731C93.0438 21.9731 93.4308 21.9731 93.7957 21.9731H97.3894H97.4779C97.8428 21.9731 98.2298 21.9731 98.6389 21.9731C98.7937 22.9462 99.225 23.8308 99.9548 24.638C98.6942 24.1957 97.7433 23.8972 97.113 23.7534C97.1019 23.8087 97.0909 23.864 97.0688 23.9193L97.0356 23.875L97.0577 23.8861Z" fill="#62D6FF"/>
<path d="M66.2535 9.86522V9.93157C66.2535 15.7147 66.4415 18.6449 66.8285 18.7444L63.3454 19.3083L63.4781 16.8867V10.4623C63.4559 10.1859 63.4117 9.94262 63.3564 9.73253C62.7262 9.87628 61.7752 10.1748 60.5146 10.6171C61.2444 9.80993 61.6757 8.92533 61.8305 7.95227C62.2396 7.95227 62.6266 7.95227 62.9915 7.95227H66.5852H66.6737C67.0386 7.95227 67.4256 7.95227 67.8347 7.95227C67.9895 8.92533 68.4208 9.80993 69.1506 10.6171C67.89 10.1748 66.9391 9.87628 66.3088 9.73253C66.2977 9.78782 66.2867 9.84311 66.2646 9.89839L66.2314 9.85416L66.2535 9.86522Z" fill="white"/>
<path d="M74.4582 14.7632V16.8973L75.1438 18.3569L71.2847 17.0632V16.9305C71.5501 16.5987 71.6828 16.2007 71.6828 15.7473V9.49981H71.5501C70.8424 9.63251 70.4886 9.89789 70.4886 10.2849C70.3891 10.2849 70.1347 9.75414 69.7035 8.69262C69.6482 8.69262 69.4271 8.42724 69.04 7.90753H75.7851C77.6981 7.90753 78.8038 8.86954 79.0913 10.7825C79.0029 12.3084 78.1846 13.3036 76.6587 13.768C77.8197 15.8026 79.6221 18.003 82.0658 20.3804L77.0236 19.0203C77.3442 18.4011 76.4928 16.9858 74.4693 14.7743L74.4582 14.7632ZM76.2495 11.0258C76.0947 10.0085 75.5861 9.49981 74.7125 9.49981H73.651V9.63251L74.4472 9.89789V12.8834C75.6193 12.8281 76.2164 12.2089 76.2385 11.0258H76.2495Z" fill="white"/>
<path d="M84.1335 8.79234V16.5105C84.2219 17.4283 84.233 18.4234 84.1777 19.496L80.96 18.3571V18.2244C81.2253 17.8927 81.358 17.4946 81.358 17.0412V8.09571L84.432 8.08466L84.1335 8.79234Z" fill="white"/>
<path d="M91.4757 9.86522V9.93157C91.4757 15.7147 91.6637 18.6449 92.0507 18.7444L88.5675 19.3083L88.7002 16.8867V10.4623C88.6781 10.1859 88.6339 9.94262 88.5786 9.73253C87.9483 9.87628 86.9974 10.1748 85.7368 10.6171C86.4666 9.80993 86.8979 8.92533 87.0527 7.95227C87.4618 7.95227 87.8488 7.95227 88.2137 7.95227H91.8074H91.8959C92.2608 7.95227 92.6478 7.95227 93.0569 7.95227C93.2117 8.92533 93.6429 9.80993 94.3727 10.6171C93.1122 10.1748 92.1612 9.87628 91.531 9.73253C91.5199 9.78782 91.5088 9.84311 91.4867 9.89839L91.4536 9.85416L91.4757 9.86522Z" fill="white"/>
<path d="M100.731 7.8858C102.423 7.8858 103.418 9.04684 103.717 11.3689V14.2218C103.717 17.4174 102.721 19.0207 100.731 19.0207H98.7848C97.093 19.0207 96.0979 17.8597 95.7993 15.5376V12.6848C95.7993 9.48914 96.7945 7.8858 98.7848 7.8858H100.731ZM99.393 9.63289C99.2493 9.73241 99.0392 9.77664 98.7848 9.77664V15.991C98.7848 16.7318 99.205 17.1741 100.023 17.34C100.233 17.2405 100.466 17.1962 100.72 17.1962V10.9709C100.72 10.23 100.278 9.7877 99.382 9.62183L99.393 9.63289Z" fill="white"/>
<path d="M110.915 12.4634V8.09567L114 8.08461L113.701 8.7923V17.2292C113.79 18.147 113.801 19.1421 113.745 20.2147L110.528 19.0758V18.9431C110.793 18.6114 110.926 18.2133 110.926 17.7599V17.008L109.168 14.1331V15.8581C109.256 16.7758 109.267 17.771 109.212 18.8436L105.994 17.7047V17.572C106.26 17.2402 106.392 16.8422 106.392 16.3888V8.09567L107.708 7.3327L110.926 12.4634H110.915Z" fill="white"/>
<mask id="mask0_4009_459" style="mask-type:luminance" maskUnits="userSpaceOnUse" x="39" y="22" width="10" height="11">
<path d="M39.5647 24.9447C39.5647 24.9447 46.8859 30.1464 48.6069 32.2769C48.6069 32.2769 49.1467 25.9861 43.9883 23.3601C38.8278 20.7351 39.5647 24.9447 39.5647 24.9447Z" fill="white"/>
</mask>
<g mask="url(#mask0_4009_459)">
<path d="M38.8281 20.7351H49.1465V32.277H38.8281V20.7351Z" fill="url(#paint0_linear_4009_459)"/>
</g>
<mask id="mask1_4009_459" style="mask-type:luminance" maskUnits="userSpaceOnUse" x="1" y="9" width="12" height="6">
<path d="M12.2432 14.4437L9.14792 9.93542C9.14792 9.93542 5.51134 12.7588 1.13629 12.5116C1.13629 12.5116 2.75926 13.8984 5.75594 14.5429C5.75594 14.5429 9.78317 12.4472 12.2432 14.4442V14.4437Z" fill="white"/>
</mask>
<g mask="url(#mask1_4009_459)">
<path d="M1.13681 9.93542H12.2432V14.5424H1.13681V9.93542Z" fill="url(#paint1_linear_4009_459)"/>
</g>
<mask id="mask2_4009_459" style="mask-type:luminance" maskUnits="userSpaceOnUse" x="9" y="3" width="6" height="12">
<path d="M13.1267 14.4437L10.2766 12.4617L9.14801 9.9354C9.14801 9.9354 12.1447 7.35975 11.4568 3C11.4568 3 13.8657 5.8234 14.0112 8.84521C14.0112 8.84521 11.1131 10.8267 13.1267 14.4432V14.4437Z" fill="white"/>
</mask>
<g mask="url(#mask2_4009_459)">
<path d="M9.14801 3H14.0112V14.4437H9.14801V3Z" fill="url(#paint2_linear_4009_459)"/>
</g>
<mask id="mask3_4009_459" style="mask-type:luminance" maskUnits="userSpaceOnUse" x="9" y="9" width="31" height="18">
<path d="M39.2705 15.5832L35.1427 15.2851C35.1427 15.2851 18.3371 21.5759 9.14888 9.93488C9.14888 9.93488 10.6712 21.0804 22.4655 26.2333L30.0813 24.1526L39.2705 15.5827V15.5832Z" fill="white"/>
</mask>
<g mask="url(#mask3_4009_459)">
<path d="M9.14837 9.93567H39.2705V26.2341H9.14837V9.93567Z" fill="url(#paint3_linear_4009_459)"/>
</g>
<mask id="mask4_4009_459" style="mask-type:luminance" maskUnits="userSpaceOnUse" x="22" y="7" width="30" height="21">
<path d="M30.9661 23.9542L22.4648 26.2338C22.4648 26.2338 35.978 30.8896 45.4113 24.2025C54.8467 17.5148 50.8669 7.21063 50.8669 7.21063L30.9661 23.9542Z" fill="white"/>
</mask>
<g mask="url(#mask4_4009_459)">
<path d="M22.4648 7.21063H54.8467V30.8896H22.4648V7.21063Z" fill="url(#paint4_linear_4009_459)"/>
</g>
<mask id="mask5_4009_459" style="mask-type:luminance" maskUnits="userSpaceOnUse" x="28" y="19" width="11" height="18">
<path d="M38.8277 21.2301C38.8277 21.2301 40.6458 33.7629 28.9996 36.1905C28.9996 36.1905 32.4804 32.5325 33.3737 24.0535C34.2664 15.5755 38.8283 21.2301 38.8283 21.2301H38.8277Z" fill="white"/>
</mask>
<g mask="url(#mask5_4009_459)">
<path d="M28.9993 15.5754H40.646V36.1905H28.9993V15.5754Z" fill="url(#paint5_linear_4009_459)"/>
</g>
<mask id="mask6_4009_459" style="mask-type:luminance" maskUnits="userSpaceOnUse" x="22" y="7" width="29" height="20">
<path d="M50.8672 7.21063C50.8672 7.21063 43.5951 29.107 22.465 26.2338C22.465 26.2338 29.8842 22.6173 35.1422 15.2851C35.1422 15.2851 38.5326 14.3444 50.8672 7.21063Z" fill="white"/>
</mask>
<g mask="url(#mask6_4009_459)">
<path d="M22.465 7.21063H50.8672V29.107H22.465V7.21063Z" fill="url(#paint6_linear_4009_459)"/>
</g>
<defs>
<linearGradient id="paint0_linear_4009_459" x1="50.513" y1="34.6527" x2="43.5484" y2="26.0701" gradientUnits="userSpaceOnUse">
<stop stop-color="#30ADE0"/>
<stop offset="1" stop-color="#000001"/>
</linearGradient>
<linearGradient id="paint1_linear_4009_459" x1="1.28388" y1="12.0338" x2="14.464" y2="12.5275" gradientUnits="userSpaceOnUse">
<stop stop-color="#0999CC"/>
<stop offset="1" stop-color="#000001"/>
</linearGradient>
<linearGradient id="paint2_linear_4009_459" x1="11.6121" y1="5.96935" x2="11.4987" y2="15.3827" gradientUnits="userSpaceOnUse">
<stop stop-color="#0BB1D3"/>
<stop offset="1" stop-color="#000001"/>
</linearGradient>
<linearGradient id="paint3_linear_4009_459" x1="12.0377" y1="16.6509" x2="57.837" y2="21.9775" gradientUnits="userSpaceOnUse">
<stop stop-color="#3E7AA8"/>
<stop offset="1" stop-color="#000001"/>
</linearGradient>
<linearGradient id="paint4_linear_4009_459" x1="53.6396" y1="12.5873" x2="19.2655" y2="27.223" gradientUnits="userSpaceOnUse">
<stop stop-color="white"/>
<stop offset="1" stop-color="#000001"/>
</linearGradient>
<linearGradient id="paint5_linear_4009_459" x1="33.2923" y1="35.5631" x2="36.107" y2="17.9916" gradientUnits="userSpaceOnUse">
<stop stop-color="#5DB0ED"/>
<stop offset="1" stop-color="#000001"/>
</linearGradient>
<linearGradient id="paint6_linear_4009_459" x1="35.1845" y1="24.8216" x2="39.924" y2="3.78428" gradientUnits="userSpaceOnUse">
<stop stop-color="#328FDF"/>
<stop offset="1" stop-color="#8DD7F7"/>
</linearGradient>
</defs>
</svg>
