<svg width="128" height="80" viewBox="0 0 128 80" fill="none" xmlns="http://www.w3.org/2000/svg">
<path d="M40.4633 42.0212C39.3407 46.4804 34.8244 49.2185 30.3342 48.0972C25.8702 46.9758 23.1291 42.4645 24.2516 37.9792C25.3742 33.52 29.8904 30.7819 34.3806 31.9032C38.8447 33.0245 41.5858 37.562 40.4633 42.0212Z" fill="#888196"/>
<path d="M36.0253 38.8135C36.1819 37.6922 35.3465 37.1185 34.1979 36.7012L34.5633 35.1888L33.6496 34.9541L33.2842 36.4144C33.0492 36.3622 32.7881 36.3101 32.5532 36.2318L32.9187 34.7454L32.005 34.5107L31.6395 36.0232C31.4306 35.9711 31.2479 35.945 31.0652 35.8928L29.8121 35.5799L29.5771 36.5708C29.5771 36.5708 30.2559 36.7273 30.2298 36.7273C30.5953 36.8316 30.6736 37.0663 30.6475 37.2489L30.2298 38.97C30.2559 38.97 30.282 38.996 30.3342 38.996C30.3081 38.996 30.282 38.97 30.2298 38.97L29.6293 41.3691C29.5771 41.4734 29.4727 41.6559 29.2117 41.5777C29.2117 41.6038 28.5329 41.4212 28.5329 41.4212L28.0891 42.4643L29.29 42.7512C29.5249 42.8033 29.7338 42.8555 29.9426 42.9076L29.551 44.4201L30.4647 44.6548L30.8302 43.1423C31.0913 43.2206 31.3262 43.2727 31.5612 43.3249L31.1957 44.8113L32.1094 45.046L32.501 43.5335C34.0673 43.8203 35.2421 43.716 35.7381 42.3079C36.1297 41.1605 35.712 40.5085 34.9027 40.0913C35.477 40.0391 35.9208 39.6219 36.0253 38.8135ZM33.9368 41.7602C33.6496 42.9076 31.7439 42.2818 31.1174 42.1253L31.6134 40.1174C32.2399 40.2738 34.2501 40.5607 33.9368 41.7602ZM34.224 38.8135C33.9629 39.8566 32.3705 39.335 31.8483 39.2047L32.2921 37.3792C32.8404 37.4836 34.485 37.7182 34.224 38.8135Z" fill="#12032E"/>
<path d="M67.0651 43.6116C67.0651 42.6467 67.2217 41.7601 67.535 40.8995C67.8482 40.0651 68.292 39.3088 68.8664 38.683C69.4407 38.0571 70.1455 37.5616 70.9809 37.1966C71.7902 36.8315 72.73 36.6489 73.7481 36.6489C74.3747 36.6489 74.949 36.7011 75.445 36.8315C75.941 36.9619 76.4109 37.1183 76.8025 37.3009L75.7322 39.7521C75.445 39.6478 75.1578 39.5435 74.8446 39.4392C74.5313 39.3349 74.1658 39.3088 73.722 39.3088C72.6778 39.3088 71.8424 39.6739 71.242 40.378C70.6416 41.1081 70.3283 42.073 70.3283 43.2726C70.3283 44.0027 70.4849 44.5764 70.7982 45.0197C71.1115 45.463 71.6858 45.6717 72.5212 45.6717C72.9389 45.6717 73.3304 45.6195 73.6959 45.5413C74.0875 45.463 74.4269 45.3587 74.714 45.2283L74.949 47.7318C74.5574 47.8882 74.1136 48.0186 73.6437 48.149C73.1738 48.2533 72.5995 48.3316 71.9207 48.3316C71.0592 48.3316 70.3022 48.2012 69.7017 47.9404C69.1013 47.6796 68.6053 47.3406 68.2137 46.9234C67.8221 46.4801 67.535 45.9846 67.3522 45.4109C67.1434 44.8633 67.0651 44.2635 67.0651 43.6116ZM80.9533 48.3576C80.1963 48.3576 79.5697 48.2533 78.9954 48.0186C78.4472 47.7839 78.0034 47.471 77.6379 47.0798C77.2724 46.6626 77.0114 46.1932 76.8286 45.6456C76.6459 45.098 76.5676 44.4721 76.5676 43.7941C76.5676 42.9596 76.6981 42.0991 76.9852 41.2646C77.2463 40.4301 77.664 39.6478 78.2122 38.9959C78.7343 38.3179 79.4131 37.7703 80.1701 37.3269C80.9533 36.9097 81.8409 36.675 82.8329 36.675C83.5639 36.675 84.2165 36.7793 84.7648 37.014C85.313 37.2487 85.7829 37.5616 86.1484 37.9528C86.5138 38.37 86.7749 38.8394 86.9576 39.387C87.1404 39.9347 87.2448 40.5605 87.2448 41.2385C87.2448 42.073 87.1143 42.9336 86.8532 43.768C86.5922 44.6025 86.2006 45.3587 85.6785 46.0367C85.1563 46.7148 84.5037 47.2624 83.7205 47.7057C82.9113 48.149 81.9975 48.3576 80.9533 48.3576ZM48.4778 36.7011C49.1565 36.7011 49.7308 36.8315 50.2269 37.0662C50.7229 37.3009 51.1406 37.6399 51.4538 38.031C51.7671 38.4483 52.0282 38.9177 52.1848 39.4653C52.3414 40.0129 52.4197 40.6127 52.4197 41.2385C52.4197 42.2034 52.237 43.1422 51.8715 44.0027C51.506 44.8633 51.01 45.6195 50.4096 46.2714C49.7831 46.9234 49.0521 47.4188 48.2167 47.7839C47.3813 48.149 46.4676 48.3316 45.4756 48.3316C45.3451 48.3316 45.1362 48.3316 44.7969 48.3316C44.4836 48.3316 44.1181 48.2794 43.7004 48.2272C43.2827 48.1751 42.865 48.0968 42.3951 47.9665C41.9252 47.8622 41.5075 47.7057 41.0898 47.4971L44.7446 32.1376L48.0079 31.6421L46.7026 37.0922C46.9897 36.9619 47.2769 36.8575 47.538 36.8054C47.8512 36.7532 48.1645 36.7011 48.4778 36.7011ZM63.6974 36.9358H67.1956L66.569 39.5174H63.0709L62.1311 43.4029C62.0528 43.7159 62.0005 44.0288 61.9744 44.3156C61.9483 44.6025 62.0005 44.8372 62.0789 45.0458C62.1572 45.2544 62.3138 45.4109 62.5227 45.5152C62.7315 45.6195 63.0448 45.6977 63.4625 45.6977C63.8018 45.6977 64.1412 45.6717 64.4545 45.5934C64.7678 45.5413 65.081 45.437 65.4204 45.3327L65.6553 47.7318C65.2377 47.8882 64.7678 48.0186 64.2717 48.1229C63.7757 48.2272 63.2014 48.2794 62.5227 48.2794C61.5567 48.2794 60.7997 48.1229 60.2515 47.8361C59.7032 47.5492 59.3378 47.1581 59.1028 46.6626C58.8679 46.1671 58.7895 45.5934 58.8156 44.9415C58.8418 44.2896 58.9462 43.6116 59.1028 42.8814L61.1652 34.1455L64.4545 33.65L63.6974 36.9358ZM55.8135 48.0447H52.6808L55.3175 36.9358H58.4763L55.8135 48.0447ZM90.6386 48.0447H87.5059L90.1425 36.9358H93.3013L90.6386 48.0447ZM95.5464 37.4573C95.7814 37.3791 96.0424 37.3009 96.3296 37.2226C96.6168 37.1444 96.93 37.0401 97.2955 36.9619C97.661 36.8836 98.0526 36.8315 98.4964 36.7793C98.9402 36.7272 99.4362 36.7011 100.011 36.7011C101.655 36.7011 102.804 37.1705 103.43 38.1353C104.057 39.1002 104.161 40.4041 103.77 42.073L102.334 48.0708H99.1751L100.559 42.2034C100.637 41.8383 100.715 41.4732 100.768 41.1342C100.82 40.7952 100.82 40.4823 100.768 40.2215C100.715 39.9607 100.585 39.7521 100.376 39.5957C100.167 39.4392 99.8539 39.361 99.4362 39.361C99.0185 39.361 98.6008 39.4131 98.1831 39.4914L96.1208 48.0968H92.9881L95.5464 37.4573ZM45.7367 45.7499C46.2327 45.7499 46.7026 45.6195 47.1203 45.3848C47.5641 45.1501 47.9295 44.8372 48.2428 44.42C48.5561 44.0288 48.8171 43.5594 48.9999 43.0639C49.1826 42.5685 49.287 42.0208 49.287 41.4732C49.287 40.7952 49.1826 40.2737 48.9477 39.8825C48.7127 39.4914 48.295 39.3088 47.6946 39.3088C47.4857 39.3088 47.2508 39.3349 46.9114 39.4131C46.5982 39.4914 46.311 39.6217 46.0499 39.8564L44.6663 45.6456C44.7446 45.6717 44.823 45.6717 44.9013 45.6977C44.9535 45.7238 45.0318 45.7238 45.1101 45.7238C45.1884 45.7238 45.2668 45.7238 45.3712 45.7238C45.4756 45.7238 45.58 45.7499 45.7367 45.7499ZM82.5197 39.3088C82.0498 39.3088 81.6582 39.4392 81.2927 39.7C80.9272 39.9607 80.64 40.2997 80.4051 40.717C80.1701 41.1342 79.9874 41.5775 79.8569 42.0469C79.7264 42.5424 79.6741 42.9857 79.6741 43.429C79.6741 44.1331 79.7786 44.6807 80.0135 45.0719C80.2485 45.463 80.6401 45.6717 81.2405 45.6717C81.7104 45.6717 82.102 45.5413 82.4675 45.2805C82.8068 45.0197 83.1201 44.6807 83.355 44.2635C83.59 43.8463 83.7727 43.4029 83.9033 42.9336C84.0338 42.4381 84.086 41.9948 84.086 41.5515C84.086 40.8474 83.9816 40.2997 83.7466 39.9086C83.5378 39.5174 83.1201 39.3088 82.5197 39.3088ZM57.3276 35.6058C56.8838 35.6058 56.4922 35.4754 56.1529 35.2147C55.7874 34.9539 55.6307 34.5627 55.6307 34.0151C55.6307 33.7283 55.683 33.4414 55.8135 33.1807C55.944 32.9199 56.1006 32.6852 56.2834 32.5026C56.4922 32.3201 56.7011 32.1636 56.9621 32.0593C57.2232 31.955 57.5104 31.9029 57.7975 31.9029C58.2413 31.9029 58.6329 32.0332 58.9723 32.294C59.3117 32.5548 59.4944 32.946 59.4944 33.4936C59.4944 33.7804 59.4422 34.0673 59.3117 34.3281C59.1811 34.5888 59.0245 34.8235 58.8418 35.0061C58.6329 35.1886 58.4241 35.3451 58.163 35.4494C57.9019 35.5537 57.6409 35.6058 57.3276 35.6058ZM92.1527 35.6058C91.7089 35.6058 91.3173 35.4754 90.9779 35.2147C90.6124 34.9539 90.4558 34.5627 90.4558 34.0151C90.4558 33.7283 90.508 33.4414 90.6386 33.1807C90.7691 32.9199 90.9257 32.6852 91.1085 32.5026C91.3173 32.3201 91.5261 32.1636 91.7872 32.0593C92.0483 31.955 92.3354 31.9029 92.6226 31.9029C93.0664 31.9029 93.458 32.0332 93.7974 32.294C94.1367 32.5548 94.3195 32.946 94.3195 33.4936C94.3195 33.7804 94.2673 34.0673 94.1367 34.3281C94.0062 34.5888 93.8496 34.8235 93.6668 35.0061C93.458 35.1886 93.2491 35.3451 92.9881 35.4494C92.727 35.5537 92.4398 35.6058 92.1527 35.6058Z" fill="#888196"/>
</svg>
