<svg width="94" height="40" viewBox="0 0 94 40" fill="none" xmlns="http://www.w3.org/2000/svg">
<path fill-rule="evenodd" clip-rule="evenodd" d="M33.4284 8.36134C33.4284 8.36134 28.3537 0.97998 16.9743 0.97998C7.59392 0.97998 0.520203 6.20844 0.520203 9.28401C0.520203 12.8209 7.59392 14.6662 7.59392 20.2023H19.7423C19.7423 16.9729 9.13168 15.2814 9.13168 8.36134C9.13168 2.05643 25.5858 2.51776 33.4284 8.36134Z" fill="#888196"/>
<path fill-rule="evenodd" clip-rule="evenodd" d="M33.4284 32.0431C33.4284 32.0431 28.3537 39.4244 16.9743 39.4244C7.59392 39.4244 0.520203 34.196 0.520203 31.1204C0.520203 27.5835 7.59392 25.5844 7.59392 20.2021H19.7423C19.7423 23.4315 9.13168 25.1231 9.13168 32.0431C9.13168 38.348 25.5858 37.8866 33.4284 32.0431Z" fill="#888196"/>
<path fill-rule="evenodd" clip-rule="evenodd" d="M0.673979 8.20752C0.520203 8.66885 0.520203 8.97641 0.520203 9.28397C0.520203 12.8209 7.59392 14.6662 7.59392 20.2022C7.59392 25.5845 0.520203 27.5836 0.520203 31.1205C0.520203 31.428 0.520203 31.7356 0.673979 32.0432C-0.24868 28.66 12.0534 25.7382 17.7432 22.6627C18.9734 21.8938 19.7423 21.1249 19.7423 20.2022C19.7423 19.2796 18.9734 18.5107 17.7432 17.7418C12.0534 14.6662 -0.24868 11.7444 0.673979 8.20752Z" fill="#888196"/>
<path d="M28.2 21.5857H29.4302C29.2764 22.2008 28.9688 22.6622 28.3537 22.9697C27.8924 23.2773 27.2773 23.5848 26.3546 23.5848C25.432 23.5848 24.6631 23.2773 24.2018 22.6622C23.5867 22.2008 23.2791 21.432 23.2791 20.3555C23.2791 19.4328 23.5867 18.6639 24.2018 18.0488C24.6631 17.5875 25.432 17.2799 26.3546 17.2799C27.4311 17.2799 28.2 17.5875 28.8151 18.0488C29.2764 18.6639 29.5839 19.4328 29.5839 20.3555C29.5839 20.5093 29.5839 20.5093 29.5839 20.5093C29.5839 20.6631 29.5839 20.6631 29.5839 20.6631C29.5839 20.8168 29.5839 20.8168 29.5839 20.8168H25.1244C25.1244 21.2782 25.2782 21.5857 25.5858 21.8933C25.7395 22.0471 26.0471 22.2008 26.5084 22.2008C26.816 22.2008 26.9697 22.2008 27.2773 22.0471C27.2773 22.0471 27.2773 22.0471 27.4311 22.0471C27.4311 21.8933 27.4311 21.8933 27.5849 21.8933C27.5849 21.7395 27.5849 21.7395 27.7386 21.7395C27.8924 21.5857 28.0462 21.5857 28.2 21.5857ZM25.1244 19.7404H27.7386C27.7386 19.4328 27.5849 19.1253 27.4311 18.9715C27.1235 18.6639 26.816 18.6639 26.5084 18.6639C26.0471 18.6639 25.7395 18.6639 25.5858 18.9715C25.2782 19.1253 25.1244 19.4328 25.1244 19.7404ZM37.119 23.4311H36.1963C36.0425 23.4311 35.735 23.2773 35.5812 23.1235C35.4274 23.1235 35.4274 22.816 35.4274 22.6622V19.5866C35.4274 19.2791 35.2737 18.9715 34.9661 18.8177C34.8123 18.6639 34.5048 18.5102 34.1972 18.5102C33.8897 18.5102 33.5821 18.6639 33.4284 18.8177C33.1208 18.9715 33.1208 19.2791 33.1208 19.5866V23.4311H31.2755V19.8942C31.2755 18.8177 31.583 18.2026 32.1981 17.8951C32.8132 17.4337 33.4284 17.2799 34.1972 17.2799C34.9661 17.2799 35.5812 17.4337 36.1963 17.7413C36.8114 18.2026 37.119 18.8177 37.119 19.8942V23.4311ZM43.27 15.5884H44.1927C44.5002 15.5884 44.654 15.7422 44.8078 15.8959C44.9616 16.0497 45.1154 16.2035 45.1154 16.3573V20.8168C45.1154 21.8933 44.654 22.6622 44.0389 22.9697C43.27 23.2773 42.6549 23.5848 41.7323 23.5848C41.2709 23.5848 40.9634 23.4311 40.5021 23.2773C40.0407 23.2773 39.7332 22.9697 39.4256 22.6622C38.9643 22.2008 38.8105 21.432 38.8105 20.5093C38.8105 19.4328 38.9643 18.6639 39.4256 18.2026C40.0407 17.5875 40.6558 17.2799 41.4247 17.2799C41.886 17.2799 42.1936 17.4337 42.5012 17.5875C42.8087 17.7413 43.1163 17.8951 43.27 18.2026V15.5884ZM40.5021 20.3555C40.5021 20.9706 40.6558 21.432 40.8096 21.7395C41.1172 22.0471 41.4247 22.2008 41.886 22.2008C42.3474 22.2008 42.8087 22.0471 42.9625 21.7395C43.27 21.432 43.27 20.9706 43.27 20.3555C43.27 19.8942 43.27 19.4328 42.9625 19.1253C42.6549 18.8177 42.3474 18.6639 41.886 18.6639C41.4247 18.6639 41.1172 18.8177 40.8096 19.1253C40.6558 19.4328 40.5021 19.8942 40.5021 20.3555ZM47.7296 22.816C47.2682 22.6622 47.1144 22.2008 46.9607 21.7395C46.8069 21.2782 46.6531 20.8168 46.6531 20.3555C46.6531 19.8942 46.8069 19.5866 46.8069 19.1253C46.9607 18.6639 47.1144 18.3564 47.422 18.0488C47.8833 17.7413 48.4984 17.4337 49.1135 17.2799C49.8824 17.2799 50.4975 17.2799 50.9589 17.4337C51.7277 17.7413 52.1891 18.0488 52.4966 18.6639C52.8042 19.1253 52.8042 19.7404 52.8042 20.3555C52.8042 20.8168 52.8042 21.2782 52.6504 21.5857C52.6504 21.8933 52.4966 22.2008 52.1891 22.5084C51.8815 22.9697 51.2664 23.2773 50.6513 23.4311C50.19 23.5848 49.5749 23.5848 48.9598 23.4311C48.4984 23.2773 48.0371 23.1235 47.7296 22.816ZM48.806 18.9715C48.4984 19.2791 48.3447 19.7404 48.3447 20.5093C48.4984 21.1244 48.4984 21.5857 48.806 21.8933C48.9598 22.0471 49.1135 22.0471 49.4211 22.2008C49.5749 22.2008 49.8824 22.2008 50.19 22.2008C50.3437 22.2008 50.6513 22.0471 50.8051 21.7395C50.9589 21.432 51.1126 20.9706 51.1126 20.3555C51.1126 19.8942 51.1126 19.4328 50.8051 19.1253C50.6513 18.9715 50.4975 18.6639 50.19 18.6639C49.8824 18.5102 49.7286 18.5102 49.4211 18.6639C49.1135 18.6639 48.9598 18.8177 48.806 18.9715ZM54.6495 23.4311V20.5093C54.6495 19.8942 54.6495 19.4328 54.957 18.9715C55.1108 18.6639 55.4184 18.3564 55.7259 18.0488C56.0335 17.8951 56.341 17.7413 56.8024 17.5875C57.2637 17.4337 57.725 17.4337 58.1863 17.4337C58.1863 17.4337 58.1863 17.4337 58.3401 17.4337V18.9715H57.8788C57.2637 18.9715 56.9561 19.1253 56.8024 19.2791C56.4948 19.5866 56.341 19.8942 56.341 20.3555V23.4311H54.6495ZM61.7232 24.8151C61.7232 25.1226 61.7232 25.2764 61.5694 25.4302C61.2619 25.584 61.1081 25.584 60.9543 25.584H60.0317V20.0479C60.0317 18.9715 60.3392 18.2026 61.1081 17.8951C61.7232 17.4337 62.4921 17.2799 63.261 17.2799C63.7223 17.2799 64.1836 17.4337 64.6449 17.4337C65.1063 17.5875 65.4138 17.8951 65.5676 18.0488C66.1827 18.6639 66.3365 19.4328 66.3365 20.3555C66.3365 21.2782 66.1827 22.0471 65.5676 22.6622C65.1063 23.2773 64.4912 23.5848 63.7223 23.5848C63.261 23.5848 62.9534 23.4311 62.4921 23.2773C62.1845 23.1235 62.0308 22.9697 61.7232 22.6622V24.8151ZM64.6449 20.5093C64.6449 19.8942 64.4912 19.4328 64.3374 19.1253C64.0298 18.8177 63.7223 18.6639 63.1072 18.6639C62.6459 18.6639 62.3383 18.8177 62.1845 19.1253C61.877 19.4328 61.7232 19.8942 61.7232 20.5093C61.7232 20.9706 61.877 21.432 62.1845 21.7395C62.3383 22.0471 62.7996 22.2008 63.261 22.2008C63.7223 22.2008 64.0298 22.0471 64.3374 21.7395C64.4912 21.432 64.6449 20.9706 64.6449 20.5093ZM72.3338 19.1253C72.18 18.8177 71.7187 18.6639 71.4111 18.6639C70.796 18.6639 70.4884 18.8177 70.1809 19.1253C70.0271 19.4328 69.8733 19.7404 69.8733 20.3555V23.4311H68.1818V15.7422H68.9507C69.2582 15.7422 69.412 15.7422 69.5658 15.8959C69.7196 16.0497 69.8733 16.2035 69.8733 16.3573V18.2026C70.1809 17.7413 70.6422 17.4337 71.1036 17.4337C71.7187 17.2799 72.18 17.2799 72.7951 17.4337C73.2564 17.5875 73.564 17.8951 73.8715 18.3564C74.3329 18.6639 74.4866 19.2791 74.4866 19.8942V23.4311H72.7951V20.3555C72.7951 20.0479 72.6413 19.8942 72.6413 19.7404C72.6413 19.4328 72.4875 19.2791 72.3338 19.1253ZM76.3319 17.4337H77.2546C77.4084 17.4337 77.7159 17.4337 77.8697 17.5875C78.0235 17.7413 78.1773 18.0488 78.1773 18.2026V23.4311H76.3319V17.4337ZM76.3319 15.7422H77.2546C77.4084 15.7422 77.7159 15.7422 77.8697 15.8959C78.0235 16.0497 78.1773 16.2035 78.1773 16.3573V16.9724H76.3319V15.7422ZM85.5585 23.4311H84.6359C84.3283 23.4311 84.1745 23.2773 84.0208 23.1235C83.867 23.1235 83.7132 22.816 83.7132 22.6622V19.5866C83.7132 19.2791 83.7132 18.9715 83.4057 18.8177C83.0981 18.6639 82.9443 18.5102 82.6368 18.5102C82.3292 18.5102 82.0217 18.6639 81.7141 18.8177C81.5603 18.9715 81.4066 19.2791 81.4066 19.5866V23.4311H79.715V19.8942C79.715 18.8177 79.8688 18.2026 80.4839 17.8951C81.099 17.4337 81.8679 17.2799 82.483 17.2799C83.2519 17.2799 84.0208 17.4337 84.6359 17.7413C85.251 18.2026 85.5585 18.8177 85.5585 19.8942V23.4311ZM91.0945 20.3555C90.9407 20.5093 90.6331 20.6631 90.1718 20.6631C89.7105 20.8168 89.5567 20.8168 89.5567 20.8168C89.2492 20.8168 89.0954 20.9706 88.9416 21.1244C88.7878 21.2782 88.7878 21.432 88.7878 21.5857C88.7878 21.7395 88.7878 22.0471 88.9416 22.2008C89.0954 22.2008 89.4029 22.3546 89.5567 22.3546C90.1718 22.3546 90.4794 22.2008 90.7869 21.8933C90.9407 21.7395 91.0945 21.432 91.0945 20.9706V20.3555ZM91.5558 23.1235C91.2483 23.2773 90.7869 23.4311 90.4794 23.4311C90.018 23.4311 89.7105 23.5848 89.4029 23.5848C88.7878 23.5848 88.1727 23.4311 87.7114 23.1235C87.2501 22.816 87.0963 22.3546 87.0963 21.5857C87.0963 20.9706 87.2501 20.5093 87.7114 20.3555C88.1727 20.0479 88.6341 19.8942 89.2492 19.7404C89.4029 19.7404 89.4029 19.7404 89.5567 19.7404C89.7105 19.7404 89.8643 19.7404 90.018 19.5866C90.7869 19.5866 91.0945 19.4328 91.0945 19.1253C91.0945 18.8177 90.9407 18.6639 90.7869 18.6639C90.4794 18.5102 90.1718 18.5102 90.018 18.5102C89.7105 18.5102 89.5567 18.5102 89.4029 18.6639C89.2492 18.6639 89.0954 18.8177 88.9416 18.9715H87.2501C87.4038 18.5102 87.5576 18.0488 88.019 17.7413C88.4803 17.4337 89.0954 17.2799 89.8643 17.2799C90.9407 17.2799 91.5558 17.4337 92.0171 17.7413C92.4785 18.0488 92.786 18.5102 92.786 18.9715V20.9706C92.786 21.5857 92.6322 22.0471 92.4785 22.5084C92.1709 22.816 91.8634 22.9697 91.5558 23.1235Z" fill="#888196"/>
</svg>
