<svg width="98" height="40" viewBox="0 0 98 40" fill="none" xmlns="http://www.w3.org/2000/svg">
<path d="M25.1423 4.25293H35.7826L36.0452 7.8503H35.4157C35.1675 6.37178 35.1351 6.05161 34.5956 5.47963C34.056 4.90765 32.984 4.94362 32.1171 4.94362H29.3977C29.307 4.93727 29.216 4.95 29.1305 4.98098C29.045 5.01196 28.9669 5.06051 28.9013 5.12349C28.7774 5.27615 28.7168 5.47064 28.7323 5.6667V10.2497H29.9229C30.2161 10.2595 30.5077 10.2032 30.776 10.0849C31.0444 9.96654 31.2827 9.78928 31.4733 9.56624C31.8689 9.11058 32.0824 8.40909 32.1135 7.46178H32.761V13.8903H32.1135C32.0824 12.8255 31.8653 12.064 31.4625 11.606C31.2573 11.3755 31.0032 11.1939 30.7188 11.0744C30.4343 10.9548 30.1268 10.9005 29.8186 10.9153H28.7394V16.0739C28.7341 16.1611 28.7495 16.2484 28.7845 16.3285C28.8196 16.4085 28.8732 16.4791 28.9409 16.5343C29.1407 16.6586 29.3756 16.7142 29.61 16.6926H31.7682C34.0992 16.6926 35.4445 15.93 35.8006 12.9514H36.4768L36.2215 17.3941H25.1423V16.6746H25.7287C26.0018 16.7009 26.2757 16.6336 26.5056 16.484C26.5822 16.4137 26.642 16.3271 26.6806 16.2305C26.7192 16.134 26.7356 16.0301 26.7287 15.9264V5.6667C26.7385 5.56831 26.7273 5.46895 26.6956 5.37527C26.664 5.28159 26.6127 5.19575 26.5452 5.12349C26.3683 4.98917 26.1479 4.9251 25.9265 4.94362H25.1423V4.25293Z" fill="#888196"/>
<path d="M35.5596 8.59668H40.3618V9.23701C39.9883 9.21561 39.6142 9.26818 39.261 9.3917C39.188 9.42671 39.1265 9.48189 39.0838 9.55074C39.0411 9.61958 39.0189 9.69921 39.02 9.78022C39.0209 9.92326 39.0528 10.0644 39.1136 10.1939L41.4445 15.4029L43.5668 10.3666C43.5972 10.2823 43.6131 10.1935 43.6136 10.104C43.6136 9.64831 43.164 9.36412 42.2647 9.2514V8.59668H45.905V9.23701C45.5896 9.25509 45.2851 9.35828 45.0237 9.5356C44.8038 9.7073 44.6337 9.93455 44.5309 10.1939L41.2934 17.6585H40.7898L37.3366 9.98887C37.2445 9.75606 37.0856 9.55577 36.8797 9.41329C36.453 9.29134 36.0105 9.23315 35.5668 9.24061L35.5596 8.59668Z" fill="#888196"/>
<path d="M49.2972 8.3357C49.8562 8.32489 50.4111 8.43354 50.9248 8.65439C51.4384 8.87525 51.899 9.20321 52.2757 9.61636C53.105 10.5392 53.5378 11.7513 53.4808 12.9907C53.5058 13.8439 53.3205 14.6902 52.9412 15.4549C52.5895 16.1251 52.0559 16.6825 51.4016 17.0629C50.7501 17.4547 50.0035 17.66 49.2433 17.6565C48.6986 17.6607 48.1595 17.5471 47.6628 17.3236C47.1661 17.1001 46.7236 16.7719 46.3655 16.3614C45.5517 15.4363 45.1264 14.2326 45.1785 13.0015C45.1273 11.7733 45.5511 10.5726 46.3619 9.64874C46.727 9.23042 47.1785 8.89636 47.6853 8.66966C48.1921 8.44295 48.7421 8.32901 49.2972 8.3357ZM49.2972 9.00121C48.9523 9.00114 48.613 9.08855 48.311 9.25527C48.0091 9.42199 47.7543 9.66257 47.5706 9.95451C47.1197 10.5901 46.8943 11.5925 46.8943 12.9619C46.8943 14.3313 47.1185 15.3518 47.567 16.0233C47.7485 16.3191 48.0029 16.5634 48.3059 16.7329C48.6088 16.9023 48.9502 16.9912 49.2972 16.991C49.6513 16.994 50.0002 16.9068 50.3111 16.7374C50.6221 16.5681 50.8847 16.3223 51.0743 16.0233C51.5275 15.3782 51.7541 14.3241 51.7541 12.8612C51.7541 11.5038 51.5299 10.5217 51.0814 9.91494C50.8824 9.62762 50.6152 9.39411 50.3039 9.23529C49.9925 9.07646 49.6467 8.99728 49.2972 9.00481V9.00121Z" fill="#888196"/>
<path d="M56.4012 4.0791V16.0979C56.3962 16.1726 56.4078 16.2475 56.4352 16.3171C56.4625 16.3868 56.505 16.4495 56.5595 16.5008C56.7224 16.6281 56.9248 16.6943 57.1314 16.6879H57.6962V17.4074H53.4515V16.6879H53.9731C54.2016 16.7036 54.4272 16.6301 54.6026 16.4829C54.6761 16.4055 54.7329 16.3138 54.7694 16.2136C54.8059 16.1133 54.8214 16.0066 54.8148 15.9001V5.92815C54.8259 5.8027 54.8091 5.67634 54.7656 5.55816C54.7221 5.43998 54.6529 5.33291 54.563 5.24465C54.3263 5.04149 54.0224 4.93377 53.7105 4.94247H52.9227V4.25178L56.4012 4.0791Z" fill="#888196"/>
<path d="M60.869 8.43848V14.2698C60.8306 14.8691 61.0237 15.4602 61.4086 15.921C61.5846 16.1132 61.8002 16.2649 62.0405 16.3655C62.2809 16.4661 62.5403 16.5133 62.8007 16.5038C63.1451 16.5076 63.486 16.4331 63.7975 16.2861C64.1091 16.139 64.3832 15.9232 64.5992 15.6548C65.0933 15.0593 65.3496 14.302 65.3186 13.5288V10.2336C65.3252 10.0992 65.2992 9.96525 65.2428 9.84311C65.1864 9.72096 65.1014 9.61426 64.9949 9.53208C64.6144 9.3244 64.183 9.22839 63.7503 9.25508V8.59676L66.8366 8.43848V15.6584C66.8278 15.7989 66.8486 15.9397 66.8975 16.0717C66.9465 16.2036 67.0225 16.3239 67.1208 16.4247C67.3383 16.6133 67.6212 16.709 67.9086 16.6909H68.4625V17.3204L65.5057 17.3852L65.3186 15.6584C64.8711 16.2097 64.335 16.6826 63.7323 17.0578C63.2475 17.357 62.6904 17.5187 62.1208 17.5255C61.7513 17.5346 61.3838 17.4686 61.0406 17.3313C60.6974 17.194 60.3857 16.9883 60.1244 16.7269C59.5801 16.2016 59.3079 15.3095 59.3079 14.0504V10.2336C59.3169 10.0819 59.2858 9.93046 59.2175 9.79465C59.1493 9.65884 59.0465 9.54345 58.9194 9.46013C58.5569 9.29874 58.1606 9.22835 57.7647 9.25508V8.59676L60.869 8.43848Z" fill="#888196"/>
<path d="M70.2432 5.01465H70.8727V8.61202H76.2253V9.47539H70.8727V15.1053C70.8484 15.5112 70.9767 15.9115 71.2324 16.2277C71.3416 16.3534 71.4772 16.4534 71.6296 16.5206C71.782 16.5877 71.9473 16.6204 72.1137 16.6162C72.3277 16.6116 72.5375 16.5556 72.7253 16.4529C72.9131 16.3502 73.0735 16.2039 73.1929 16.0262C73.4926 15.6329 73.6677 14.9818 73.7181 14.0728H74.3476C74.3092 15.2432 74.043 16.1114 73.549 16.6773C73.312 16.9537 73.0162 17.1734 72.6831 17.3203C72.3501 17.4673 71.9883 17.5376 71.6245 17.5263C71.315 17.5445 71.0049 17.501 70.7122 17.3985C70.4195 17.296 70.1501 17.1365 69.9195 16.9292C69.7141 16.7259 69.5533 16.4822 69.4474 16.2133C69.3415 15.9445 69.2928 15.6566 69.3044 15.3679V9.461H67.7756V8.80628C68.3924 8.7246 68.9554 8.41225 69.3511 7.93212C69.9027 7.23663 70.2 6.26414 70.2432 5.01465Z" fill="#888196"/>
<path d="M74.3367 8.59704L77.8368 8.49272V16.0472C77.8287 16.1275 77.838 16.2086 77.864 16.2849C77.8901 16.3613 77.9323 16.4311 77.9879 16.4897C78.1394 16.6173 78.333 16.6839 78.531 16.6767H79.1641V17.3962H74.8871V16.6767H75.4662C75.5754 16.6862 75.6853 16.6732 75.7893 16.6386C75.8932 16.6039 75.9889 16.5484 76.0706 16.4753C76.2092 16.3126 76.2789 16.1022 76.2648 15.8889V10.5324C76.2756 10.3867 76.2545 10.2404 76.203 10.1037C76.1514 9.96703 76.0706 9.84324 75.9662 9.74101C75.7117 9.54567 75.3941 9.45091 75.0742 9.4748H74.3547L74.3367 8.59704ZM76.7756 4.43848C76.9144 4.4385 77.0518 4.46691 77.1792 4.52197C77.3066 4.57703 77.4215 4.65757 77.5166 4.75864C77.6185 4.85545 77.6995 4.97211 77.7545 5.10142C77.8096 5.23073 77.8376 5.36995 77.8368 5.51049C77.8361 5.64503 77.8083 5.77805 77.7552 5.90165C77.702 6.02525 77.6246 6.1369 77.5274 6.22997C77.4316 6.32943 77.3164 6.40819 77.1889 6.4614C77.0615 6.51461 76.9245 6.54114 76.7864 6.53934C76.6469 6.54102 76.5086 6.51412 76.3799 6.46029C76.2512 6.40646 76.1349 6.32686 76.0382 6.22637C75.9406 6.13348 75.8625 6.02194 75.8088 5.89836C75.755 5.77478 75.7266 5.64166 75.7252 5.5069C75.7255 5.3681 75.754 5.23081 75.809 5.1034C75.8641 4.97599 75.9445 4.86114 76.0454 4.76584C76.1386 4.66493 76.2515 4.58415 76.377 4.52847C76.5026 4.47279 76.6383 4.44339 76.7756 4.44207V4.43848Z" fill="#888196"/>
<path d="M83.5814 8.3357C84.1404 8.32489 84.6953 8.43354 85.2089 8.65439C85.7225 8.87525 86.1831 9.20321 86.5598 9.61636C87.3904 10.5386 87.8245 11.7508 87.7685 12.9907C87.7935 13.8439 87.6082 14.6902 87.2289 15.4549C86.8771 16.125 86.3435 16.6823 85.6893 17.0629C85.0377 17.4545 84.2912 17.6598 83.531 17.6565C82.9864 17.6609 82.4472 17.5475 81.9505 17.3239C81.4537 17.1004 81.0113 16.7721 80.6533 16.3614C79.8391 15.4365 79.4138 14.2327 79.4663 13.0015C79.4131 11.7743 79.8343 10.5737 80.6425 9.64874C81.008 9.22995 81.4601 8.89562 81.9675 8.6689C82.475 8.44218 83.0257 8.32848 83.5814 8.3357ZM83.5814 9.00121C83.2365 9.00114 82.8972 9.08855 82.5952 9.25527C82.2932 9.42199 82.0385 9.66257 81.8548 9.95452C81.4039 10.5901 81.1785 11.5925 81.1785 12.9619C81.1785 14.3313 81.4027 15.3518 81.8512 16.0233C82.0327 16.3191 82.2871 16.5635 82.5901 16.7329C82.893 16.9023 83.2343 16.9912 83.5814 16.991C83.936 16.9946 84.2857 16.9077 84.5973 16.7383C84.9089 16.569 85.1721 16.3229 85.362 16.0233C85.8152 15.3782 86.0418 14.3241 86.0418 12.8612C86.0418 11.5038 85.8176 10.5217 85.3692 9.91494C85.1698 9.62711 84.9021 9.39328 84.59 9.23443C84.278 9.07558 83.9314 8.99668 83.5814 9.00481V9.00121Z" fill="#888196"/>
<path d="M87.5848 8.59686L90.5056 8.41699C90.6367 9.05426 90.7244 9.69967 90.7682 10.3488C91.1099 9.76302 91.5889 9.26917 92.1639 8.90983C92.7088 8.58977 93.3306 8.42435 93.9625 8.43138C94.4738 8.41905 94.9791 8.54323 95.4265 8.79112C95.8453 9.04605 96.1766 9.42249 96.3762 9.87034C96.6206 10.3899 96.7436 10.9582 96.7359 11.5323V15.8132C96.7236 15.9353 96.7364 16.0586 96.7735 16.1755C96.8106 16.2924 96.8713 16.4005 96.9517 16.4931C97.1586 16.6465 97.4147 16.7182 97.6711 16.6946H97.9265V17.414H94.0308V16.6946H94.1064C94.4079 16.7228 94.7105 16.6534 94.9697 16.4967C95.0536 16.4235 95.1194 16.3317 95.1619 16.2287C95.2043 16.1257 95.2223 16.0143 95.2143 15.9031V12.1367C95.2619 11.5085 95.1376 10.8792 94.8546 10.3164C94.6901 10.0449 94.455 9.82314 94.1743 9.67487C93.8937 9.5266 93.578 9.45739 93.261 9.47462C92.9202 9.47027 92.5831 9.545 92.276 9.69293C91.9689 9.84086 91.7003 10.058 91.4913 10.3272C90.9935 10.9599 90.7384 11.7497 90.7718 12.554V15.8096C90.7594 15.932 90.7724 16.0556 90.8102 16.1726C90.848 16.2896 90.9096 16.3975 90.9913 16.4895C91.1994 16.6402 91.4545 16.7116 91.7107 16.691H91.9589V17.4104H88.0344V16.691H88.279C88.526 16.7084 88.7717 16.6425 88.9769 16.5039C89.0515 16.4509 89.1124 16.3808 89.1543 16.2994C89.1963 16.2181 89.2181 16.1278 89.2179 16.0362V10.3668C89.2287 10.2112 89.2071 10.0551 89.1545 9.90838C89.1019 9.76162 89.0193 9.62739 88.9121 9.51419C88.669 9.30592 88.3538 9.20131 88.0344 9.22281H87.5848V8.59686Z" fill="#888196"/>
<path d="M40.2143 20.289L40.984 18.9004H41.6135L41.9733 24.4404H41.3617C40.8821 22.8479 40.3294 21.6956 39.7035 20.9833C39.3655 20.5659 38.94 20.2277 38.4571 19.9928C37.9741 19.7578 37.4455 19.6317 36.9085 19.6235C36.1341 19.6159 35.3777 19.8567 34.7502 20.3106C34.0653 20.8318 33.5537 21.5478 33.2825 22.3647C32.9444 23.2784 32.7717 24.1993 32.7717 25.8577C32.7185 27.0157 32.892 28.173 33.2825 29.2644C33.5417 30.0583 34.0328 30.7563 34.6926 31.2682C35.3101 31.7014 36.05 31.9258 36.8041 31.9085C37.2675 31.9377 37.7318 31.871 38.1682 31.7126C38.6046 31.5541 39.0035 31.3073 39.3401 30.9876C39.6404 30.6717 39.8744 30.2989 40.0283 29.8911C40.1821 29.4833 40.2527 29.0488 40.2358 28.6133V27.3075C40.2401 27.2141 40.2206 27.1212 40.1791 27.0375C40.1375 26.9538 40.0754 26.8821 39.9984 26.829C39.7593 26.6969 39.4866 26.6381 39.2142 26.6599H38.0416V26.0016H43.4517V26.6599H43.0272C42.7633 26.6365 42.4989 26.701 42.2754 26.8434C42.2001 26.9085 42.1408 26.99 42.1021 27.0817C42.0635 27.1735 42.0464 27.2729 42.0524 27.3722V32.6712H41.4373C41.2119 31.8462 40.9721 31.0547 40.7179 30.2969C40.3099 31.0027 39.7341 31.5971 39.0416 32.0272C38.3746 32.4182 37.6131 32.6185 36.8401 32.6064C35.6987 32.6105 34.5784 32.2992 33.6027 31.7071C32.5888 31.0993 31.7642 30.2211 31.2213 29.1709C30.6373 28.1583 30.3424 27.0048 30.3688 25.8361C30.3457 24.6598 30.6468 23.4998 31.2393 22.4834C31.7938 21.4201 32.6173 20.5208 33.6278 19.8753C34.5342 19.2627 35.5989 18.9265 36.6926 18.9076C37.2681 18.9048 37.8394 19.0047 38.3797 19.2026C39.0423 19.4705 39.6608 19.8367 40.2143 20.289Z" fill="#888196"/>
<path d="M52.8042 31.6488L52.9517 31.9078C52.9517 32.4043 52.3545 32.3503 51.797 32.3503C51.3725 32.3503 50.52 32.3287 50.2251 32.1057C49.9301 31.8827 49.8114 31.6272 49.592 31.0445C49.1441 31.559 48.6066 31.9881 48.0056 32.3107C47.4941 32.5318 46.9404 32.6386 46.3834 32.6237C45.6506 32.6747 44.923 32.4686 44.3258 32.0409C44.0982 31.865 43.9148 31.6385 43.7899 31.3794C43.665 31.1203 43.6022 30.8356 43.6064 30.548C43.6064 29.6343 44.1436 28.8752 45.2179 28.2709C46.5528 27.5914 48.0087 27.1819 49.502 27.0658V25.7203C49.5033 25.4873 49.4526 25.257 49.3536 25.0461C49.2547 24.8351 49.11 24.6489 48.9301 24.5008C48.5305 24.1583 48.0173 23.9774 47.4913 23.9936C47.0008 23.9804 46.5156 24.0971 46.0848 24.3317C45.8042 24.502 45.6639 24.6675 45.6639 24.8282C45.6974 24.9926 45.7759 25.1446 45.8906 25.2671C46.0488 25.4564 46.1443 25.6902 46.1639 25.9362C46.1688 26.064 46.147 26.1914 46.1 26.3103C46.0529 26.4292 45.9816 26.537 45.8906 26.6269C45.795 26.7178 45.6819 26.7883 45.5582 26.834C45.4346 26.8798 45.3028 26.8999 45.1711 26.8931C45.0257 26.8971 44.881 26.8711 44.746 26.8166C44.6111 26.7621 44.4889 26.6804 44.387 26.5765C44.2825 26.4685 44.2009 26.3405 44.1471 26.2002C44.0933 26.0598 44.0685 25.9101 44.074 25.7599C44.074 25.1388 44.4229 24.5728 45.1208 24.0619C45.9288 23.5163 46.8915 23.2463 47.8654 23.2921C48.9109 23.2921 49.7083 23.5175 50.2574 23.9684C50.5145 24.1626 50.7229 24.4137 50.8665 24.7021C51.0101 24.9905 51.0848 25.3083 51.0848 25.6304V30.4329C51.0691 30.7235 51.1418 31.012 51.2934 31.2603C51.3465 31.3508 51.4177 31.4295 51.5024 31.4914C51.5872 31.5532 51.6838 31.597 51.7862 31.6201C52.1244 31.6544 52.4646 31.664 52.8042 31.6488ZM49.5344 27.6737C47.9445 27.8944 46.8186 28.2541 46.1567 28.7529C45.9126 28.9387 45.7174 29.1814 45.5883 29.4597C45.4592 29.7381 45.3999 30.0437 45.4157 30.3502C45.391 30.7626 45.5292 31.1683 45.8006 31.4798C45.9294 31.615 46.0855 31.7212 46.2586 31.7913C46.4316 31.8614 46.6177 31.8938 46.8042 31.8863C47.1652 31.8885 47.5226 31.8151 47.8535 31.6708C48.1843 31.5264 48.4812 31.3143 48.7251 31.0481C48.9942 30.7686 49.2048 30.4382 49.3444 30.0761C49.4841 29.7141 49.5499 29.3278 49.538 28.94L49.5344 27.6737Z" fill="#888196"/>
<path d="M52.4809 23.5509L54.9989 23.3926C55.1297 24.0083 55.2198 24.632 55.2686 25.2596C55.6411 24.6836 56.1315 24.1931 56.7075 23.8207C57.1834 23.5399 57.7269 23.3944 58.2794 23.3998C58.8206 23.3786 59.3522 23.5465 59.783 23.8746C60.2357 24.2894 60.5528 24.831 60.6931 25.4287C61.041 24.8242 61.5175 24.3035 62.0887 23.9034C62.5849 23.5724 63.1686 23.3971 63.765 23.3998C64.0997 23.3759 64.4354 23.4283 64.7469 23.5529C65.0584 23.6775 65.3376 23.8712 65.5635 24.1192C66.0977 24.8102 66.3703 25.6677 66.3333 26.5403V30.8931C66.3208 30.9918 66.3322 31.092 66.3667 31.1853C66.4011 31.2786 66.4575 31.3622 66.5312 31.4291C66.7588 31.5887 67.0345 31.6649 67.3117 31.645H67.7506V32.3644H63.3261V31.645H63.7686C64.0446 31.671 64.3215 31.6053 64.5564 31.4579C64.6345 31.3871 64.6956 31.2995 64.7348 31.2017C64.7741 31.1038 64.7906 30.9983 64.783 30.8931V26.5223C64.8212 25.9768 64.6545 25.4367 64.3153 25.0078C64.1585 24.8314 63.9647 24.6919 63.7476 24.5993C63.5306 24.5066 63.2958 24.4631 63.06 24.4718C62.6769 24.4651 62.3008 24.5742 61.9808 24.7848C61.6513 25.0076 61.3919 25.3195 61.2326 25.6841C60.9963 26.1227 60.8588 26.6077 60.8298 27.1051V30.8931C60.8207 30.997 60.8343 31.1017 60.8697 31.1999C60.9051 31.298 60.9615 31.3873 61.0348 31.4615C61.2188 31.5985 61.4464 31.6638 61.6751 31.645H62.2758V32.3644H57.7866V31.645H58.2938C58.5478 31.665 58.8012 31.5991 59.0132 31.4579C59.0876 31.4024 59.1479 31.3302 59.1892 31.2471C59.2304 31.1639 59.2515 31.0722 59.2506 30.9794V26.9144C59.2506 26.0558 59.0984 25.4335 58.7938 25.0474C58.6508 24.8593 58.4648 24.7082 58.2514 24.6068C58.0379 24.5054 57.8033 24.4566 57.5672 24.4646C57.277 24.4496 56.9874 24.5037 56.7223 24.6226C56.4571 24.7414 56.224 24.9215 56.042 25.1481C55.5373 25.782 55.269 26.5719 55.283 27.3821V30.8931C55.2711 30.993 55.281 31.0942 55.3121 31.1899C55.3431 31.2855 55.3946 31.3733 55.4629 31.4471C55.6969 31.597 55.9735 31.6665 56.2507 31.645H56.7003V32.3644H52.2579V31.645H52.9233C53.1333 31.6596 53.3407 31.5925 53.5025 31.4579C53.5683 31.3972 53.6204 31.3231 53.6551 31.2405C53.6899 31.158 53.7065 31.069 53.7039 30.9794V25.2236C53.7151 25.0933 53.6991 24.9621 53.657 24.8383C53.6149 24.7144 53.5476 24.6007 53.4593 24.5042C53.1726 24.3041 52.8305 24.1984 52.4809 24.202V23.5509Z" fill="#888196"/>
<path d="M67.9373 23.5515L71.0741 23.4472V31.0017C71.066 31.082 71.0753 31.1631 71.1013 31.2394C71.1274 31.3158 71.1697 31.3856 71.2252 31.4442C71.378 31.572 71.5728 31.6386 71.7719 31.6312H72.7684V32.3507H67.3978V31.6312H68.6892C68.7983 31.6409 68.9083 31.628 69.0123 31.5934C69.1162 31.5587 69.212 31.503 69.2935 31.4298C69.4315 31.2669 69.5 31.0563 69.4841 30.8434V25.3178C69.4952 25.1716 69.4743 25.0246 69.4227 24.8873C69.3712 24.75 69.2902 24.6256 69.1856 24.5228C68.9312 24.3272 68.6135 24.2324 68.2935 24.2566H67.9337L67.9373 23.5515ZM70.0129 19.3929C70.1518 19.3927 70.2892 19.4211 70.4166 19.4761C70.5441 19.5312 70.6589 19.6119 70.7539 19.7131C70.856 19.8098 70.9371 19.9264 70.9921 20.0558C71.0472 20.1851 71.0751 20.3244 71.0741 20.465C71.0734 20.5995 71.0456 20.7325 70.9925 20.8561C70.9393 20.9797 70.8619 21.0914 70.7647 21.1844C70.6423 21.305 70.4923 21.3937 70.3276 21.4427C70.163 21.4918 69.9889 21.4998 69.8205 21.4659C69.6521 21.432 69.4946 21.3573 69.3617 21.2484C69.2289 21.1395 69.1248 20.9997 69.0585 20.8412C68.9923 20.6827 68.9659 20.5104 68.9817 20.3393C68.9975 20.1683 69.0551 20.0037 69.1493 19.86C69.2435 19.7164 69.3715 19.598 69.522 19.5153C69.6726 19.4326 69.8412 19.3881 70.0129 19.3857V19.3929Z" fill="#888196"/>
<path d="M72.5092 23.5519L75.4301 23.3721C75.5608 24.0094 75.6486 24.6548 75.6927 25.3039C76.0343 24.7181 76.5133 24.2242 77.0883 23.8649C77.6385 23.5418 78.267 23.3763 78.9049 23.3865C79.4162 23.3741 79.9215 23.4983 80.3689 23.7462C80.7882 24.0006 81.1195 24.3772 81.3186 24.8254C81.5626 25.3451 81.6856 25.9133 81.6783 26.4874V30.7683C81.666 30.8903 81.6788 31.0136 81.7159 31.1305C81.753 31.2475 81.8136 31.3556 81.8941 31.4482C82.1008 31.6018 82.3571 31.6736 82.6135 31.6496H82.8689V32.3691H78.9552V31.6496H79.0308C79.3323 31.6779 79.6349 31.6085 79.8941 31.4518C79.9767 31.3804 80.042 31.2912 80.085 31.1908C80.128 31.0905 80.1476 30.9816 80.1423 30.8726V27.0918C80.1899 26.4624 80.0655 25.832 79.7826 25.2679C79.618 24.9954 79.3825 24.7728 79.1011 24.6239C78.8198 24.475 78.5033 24.4054 78.1855 24.4225C77.8447 24.4184 77.5076 24.4933 77.2006 24.6412C76.8935 24.7891 76.6249 25.0061 76.4157 25.2751C75.9182 25.9079 75.6631 26.6976 75.6963 27.5019V30.7575C75.6838 30.8798 75.6969 31.0034 75.7346 31.1205C75.7724 31.2375 75.8341 31.3454 75.9157 31.4374C76.1239 31.5881 76.379 31.6595 76.6351 31.6388H76.8833V32.3583H72.5883V31.6388H73.1999C73.4468 31.6557 73.6923 31.5899 73.8977 31.4518C73.9729 31.3985 74.034 31.3278 74.076 31.2457C74.118 31.1637 74.1395 31.0727 74.1387 30.9805V25.3075C74.1498 25.1519 74.1283 24.9957 74.0756 24.849C74.023 24.7022 73.9403 24.5679 73.833 24.4549C73.59 24.2463 73.2747 24.1416 72.9553 24.1635H72.5056L72.5092 23.5519Z" fill="#888196"/>
<path d="M89.5272 24.0373C90.1531 23.4042 91.9013 22.4797 92.4589 22.4581C92.6172 22.4365 92.7783 22.4473 92.9323 22.49C93.0863 22.5327 93.23 22.6063 93.3546 22.7063C93.5596 22.9078 93.1891 23.3574 93.1891 23.6452C93.1959 23.8574 93.1197 24.0638 92.9769 24.2208C92.9164 24.2926 92.8409 24.3504 92.7558 24.3902C92.6707 24.4299 92.578 24.4507 92.4841 24.451C92.1268 24.451 91.887 24.2316 91.7647 23.7927C91.7143 23.6057 91.6292 23.5121 91.5093 23.5121C90.9426 23.7115 90.4189 24.0167 89.9661 24.4115C90.1928 24.7054 90.3792 25.0285 90.52 25.372C90.6221 25.6533 90.6733 25.9505 90.6711 26.2497C90.6799 26.7574 90.5426 27.2569 90.2754 27.6887C89.9427 28.1638 89.4913 28.5434 88.9661 28.7895C88.4297 29.0889 87.8284 29.2532 87.2142 29.2679H86.1927C85.7018 29.2272 85.2083 29.3049 84.7538 29.4946C84.6387 29.5673 84.5448 29.6691 84.4816 29.7898C84.4184 29.9104 84.3882 30.0456 84.3941 30.1817C84.3893 30.293 84.4136 30.4037 84.4647 30.5028C84.5159 30.6018 84.5919 30.6858 84.6854 30.7465C85.0275 30.9074 85.4058 30.9756 85.7826 30.9443L88.0991 30.8975C89.2694 30.8975 90.1088 31.093 90.6172 31.4839C90.8674 31.6685 91.0688 31.9116 91.2036 32.1919C91.3384 32.4722 91.4026 32.7812 91.3905 33.0919C91.3949 33.4538 91.318 33.8119 91.1654 34.1401C91.0129 34.4682 90.7887 34.7579 90.5092 34.9878C89.6891 35.7072 88.4649 36.067 86.8365 36.067C85.4912 36.067 84.4936 35.82 83.8437 35.3259C83.6198 35.1862 83.433 34.9946 83.2989 34.7673C83.1649 34.5399 83.0877 34.2836 83.0739 34.0201C83.0844 33.8288 83.135 33.642 83.2224 33.4715C83.3098 33.3011 83.432 33.151 83.5811 33.0308C84.0619 32.6572 84.635 32.421 85.2394 32.3473C84.7247 32.2479 84.2434 32.0202 83.8401 31.6854C83.6906 31.5486 83.5716 31.3817 83.491 31.1957C83.4104 31.0097 83.37 30.8088 83.3725 30.6062C83.3611 30.2217 83.4917 29.8464 83.7394 29.5521C84.1051 29.186 84.5602 28.9218 85.0595 28.7859C84.5752 28.5321 84.1622 28.1611 83.8581 27.7067C83.585 27.2772 83.4448 26.7766 83.4552 26.2677C83.4531 25.8619 83.5422 25.4608 83.7159 25.0941C83.8896 24.7273 84.1435 24.4043 84.4588 24.1489C85.1928 23.551 86.121 23.2437 87.0668 23.2855C87.4958 23.284 87.9227 23.347 88.333 23.4726C88.7568 23.6006 89.1593 23.7909 89.5272 24.0373ZM87.6135 32.3437C86.4624 32.3437 85.6411 32.5032 85.1495 32.8221C84.9363 32.9333 84.756 33.0984 84.6266 33.3011C84.4972 33.5037 84.4232 33.7367 84.4121 33.9769C84.4079 34.1781 84.457 34.3769 84.5543 34.5531C84.6515 34.7294 84.7936 34.8768 84.966 34.9806C85.5978 35.3431 86.3217 35.5132 87.0488 35.4698C88.1255 35.4698 88.9361 35.2911 89.4805 34.9338C90.0248 34.5765 90.2982 34.182 90.3006 33.7503C90.2987 33.4886 90.2087 33.2351 90.0452 33.0308C89.8346 32.7819 89.5517 32.6046 89.2358 32.5236C88.7058 32.3905 88.1596 32.3335 87.6135 32.3545V32.3437ZM87.0596 23.8755C86.7981 23.8691 86.5385 23.921 86.2996 24.0274C86.0607 24.1338 85.8484 24.292 85.6783 24.4906C85.2903 24.978 85.0968 25.592 85.1351 26.2138C85.0944 26.8702 85.2867 27.52 85.6783 28.0484C85.8475 28.2511 86.0588 28.4144 86.2976 28.527C86.5364 28.6397 86.7968 28.6989 87.0608 28.7006C87.3248 28.7023 87.586 28.6465 87.8262 28.5369C88.0664 28.4274 88.2798 28.2668 88.4517 28.0664C88.8391 27.5498 89.0303 26.9123 88.9912 26.2677C89.0257 25.6408 88.83 25.0229 88.4409 24.5302C88.274 24.3257 88.0631 24.1616 87.8239 24.0501C87.5847 23.9386 87.3234 23.8826 87.0596 23.8863V23.8755Z" fill="#888196"/>
<path d="M92.7935 22.5234C93.0766 22.5282 93.3464 22.6439 93.5449 22.8458C93.7434 23.0477 93.8546 23.3195 93.8546 23.6027C93.8541 23.7372 93.8264 23.8703 93.7733 23.9939C93.7201 24.1176 93.6426 24.2292 93.5453 24.3221C93.4228 24.4428 93.2726 24.5316 93.1078 24.5806C92.943 24.6297 92.7687 24.6375 92.6002 24.6035C92.4316 24.5694 92.2741 24.4945 92.1412 24.3853C92.0084 24.2762 91.9044 24.136 91.8384 23.9773C91.7723 23.8185 91.7463 23.646 91.7625 23.4748C91.7787 23.3036 91.8367 23.139 91.9313 22.9955C92.026 22.852 92.1544 22.7339 92.3054 22.6515C92.4563 22.5692 92.6252 22.5252 92.7971 22.5234H92.7935Z" fill="#888196"/>
<path d="M19.4587 30.9292H19.2285H19.1098V30.3572H19.2681C19.3894 30.3443 19.5121 30.3578 19.6278 30.3967C19.6739 30.4192 19.7125 30.4546 19.7387 30.4988C19.7649 30.5429 19.7776 30.5937 19.7753 30.645C19.7757 30.6863 19.7671 30.7273 19.7503 30.7651C19.7334 30.8028 19.7086 30.8365 19.6775 30.8638C19.6464 30.8911 19.6099 30.9114 19.5702 30.9233C19.5306 30.9352 19.4889 30.9384 19.4479 30.9327L19.4587 30.9292ZM20.1278 30.6522C20.1314 30.5644 20.1145 30.4771 20.0782 30.3971C20.042 30.3171 19.9875 30.2468 19.9191 30.1917C19.7504 30.0777 19.5453 30.0303 19.3436 30.0586H18.7645V31.9148H19.1242V31.2313H19.4335L19.7932 31.922H20.1889L19.7753 31.1666C19.8833 31.1332 19.9772 31.065 20.0423 30.9726C20.1074 30.8801 20.14 30.7687 20.135 30.6557L20.1278 30.6522ZM19.4156 32.4544C19.131 32.4544 18.8528 32.37 18.6162 32.2119C18.3796 32.0538 18.1952 31.8291 18.0863 31.5661C17.9774 31.3032 17.9489 31.0139 18.0044 30.7348C18.0599 30.4556 18.197 30.1992 18.3982 29.998C18.5994 29.7968 18.8558 29.6597 19.1349 29.6042C19.414 29.5487 19.7033 29.5772 19.9662 29.6861C20.2291 29.795 20.4538 29.9794 20.6119 30.216C20.77 30.4527 20.8544 30.7309 20.8544 31.0155C20.8544 31.3971 20.7028 31.7631 20.4329 32.033C20.1631 32.3028 19.7972 32.4544 19.4156 32.4544ZM19.4156 29.2168C19.0599 29.2168 18.7121 29.3223 18.4164 29.5199C18.1206 29.7176 17.8901 29.9985 17.754 30.3272C17.6178 30.6558 17.5822 31.0175 17.6516 31.3664C17.721 31.7153 17.8923 32.0358 18.1438 32.2874C18.3954 32.5389 18.7158 32.7102 19.0647 32.7796C19.4136 32.849 19.7752 32.8134 20.1038 32.6773C20.4324 32.5411 20.7133 32.3106 20.911 32.0148C21.1086 31.719 21.2141 31.3712 21.2141 31.0155C21.2141 30.5384 21.0246 30.0809 20.6873 29.7436C20.35 29.4063 19.8926 29.2168 19.4156 29.2168Z" fill="#888196"/>
<path d="M0.318359 5.61825C8.95152 0.999222 20.1386 5.87007 20.9804 17.6299C4.9371 18.889 3.00543 11.6654 0.318359 5.61825Z" fill="#888196"/>
<path d="M0.318665 30.8319C8.95176 35.4509 20.1388 30.5801 20.9805 18.8202C4.93737 17.5611 3.00572 24.7811 0.318665 30.8319Z" fill="#888196"/>
<path d="M20.9479 17.6401C20.1062 5.88027 8.91914 1.01301 0.286072 5.62845C2.97311 11.6756 4.90476 18.8992 20.9479 17.6401ZM0.286072 30.8425C8.91914 35.4615 20.1062 30.5907 20.9479 18.8308C4.90476 17.561 2.97311 24.7917 0.286072 30.8425Z" fill="#888196"/>
</svg>
