<svg width="16" height="17" viewBox="0 0 16 17" fill="none" xmlns="http://www.w3.org/2000/svg">
<path d="M8 12.5007C8.21857 12.501 8.43468 12.4546 8.63391 12.3648C8.83314 12.2749 9.01091 12.1435 9.15535 11.9795L15.7112 4.52753C15.9185 4.28059 16.0208 3.96239 15.9965 3.64095C15.9721 3.31951 15.823 3.02036 15.5809 2.80747C15.3389 2.59457 15.0231 2.48482 14.7012 2.50169C14.3793 2.51856 14.0767 2.66072 13.8583 2.89775L8.12562 9.41422C8.10995 9.43211 8.09063 9.44644 8.06896 9.45626C8.0473 9.46608 8.02379 9.47116 8 9.47116C7.97621 9.47116 7.9527 9.46608 7.93104 9.45626C7.90937 9.44644 7.89005 9.43211 7.87437 9.41422L2.14172 2.89775C1.92325 2.66072 1.62071 2.51856 1.2988 2.50169C0.976882 2.48482 0.661141 2.59457 0.419089 2.80747C0.177037 3.02036 0.0278869 3.31951 0.00353055 3.64095C-0.0208258 3.96239 0.0815451 4.28059 0.288754 4.52753L6.84264 11.9768C6.98734 12.1413 7.16538 12.273 7.36493 12.3634C7.56448 12.4537 7.78096 12.5005 8 12.5007Z" fill="#3C2A5C"/>
</svg>
