<svg width="16" height="17" viewBox="0 0 16 17" fill="none" xmlns="http://www.w3.org/2000/svg">
<path d="M8 4.49928C8.21857 4.49901 8.43468 4.54536 8.63391 4.63524C8.83314 4.72511 9.01091 4.85645 9.15535 5.02049L15.7112 12.4725C15.9185 12.7194 16.0208 13.0376 15.9965 13.3591C15.9721 13.6805 15.823 13.9796 15.5809 14.1925C15.3389 14.4054 15.0231 14.5152 14.7012 14.4983C14.3793 14.4814 14.0767 14.3393 13.8583 14.1023L8.12562 7.58578C8.10995 7.56789 8.09063 7.55356 8.06896 7.54374C8.0473 7.53392 8.02379 7.52884 8 7.52884C7.97621 7.52884 7.9527 7.53392 7.93104 7.54374C7.90937 7.55356 7.89005 7.56789 7.87437 7.58578L2.14172 14.1023C1.92325 14.3393 1.62071 14.4814 1.2988 14.4983C0.976882 14.5152 0.661141 14.4054 0.419089 14.1925C0.177037 13.9796 0.0278869 13.6805 0.00353055 13.3591C-0.0208258 13.0376 0.0815451 12.7194 0.288754 12.4725L6.84264 5.02316C6.98734 4.85872 7.16538 4.72696 7.36493 4.63663C7.56448 4.54631 7.78096 4.49949 8 4.49928Z" fill="white"/>
</svg>
