<svg width="128" height="84" viewBox="0 0 128 84" fill="none" xmlns="http://www.w3.org/2000/svg">
<path d="M42.7303 53.052V30.9482H43.8444V53.052H42.7303ZM54.4895 33.8306V33.7245H58.9633V44.7763C58.9633 47.8355 56.4523 50.3111 53.3578 50.3111C50.2633 50.3111 47.7523 47.8355 47.7523 44.7763H52.2438C52.2438 45.3952 52.7389 45.8904 53.3578 45.8904C53.9767 45.8904 54.4718 45.3952 54.4718 44.7763V33.8306H54.4895ZM70.6517 39.6483C71.1469 40.1788 71.5359 40.8153 71.7835 41.558C72.031 42.283 72.1725 43.1141 72.1725 44.016C72.1725 44.2282 72.1725 44.4227 72.1548 44.5995C72.1371 44.8294 72.1017 44.9355 72.0664 45.0239L71.9426 45.2714H64.1975C64.2328 45.4483 64.2859 45.6074 64.3743 45.7666C64.5158 46.0495 64.6926 46.3147 64.9225 46.5269C65.1523 46.7391 65.4176 46.8983 65.7182 47.0221C66.0188 47.1458 66.3371 47.1989 66.6731 47.1989C67.345 47.1989 67.8755 47.0574 68.2115 46.7568L68.3883 46.5977L71.6774 47.4995L71.3237 48.0123C71.0054 48.4721 70.6341 48.8611 70.1743 49.1971C69.7145 49.533 69.2017 49.7983 68.6182 49.9928C68.0347 50.1873 67.3804 50.2757 66.6908 50.2757C65.895 50.2757 65.117 50.1343 64.392 49.8513C63.667 49.5684 63.0127 49.1617 62.4645 48.6312C61.9164 48.1007 61.4743 47.4465 61.1383 46.6684C60.8023 45.908 60.6432 45.0239 60.6432 44.0513C60.6432 43.1495 60.8023 42.3007 61.1206 41.558C61.4389 40.8153 61.8633 40.1788 62.3938 39.6306C62.9243 39.1001 63.5432 38.6757 64.2328 38.3928C64.9225 38.0922 65.6651 37.9507 66.4078 37.9507C67.292 37.9507 68.1054 38.0922 68.8304 38.3751C69.5377 38.6934 70.1566 39.1178 70.6517 39.6483ZM64.3036 42.5129H68.6005C68.5828 42.4068 68.5475 42.3184 68.5121 42.2123C68.4237 41.9824 68.2822 41.7879 68.1054 41.6111C67.9286 41.4342 67.6987 41.2928 67.4158 41.169C67.1505 41.0629 66.8145 41.0099 66.4255 41.0099C66.0895 41.0099 65.7889 41.0629 65.5237 41.1867C65.2584 41.3105 65.0286 41.4519 64.8517 41.6464C64.6572 41.841 64.5158 42.0531 64.392 42.3007C64.3566 42.3538 64.3212 42.4422 64.3036 42.5129ZM92.0481 39.7367C92.5963 40.2848 93.0207 40.9391 93.339 41.6818C93.6396 42.4245 93.7988 43.2379 93.7988 44.1221C93.7988 45.0062 93.6396 45.8196 93.339 46.58C93.0384 47.3404 92.5963 47.9946 92.0481 48.5428C91.5 49.091 90.8457 49.533 90.1207 49.8337C89.378 50.1343 88.5646 50.2934 87.6804 50.2934C86.814 50.2934 86.0006 50.1343 85.2579 49.8337C84.5152 49.533 83.8609 49.091 83.3128 48.5428C82.7823 47.9946 82.3402 47.3404 82.0396 46.58C81.739 45.8373 81.5798 45.0062 81.5798 44.1221C81.5798 43.2379 81.739 42.4245 82.0396 41.6818C82.3402 40.9391 82.7646 40.2848 83.3128 39.7367C83.8609 39.1885 84.4975 38.7464 85.2579 38.4458C86.0006 38.1452 86.814 37.9861 87.6804 37.9861C88.5646 37.9861 89.378 38.1452 90.1207 38.4458C90.8457 38.7464 91.5 39.1885 92.0481 39.7367ZM90.0676 45.4483C90.2091 45.0769 90.2798 44.6349 90.2798 44.1221C90.2798 43.6269 90.2091 43.1849 90.0676 42.8135C89.9262 42.4599 89.7317 42.1416 89.4841 41.894C89.2542 41.6464 88.9713 41.4696 88.6707 41.3635C88.3524 41.2397 88.0164 41.1867 87.6804 41.1867C87.3268 41.1867 87.0085 41.2397 86.6902 41.3635C86.3896 41.4873 86.1243 41.6641 85.8945 41.894C85.6646 42.1416 85.4701 42.4422 85.3109 42.8135C85.1695 43.1849 85.081 43.6092 85.081 44.1221C85.081 44.6172 85.1518 45.0593 85.3109 45.4483C85.4524 45.8196 85.6469 46.1379 85.8945 46.3855C86.1243 46.633 86.3896 46.8099 86.7079 46.9336C87.0262 47.0574 87.3445 47.1282 87.6981 47.1282C88.0341 47.1282 88.3701 47.0574 88.6884 46.9336C88.989 46.8099 89.2719 46.633 89.5018 46.3855C89.7317 46.1202 89.9262 45.8196 90.0676 45.4483ZM105.735 40.9214C105.912 41.4873 106 42.0885 106 42.7074V49.9574H102.499V43.1495C102.499 42.5836 102.357 42.1062 102.074 41.7172C101.827 41.3812 101.385 41.2044 100.695 41.2044C100.094 41.2044 99.6518 41.3812 99.3689 41.7702C99.0506 42.1946 98.8914 42.6897 98.8914 43.3086V49.9574H95.3902V38.3044H98.8207V38.9409C99.0506 38.7464 99.3158 38.5696 99.5988 38.4458C100.253 38.1452 100.925 38.0037 101.597 38.0037C102.322 38.0037 102.976 38.1275 103.524 38.3751C104.073 38.6227 104.55 38.9763 104.904 39.4184C105.275 39.8428 105.558 40.3556 105.735 40.9214ZM79.4225 46.8983C79.6524 46.8629 79.7054 46.8629 79.7231 46.8452L80.289 46.7038V49.6922L80.006 49.7983C79.9353 49.816 79.8292 49.869 79.4579 49.9574C79.1572 50.0282 78.7682 50.0635 78.2377 50.0635C77.106 50.0635 76.1865 49.7452 75.5322 49.091C74.878 48.4897 74.5243 47.5702 74.5243 46.4385V41.4696H73.1804V38.3044H74.5243V35.0153H77.9902V38.3044H80.2536V41.4696H77.9902V46.0141C77.9902 46.3501 78.0609 46.5977 78.1847 46.7214C78.3262 46.8452 78.5737 46.916 78.9274 46.916C79.1042 46.9336 79.2634 46.916 79.4225 46.8983ZM23.1553 38.1983C23.0669 38.2159 22.9785 38.1275 23.0315 38.0391C24.0925 36.1117 25.9138 34.6086 28.2303 34.0074C30.5468 33.3885 32.8809 33.7952 34.773 34.9446C34.8614 34.9976 34.8437 35.1214 34.7376 35.1391L23.1553 38.1983ZM37.3724 37.3672C37.8852 38.1098 38.2742 38.9409 38.5218 39.8428C38.7694 40.7446 38.8578 41.6641 38.787 42.5483C38.787 42.6013 38.7517 42.6367 38.6986 42.6544L23.562 46.6684C23.5089 46.6861 23.4736 46.6684 23.4382 46.6154C22.9431 45.8727 22.5364 45.0416 22.2888 44.1397C22.0413 43.2379 21.9528 42.3184 22.0236 41.4342C22.0236 41.3812 22.0589 41.3458 22.112 41.3281L37.2486 37.3318C37.3017 37.3141 37.3547 37.3318 37.3724 37.3672ZM37.6553 45.8019C37.7437 45.7843 37.8322 45.8727 37.7791 45.9611C36.7181 47.8885 34.8968 49.3916 32.5803 49.9928C30.2638 50.6117 27.9297 50.205 26.0376 49.0556C25.9492 49.0026 25.9669 48.8788 26.073 48.8611L37.6553 45.8019Z" fill="#888196"/>
</svg>
