<svg width="116" height="40" viewBox="0 0 116 40" fill="none" xmlns="http://www.w3.org/2000/svg">
<path d="M71.9238 27.2249C73.4939 27.7557 74.3011 28.4744 74.3343 29.3922C74.1463 31.8027 73.2507 33.008 71.6473 33.008H67.5782L66.0854 28.773C67.4123 30.5311 68.8277 31.4157 70.3094 31.4378C71.0613 31.2388 71.4262 30.7191 71.4262 29.8787C68.1421 28.8061 66.5056 27.1696 66.5056 24.9692C66.5056 23.1558 67.733 22.1495 70.1988 21.9505C72.6646 21.7514 73.892 22.3264 73.892 23.6644C73.5934 24.8918 73.0516 25.511 72.2665 25.5221L71.0723 24.5158C71.7247 23.9519 71.6916 23.5207 70.9728 23.211C69.9887 23.5428 69.5022 24.0072 69.5022 24.6043C69.5464 25.8096 70.3536 26.6831 71.9238 27.2028V27.2249Z" fill="#62D6FF"/>
<path d="M106.373 27.2249C107.943 27.7557 108.75 28.4744 108.784 29.3922C108.596 31.8027 107.7 33.008 106.097 33.008H102.027L100.535 28.773C101.862 30.5311 103.277 31.4157 104.759 31.4378C105.511 31.2388 105.875 30.7191 105.875 29.8787C102.591 28.8061 100.955 27.1696 100.955 24.9692C100.955 23.1558 102.182 22.1495 104.648 21.9505C107.114 21.7514 108.341 22.3264 108.341 23.6644C108.043 24.8918 107.501 25.511 106.716 25.5221L105.522 24.5158C106.174 23.9519 106.141 23.5207 105.422 23.211C104.438 23.5428 103.951 24.0072 103.951 24.6043C103.996 25.8096 104.803 26.6831 106.373 27.2028V27.2249Z" fill="#62D6FF"/>
<path d="M79.3101 30.5427C79.3322 30.8192 79.3765 31.0624 79.4317 31.2725C80.9245 31.1288 82.3067 30.8302 83.5673 30.3879C82.8375 31.1951 82.4062 32.0797 82.2514 33.0528C81.8423 33.0528 81.4553 33.0528 81.0904 33.0528H76.2029V32.9201C76.3356 32.7542 76.4352 32.5663 76.5015 32.3672V32.2677C76.5236 31.936 76.5457 31.5379 76.5457 31.0845C76.5457 25.3015 76.3577 22.3712 75.9707 22.2717L79.4539 21.7078L79.3212 24.1294V30.5538L79.3101 30.5427Z" fill="#62D6FF"/>
<path d="M88.4326 21.9066C90.1244 21.9066 91.1196 23.0677 91.4181 25.3897V28.2426C91.4181 31.4382 90.423 33.0416 88.4326 33.0416H86.4865C84.7947 33.0416 83.7995 31.8805 83.5009 29.5584V26.7056C83.5009 23.51 84.4961 21.9066 86.4865 21.9066H88.4326ZM87.0946 23.6537C86.9509 23.7532 86.7408 23.7975 86.4865 23.7975V30.0118C86.4865 30.7526 86.9067 31.1949 87.7249 31.3608C87.935 31.2613 88.1672 31.2171 88.4215 31.2171V25.0027C88.4215 24.2619 87.9792 23.8196 87.0836 23.6537H87.0946Z" fill="#62D6FF"/>
<path d="M97.0574 23.8861V23.9524C97.0574 29.7355 97.2454 32.6657 97.6324 32.7653L94.1493 33.3292L94.282 30.9076V24.4832C94.2599 24.2067 94.2156 23.9635 94.1604 23.7534C93.5301 23.8971 92.5791 24.1957 91.3186 24.638C92.0484 23.8308 92.4796 22.9462 92.6344 21.9731C93.0435 21.9731 93.4306 21.9731 93.7955 21.9731H97.3892H97.4776C97.8425 21.9731 98.2295 21.9731 98.6387 21.9731C98.7935 22.9462 99.2247 23.8308 99.9545 24.638C98.6939 24.1957 97.743 23.8971 97.1127 23.7534C97.1017 23.8087 97.0906 23.864 97.0685 23.9192L97.0353 23.875L97.0574 23.8861Z" fill="#62D6FF"/>
<path d="M66.2536 9.86523V9.93157C66.2536 15.7147 66.4416 18.6449 66.8286 18.7444L63.3455 19.3083L63.4782 16.8868V10.4623C63.4561 10.1859 63.4118 9.94263 63.3566 9.73254C62.7263 9.87628 61.7753 10.1748 60.5148 10.6171C61.2446 9.80994 61.6758 8.92534 61.8306 7.95227C62.2397 7.95227 62.6268 7.95227 62.9917 7.95227H66.5854H66.6738C67.0387 7.95227 67.4257 7.95227 67.8349 7.95227C67.9897 8.92534 68.4209 9.80994 69.1507 10.6171C67.8901 10.1748 66.9392 9.87628 66.3089 9.73254C66.2979 9.78782 66.2868 9.84311 66.2647 9.8984L66.2315 9.85417L66.2536 9.86523Z" fill="white"/>
<path d="M74.4582 14.7632V16.8973L75.1438 18.3569L71.2847 17.0632V16.9305C71.5501 16.5988 71.6828 16.2007 71.6828 15.7473V9.49983H71.5501C70.8424 9.63252 70.4886 9.8979 70.4886 10.2849C70.389 10.2849 70.1347 9.75415 69.7035 8.69263C69.6482 8.69263 69.427 8.42725 69.04 7.90755H75.7851C77.6981 7.90755 78.8038 8.86955 79.0913 10.7825C79.0029 12.3084 78.1846 13.3036 76.6587 13.768C77.8197 15.8026 79.6221 18.0031 82.0658 20.3804L77.0236 19.0204C77.3442 18.4011 76.4928 16.9858 74.4693 14.7743L74.4582 14.7632ZM76.2495 11.0258C76.0947 10.0085 75.5861 9.49983 74.7125 9.49983H73.651V9.63252L74.4472 9.8979V12.8834C75.6193 12.8281 76.2164 12.2089 76.2385 11.0258H76.2495Z" fill="white"/>
<path d="M84.1336 8.79233V16.5105C84.2221 17.4283 84.2331 18.4234 84.1778 19.496L80.9601 18.3571V18.2244C81.2255 17.8927 81.3582 17.4946 81.3582 17.0412V8.0957L84.4321 8.08464L84.1336 8.79233Z" fill="white"/>
<path d="M91.4759 9.86523V9.93157C91.4759 15.7147 91.6639 18.6449 92.0509 18.7444L88.5678 19.3083L88.7005 16.8868V10.4623C88.6784 10.1859 88.6342 9.94263 88.5789 9.73254C87.9486 9.87628 86.9976 10.1748 85.7371 10.6171C86.4669 9.80994 86.8981 8.92534 87.0529 7.95227C87.4621 7.95227 87.8491 7.95227 88.214 7.95227H91.8077H91.8961C92.261 7.95227 92.648 7.95227 93.0572 7.95227C93.212 8.92534 93.6432 9.80994 94.373 10.6171C93.1125 10.1748 92.1615 9.87628 91.5312 9.73254C91.5202 9.78782 91.5091 9.84311 91.487 9.8984L91.4538 9.85417L91.4759 9.86523Z" fill="white"/>
<path d="M100.731 7.88578C102.423 7.88578 103.418 9.04682 103.717 11.3689V14.2217C103.717 17.4174 102.721 19.0207 100.731 19.0207H98.7849C97.0931 19.0207 96.0979 17.8597 95.7994 15.5376V12.6847C95.7994 9.48912 96.7945 7.88578 98.7849 7.88578H100.731ZM99.3931 9.63287C99.2493 9.73239 99.0392 9.77662 98.7849 9.77662V15.9909C98.7849 16.7318 99.2051 17.1741 100.023 17.34C100.233 17.2404 100.466 17.1962 100.72 17.1962V10.9708C100.72 10.23 100.278 9.78767 99.382 9.62181L99.3931 9.63287Z" fill="white"/>
<path d="M110.915 12.4634V8.09567L114 8.08461L113.701 8.7923V17.2292C113.79 18.147 113.801 19.1421 113.746 20.2147L110.528 19.0758V18.9431C110.793 18.6114 110.926 18.2133 110.926 17.7599V17.008L109.168 14.1331V15.8581C109.256 16.7758 109.267 17.771 109.212 18.8436L105.994 17.7047V17.572C106.26 17.2402 106.392 16.8422 106.392 16.3888V8.09567L107.708 7.3327L110.926 12.4634H110.915Z" fill="white"/>
<mask id="mask0_1579_2218" style="mask-type:luminance" maskUnits="userSpaceOnUse" x="39" y="22" width="10" height="11">
<path d="M39.5645 24.9447C39.5645 24.9447 46.8856 30.1464 48.6066 32.2769C48.6066 32.2769 49.1464 25.9861 43.988 23.3601C38.8276 20.7351 39.5645 24.9447 39.5645 24.9447Z" fill="white"/>
</mask>
<g mask="url(#mask0_1579_2218)">
<path d="M38.8281 20.7351H49.1464V32.277H38.8281V20.7351Z" fill="url(#paint0_linear_1579_2218)"/>
</g>
<mask id="mask1_1579_2218" style="mask-type:luminance" maskUnits="userSpaceOnUse" x="1" y="9" width="12" height="6">
<path d="M12.2429 14.4437L9.14767 9.9354C9.14767 9.9354 5.51109 12.7588 1.13605 12.5116C1.13605 12.5116 2.75902 13.8983 5.7557 14.5429C5.7557 14.5429 9.78293 12.4472 12.2429 14.4442V14.4437Z" fill="white"/>
</mask>
<g mask="url(#mask1_1579_2218)">
<path d="M1.13657 9.9354H12.2429V14.5424H1.13657V9.9354Z" fill="url(#paint1_linear_1579_2218)"/>
</g>
<mask id="mask2_1579_2218" style="mask-type:luminance" maskUnits="userSpaceOnUse" x="9" y="3" width="6" height="12">
<path d="M13.1268 14.4437L10.2767 12.4617L9.14813 9.9354C9.14813 9.9354 12.1448 7.35975 11.4569 3C11.4569 3 13.8658 5.8234 14.0114 8.84521C14.0114 8.84521 11.1132 10.8267 13.1268 14.4432V14.4437Z" fill="white"/>
</mask>
<g mask="url(#mask2_1579_2218)">
<path d="M9.14813 3H14.0114V14.4437H9.14813V3Z" fill="url(#paint2_linear_1579_2218)"/>
</g>
<mask id="mask3_1579_2218" style="mask-type:luminance" maskUnits="userSpaceOnUse" x="9" y="9" width="31" height="18">
<path d="M39.2704 15.5832L35.1425 15.2851C35.1425 15.2851 18.337 21.576 9.14876 9.93489C9.14876 9.93489 10.6711 21.0805 22.4653 26.2333L30.0811 24.1527L39.2704 15.5827V15.5832Z" fill="white"/>
</mask>
<g mask="url(#mask3_1579_2218)">
<path d="M9.14824 9.93568H39.2704V26.2341H9.14824V9.93568Z" fill="url(#paint3_linear_1579_2218)"/>
</g>
<mask id="mask4_1579_2218" style="mask-type:luminance" maskUnits="userSpaceOnUse" x="22" y="7" width="30" height="21">
<path d="M30.9661 23.9542L22.4648 26.2338C22.4648 26.2338 35.978 30.8896 45.4113 24.2025C54.8467 17.5148 50.8669 7.21066 50.8669 7.21066L30.9661 23.9542Z" fill="white"/>
</mask>
<g mask="url(#mask4_1579_2218)">
<path d="M22.4648 7.21066H54.8467V30.8896H22.4648V7.21066Z" fill="url(#paint4_linear_1579_2218)"/>
</g>
<mask id="mask5_1579_2218" style="mask-type:luminance" maskUnits="userSpaceOnUse" x="28" y="19" width="11" height="18">
<path d="M38.8276 21.2301C38.8276 21.2301 40.6457 33.7629 28.9995 36.1905C28.9995 36.1905 32.4803 32.5325 33.3735 24.0535C34.2663 15.5755 38.8281 21.2301 38.8281 21.2301H38.8276Z" fill="white"/>
</mask>
<g mask="url(#mask5_1579_2218)">
<path d="M28.999 15.5754H40.6457V36.1905H28.999V15.5754Z" fill="url(#paint5_linear_1579_2218)"/>
</g>
<mask id="mask6_1579_2218" style="mask-type:luminance" maskUnits="userSpaceOnUse" x="22" y="7" width="29" height="20">
<path d="M50.8669 7.21066C50.8669 7.21066 43.5948 29.1071 22.4648 26.2338C22.4648 26.2338 29.884 22.6173 35.142 15.2851C35.142 15.2851 38.5324 14.3445 50.8669 7.21066Z" fill="white"/>
</mask>
<g mask="url(#mask6_1579_2218)">
<path d="M22.4648 7.21066H50.8669V29.1071H22.4648V7.21066Z" fill="url(#paint6_linear_1579_2218)"/>
</g>
<defs>
<linearGradient id="paint0_linear_1579_2218" x1="50.5129" y1="34.6527" x2="43.5484" y2="26.0701" gradientUnits="userSpaceOnUse">
<stop stop-color="#30ADE0"/>
<stop offset="1" stop-color="#000001"/>
</linearGradient>
<linearGradient id="paint1_linear_1579_2218" x1="1.28364" y1="12.0337" x2="14.4637" y2="12.5275" gradientUnits="userSpaceOnUse">
<stop stop-color="#0999CC"/>
<stop offset="1" stop-color="#000001"/>
</linearGradient>
<linearGradient id="paint2_linear_1579_2218" x1="11.6123" y1="5.96935" x2="11.4988" y2="15.3827" gradientUnits="userSpaceOnUse">
<stop stop-color="#0BB1D3"/>
<stop offset="1" stop-color="#000001"/>
</linearGradient>
<linearGradient id="paint3_linear_1579_2218" x1="12.0376" y1="16.6509" x2="57.8369" y2="21.9775" gradientUnits="userSpaceOnUse">
<stop stop-color="#3E7AA8"/>
<stop offset="1" stop-color="#000001"/>
</linearGradient>
<linearGradient id="paint4_linear_1579_2218" x1="53.6396" y1="12.5874" x2="19.2655" y2="27.223" gradientUnits="userSpaceOnUse">
<stop stop-color="white"/>
<stop offset="1" stop-color="#000001"/>
</linearGradient>
<linearGradient id="paint5_linear_1579_2218" x1="33.292" y1="35.5631" x2="36.1066" y2="17.9915" gradientUnits="userSpaceOnUse">
<stop stop-color="#5DB0ED"/>
<stop offset="1" stop-color="#000001"/>
</linearGradient>
<linearGradient id="paint6_linear_1579_2218" x1="35.1843" y1="24.8216" x2="39.9238" y2="3.78431" gradientUnits="userSpaceOnUse">
<stop stop-color="#328FDF"/>
<stop offset="1" stop-color="#8DD7F7"/>
</linearGradient>
</defs>
</svg>
