<svg width="126" height="40" viewBox="0 0 126 40" fill="none" xmlns="http://www.w3.org/2000/svg">
<path d="M15.8298 4.35986C24.4252 4.35986 31.3436 11.2787 31.3436 20.0844C31.3436 28.6805 24.4252 35.5993 15.8298 35.5993C10.1693 35.5993 5.55712 32.8737 2.62207 28.4708C5.34747 24.6969 7.86322 20.5037 10.1693 16.1009C10.1693 16.1009 9.54039 29.9385 14.3622 30.1481C18.1359 30.9868 22.9577 19.2458 22.9577 19.2458C22.5384 19.2458 26.5217 26.1646 27.5699 25.5356C27.9892 25.3259 26.941 23.8583 26.1024 21.9713C25.2638 20.0844 24.8445 17.5685 24.6349 16.5202C24.4252 14.8429 24.6349 14.2139 23.377 14.0042C22.3288 13.7946 21.9095 14.6332 21.2806 16.1009C19.3937 20.2941 15.8298 27.6322 14.5719 27.4225C12.6851 27.0032 13.1044 11.2787 13.1044 10.0207C13.314 8.76273 13.1044 8.13375 12.2658 7.71443C10.7983 7.71443 10.1693 9.39172 9.75004 10.44C6.60535 15.8912 3.6703 20.923 0.735261 24.6969C0.315969 23.2293 0.106323 21.552 0.106323 20.0844C0.106323 11.2787 7.02464 4.35986 15.8298 4.35986Z" fill="#888196"/>
<path d="M120.024 20.9219C120.024 22.1799 120.233 23.0185 120.653 23.4378C121.072 23.8571 121.491 24.2765 122.33 24.2765C122.959 24.2765 123.378 23.8571 123.797 23.4378C124.426 23.0185 124.636 22.1799 124.636 21.1316C124.636 20.0833 124.426 19.2446 123.797 18.8253C123.378 18.1963 122.959 17.9867 122.12 17.9867C121.491 17.9867 121.072 18.1963 120.653 18.6156C120.233 19.2446 120.024 20.0833 120.024 20.9219ZM118.766 26.1634H120.233C120.233 26.7924 120.443 27.002 120.653 27.2117C121.072 27.4214 121.491 27.631 122.12 27.631C122.749 27.631 123.168 27.4214 123.588 27.2117C124.007 27.002 124.217 26.5827 124.426 26.1634C124.426 25.7441 124.426 25.1151 124.426 24.2765C123.797 24.9054 122.959 25.3248 122.12 25.3248C120.862 25.3248 120.024 24.9054 119.395 24.0668C118.766 23.2282 118.556 22.1799 118.556 21.1316C118.556 20.2929 118.556 19.6639 118.975 18.8253C119.185 18.1963 119.604 17.777 120.233 17.3577C120.653 16.9384 121.282 16.7287 122.12 16.7287C123.168 16.7287 124.007 17.148 124.636 17.9867V16.9384H125.894V24.2765C125.894 25.5344 125.684 26.3731 125.474 27.002C125.265 27.631 124.846 28.0503 124.217 28.26C123.588 28.6793 122.959 28.6793 122.12 28.6793C121.072 28.6793 120.233 28.4697 119.604 28.0503C118.975 27.631 118.766 27.002 118.766 26.1634ZM109.961 25.3248V16.9384H111.219V18.1963C111.847 17.148 112.686 16.7287 113.944 16.7287C114.363 16.7287 114.992 16.9384 115.411 16.9384C115.831 17.148 116.04 17.3577 116.25 17.777C116.46 17.9867 116.669 18.406 116.669 18.8253C116.879 19.035 116.879 19.4543 116.879 20.2929V25.3248H115.411V20.2929C115.411 19.6639 115.411 19.2446 115.202 19.035C115.202 18.6156 114.992 18.406 114.573 18.1963C114.363 17.9867 113.944 17.9867 113.734 17.9867C113.105 17.9867 112.476 18.1963 112.057 18.6156C111.638 19.035 111.428 19.6639 111.428 20.7122V25.3248H109.961ZM106.397 25.3248V16.9384H107.864V25.3248H106.397ZM106.397 15.2611V13.7935H107.864V15.2611H106.397ZM92.7697 25.3248V16.9384H94.2372V18.1963C94.4469 17.777 94.6565 17.3577 95.2855 17.148C95.7048 16.9384 96.1241 16.7287 96.753 16.7287C97.3819 16.7287 97.8012 16.9384 98.2205 17.148C98.6398 17.3577 98.8494 17.777 99.0591 18.1963C99.688 17.148 100.527 16.7287 101.575 16.7287C102.413 16.7287 103.252 16.9384 103.671 17.3577C104.091 17.9867 104.3 18.6156 104.3 19.6639V25.3248H102.833V20.0833C102.833 19.4543 102.833 19.035 102.623 18.8253C102.623 18.6156 102.413 18.406 102.204 18.1963C101.994 17.9867 101.575 17.9867 101.365 17.9867C100.736 17.9867 100.317 18.1963 99.8977 18.6156C99.4784 19.035 99.2687 19.6639 99.2687 20.5026V25.3248H97.8012V19.8736C97.8012 19.2446 97.8012 18.8253 97.5916 18.406C97.1723 18.1963 96.9626 17.9867 96.3337 17.9867C95.9144 17.9867 95.4951 18.1963 95.2855 18.406C94.8662 18.6156 94.6565 18.8253 94.4469 19.2446C94.4469 19.6639 94.2372 20.2929 94.2372 20.9219V25.3248H92.7697ZM76.2077 20.9219C76.2077 22.1799 76.4173 23.0185 76.8366 23.4378C77.2559 23.8571 77.8849 24.2765 78.5138 24.2765C79.1427 24.2765 79.7717 23.8571 80.191 23.4378C80.6103 23.0185 80.8199 22.1799 80.8199 21.1316C80.8199 20.0833 80.6103 19.2446 80.191 18.8253C79.562 18.1963 79.1427 17.9867 78.5138 17.9867C77.8849 17.9867 77.2559 18.1963 76.8366 18.6156C76.4173 19.2446 76.2077 20.0833 76.2077 20.9219ZM74.9498 26.1634H76.4173C76.4173 26.7924 76.627 27.002 76.8366 27.2117C77.2559 27.4214 77.6752 27.631 78.3041 27.631C78.9331 27.631 79.562 27.4214 79.7717 27.2117C80.191 27.002 80.4006 26.5827 80.6103 26.1634C80.6103 25.7441 80.6103 25.1151 80.6103 24.2765C79.9813 24.9054 79.3524 25.3248 78.3041 25.3248C77.2559 25.3248 76.2077 24.9054 75.5788 24.0668C74.9498 23.2282 74.7402 22.1799 74.7402 21.1316C74.7402 20.2929 74.9498 19.6639 75.1595 18.8253C75.3691 18.1963 75.7884 17.777 76.4173 17.3577C77.0463 16.9384 77.6752 16.7287 78.3041 16.7287C79.3524 16.7287 80.191 17.148 80.8199 17.9867V16.9384H82.0778V24.2765C82.0778 25.5344 82.0778 26.3731 81.6585 27.002C81.4488 27.631 81.0295 28.0503 80.4006 28.26C79.9813 28.6793 79.1427 28.6793 78.3041 28.6793C77.2559 28.6793 76.4173 28.4697 75.998 28.0503C75.3691 27.631 74.9498 27.002 74.9498 26.1634ZM67.1929 21.1316C67.1929 22.1799 67.4026 23.0185 67.8219 23.6475C68.2411 24.0668 68.8701 24.2765 69.7087 24.2765C70.3376 24.2765 70.9665 24.0668 71.3858 23.6475C71.8051 23.0185 72.2244 22.1799 72.2244 21.1316C72.2244 20.0833 71.8051 19.2446 71.3858 18.8253C70.9665 18.1963 70.3376 17.9867 69.7087 17.9867C68.8701 17.9867 68.2411 18.1963 67.8219 18.8253C67.4026 19.2446 67.1929 20.0833 67.1929 21.1316ZM65.7254 21.1316C65.7254 19.6639 66.1447 18.406 66.9833 17.777C67.8219 17.148 68.6604 16.7287 69.7087 16.7287C70.7569 16.7287 71.8051 17.148 72.4341 17.9867C73.2726 18.6156 73.6919 19.6639 73.6919 21.1316C73.6919 22.1799 73.4823 23.0185 73.063 23.6475C72.8534 24.2765 72.2244 24.6958 71.5955 25.1151C70.9665 25.3248 70.3376 25.5344 69.7087 25.5344C68.4508 25.5344 67.6122 25.1151 66.7736 24.4861C66.1447 23.6475 65.7254 22.5992 65.7254 21.1316ZM60.9035 25.3248V16.9384H62.1614V18.1963C62.3711 17.5673 62.7904 17.148 63 17.148C63.2096 16.9384 63.6289 16.7287 63.8386 16.7287C64.4675 16.7287 64.8868 16.9384 65.3061 17.148L64.8868 18.6156C64.4675 18.406 64.2579 18.1963 63.8386 18.1963C63.6289 18.1963 63.2096 18.406 63 18.6156C62.7904 18.6156 62.5807 19.035 62.3711 19.2446C62.3711 19.8736 62.1614 20.2929 62.1614 20.9219V25.3248H60.9035ZM58.1781 22.1799L59.6457 22.3895C59.436 23.4378 59.0167 24.2765 58.3878 24.6958C57.7589 25.3248 56.9203 25.5344 56.0817 25.5344C55.0335 25.5344 53.9852 25.1151 53.3563 24.4861C52.7274 23.6475 52.3081 22.5992 52.3081 21.1316C52.3081 20.2929 52.5177 19.4543 52.7274 18.8253C52.937 18.1963 53.5659 17.5673 54.1949 17.3577C54.8238 16.9384 55.4527 16.7287 56.0817 16.7287C57.1299 16.7287 57.7589 16.9384 58.3878 17.3577C59.0167 17.9867 59.2264 18.6156 59.436 19.4543L58.1781 19.6639C57.9685 19.035 57.7589 18.6156 57.3396 18.406C57.1299 17.9867 56.7106 17.9867 56.0817 17.9867C55.4527 17.9867 54.8238 18.1963 54.4045 18.6156C53.9852 19.2446 53.7756 20.0833 53.7756 21.1316C53.7756 22.1799 53.9852 23.0185 54.4045 23.6475C54.8238 24.0668 55.4527 24.2765 56.0817 24.2765C56.7106 24.2765 57.1299 24.2765 57.5492 23.8571C57.9685 23.4378 58.1781 23.0185 58.1781 22.1799ZM49.1634 25.3248V16.9384H50.4212V25.3248H49.1634ZM49.1634 15.2611V13.7935H50.4212V15.2611H49.1634ZM35.746 25.3248V13.7935H38.0521L40.7775 21.9702C40.9872 22.8088 41.1968 23.2282 41.4065 23.6475C41.4065 23.2282 41.6161 22.5992 42.0354 21.7605L44.7608 13.7935H46.8573V25.3248H45.3897V15.6804L41.8258 25.3248H40.5679L37.2136 15.4707V25.3248H35.746ZM85.0128 20.9219C85.0128 22.1799 85.2225 23.0185 85.6418 23.4378C86.061 23.8571 86.69 24.2765 87.3189 24.2765C87.9479 24.2765 88.3672 23.8571 88.9961 23.4378C89.4154 23.0185 89.625 22.1799 89.625 21.1316C89.625 20.0833 89.4154 19.2446 88.7864 18.8253C88.3672 18.1963 87.9479 17.9867 87.3189 17.9867C86.69 17.9867 86.061 18.1963 85.6418 18.6156C85.2225 19.2446 85.0128 20.0833 85.0128 20.9219ZM89.625 24.2765C89.4154 24.4861 88.5768 25.1151 87.7382 25.3248C87.5286 25.3248 87.3189 25.3248 87.1093 25.3248C86.061 25.3248 85.0128 24.9054 84.3839 24.0668C83.7549 23.2282 83.5453 22.1799 83.5453 21.1316C83.5453 20.2929 83.5453 19.6639 83.9646 18.8253C84.1742 18.1963 84.5935 17.777 85.2225 17.3577C85.6418 16.9384 86.4803 16.7287 87.1093 16.7287C88.1575 16.7287 88.9961 17.148 89.625 17.9867V16.9384H90.8829V19.8736V21.9702C90.8829 23.2282 90.8829 24.0668 90.8829 24.2765C91.0925 24.6958 91.0925 25.1151 91.3022 25.3248H89.8347C89.625 25.1151 89.625 24.6958 89.625 24.2765Z" fill="#888196"/>
</svg>
