<svg width="128" height="96" viewBox="0 0 128 96" fill="none" xmlns="http://www.w3.org/2000/svg">
<path d="M52.5597 46.3213C52.311 48.1865 50.8187 48.1865 49.4509 48.1865H48.7047L49.3265 44.5803C49.3265 44.3316 49.5752 44.2073 49.8239 44.2073H50.197C51.1918 44.2073 52.0623 44.2073 52.5597 44.7047C52.5597 45.2021 52.5597 45.6995 52.5597 46.3213ZM51.9379 41.3472H46.5908C46.2177 41.3472 45.969 41.5959 45.8447 41.9689L43.7307 55.6477C43.7307 55.8964 43.855 56.1451 44.2281 56.1451H46.7151C47.0882 56.1451 47.3369 55.8964 47.4612 55.5233L48.083 51.7928C48.083 51.4197 48.456 51.171 48.8291 51.171H50.57C54.0519 51.171 56.0415 49.4301 56.6633 46.0726C56.912 44.5803 56.6633 43.4612 56.0415 42.5907C55.0467 41.8446 53.6788 41.3472 51.9379 41.3472Z" fill="#888196"/>
<path d="M64.2487 51.2951C64 52.7873 62.8809 53.7821 61.3887 53.7821C60.6425 53.7821 60.0208 53.5334 59.6477 53.036C59.2747 52.5386 59.1503 51.9168 59.2747 51.2951C59.5234 49.8028 60.6426 48.808 62.1348 48.808C62.8809 48.808 63.5026 49.0567 63.8757 49.5541C64.1244 49.9272 64.3731 50.549 64.2487 51.2951ZM67.7306 46.321H65.2436C64.9949 46.321 64.8705 46.4453 64.7462 46.694L64.6218 47.4401L64.4975 47.1914C64.0001 46.4453 62.7565 46.0723 61.513 46.0723C58.6529 46.0723 56.2902 48.1863 55.7928 51.1707C55.5441 52.6629 55.9171 54.0308 56.7876 55.0256C57.5337 55.8961 58.6529 56.2692 60.0208 56.2692C62.2591 56.2692 63.5026 54.7769 63.5026 54.7769L63.3783 55.523C63.3783 55.7718 63.5026 56.0205 63.8757 56.0205H66.114C66.4871 56.0205 66.7358 55.7718 66.8602 55.3987L68.228 46.694C68.228 46.5697 68.1037 46.321 67.7306 46.321Z" fill="#888196"/>
<path d="M81.285 46.3213H78.6736C78.4249 46.3213 78.1762 46.4456 78.0518 46.6943L74.5699 51.9171L73.0777 46.9431C72.9534 46.57 72.7046 46.4456 72.3316 46.4456H69.8445C69.5958 46.4456 69.3471 46.6943 69.4715 47.0674L72.3316 55.2747L69.7202 59.0052C69.4715 59.2539 69.7202 59.7513 70.0933 59.7513H72.7047C72.9534 59.7513 73.2021 59.627 73.3264 59.3783L81.7824 47.0674C81.9067 46.6943 81.658 46.3213 81.285 46.3213Z" fill="#888196"/>
<path d="M90.3627 46.3213C90.1139 48.1865 88.6217 48.1865 87.2538 48.1865H86.5077L87.1295 44.5803C87.1295 44.3316 87.3782 44.2073 87.6269 44.2073H88C88.9948 44.2073 89.8652 44.2073 90.3627 44.7047C90.487 45.2021 90.487 45.6995 90.3627 46.3213ZM89.7409 41.3472H84.3938C84.0207 41.3472 83.772 41.5959 83.6476 41.9689L81.5336 55.6477C81.5336 55.8964 81.658 56.1451 82.0311 56.1451H84.7668C85.0155 56.1451 85.2642 56.0207 85.2642 55.6477L85.886 51.7928C85.886 51.4197 86.259 51.171 86.6321 51.171H88.373C91.8549 51.171 93.8445 49.4301 94.4663 46.0726C94.715 44.5803 94.4663 43.4612 93.8445 42.5907C92.9741 41.8446 91.6062 41.3472 89.7409 41.3472Z" fill="#888196"/>
<path d="M102.176 51.2951C101.928 52.7873 100.808 53.7821 99.3161 53.7821C98.57 53.7821 97.9483 53.5334 97.5752 53.036C97.2022 52.5386 97.0778 51.9168 97.2021 51.2951C97.4508 49.8028 98.57 48.808 100.062 48.808C100.808 48.808 101.43 49.0567 101.803 49.5541C102.052 49.9272 102.301 50.549 102.176 51.2951ZM105.658 46.321H103.171C102.922 46.321 102.798 46.4453 102.674 46.694L102.549 47.4401L102.425 47.1914C101.928 46.4453 100.684 46.0723 99.4405 46.0723C96.5804 46.0723 94.2177 48.1863 93.7203 51.1707C93.4716 52.6629 93.8446 54.0308 94.7151 55.0256C95.4612 55.8961 96.5804 56.2692 97.9483 56.2692C100.187 56.2692 101.43 54.7769 101.43 54.7769L101.306 55.523C101.306 55.7718 101.43 56.0205 101.803 56.0205H104.042C104.415 56.0205 104.663 55.7718 104.788 55.3987L106.156 46.694C106.156 46.5697 105.907 46.321 105.658 46.321Z" fill="#888196"/>
<path d="M108.642 41.7202L106.404 55.6477C106.404 55.8964 106.528 56.1451 106.902 56.1451H109.14C109.513 56.1451 109.762 55.8964 109.886 55.5233L112 41.8446C112 41.5959 111.876 41.3472 111.503 41.3472H109.016C108.891 41.3472 108.767 41.5959 108.642 41.7202Z" fill="#888196"/>
<path d="M21.5958 58.7563L21.9689 56.1449H21.0984H16.7461L19.7306 37.119C19.7306 37.119 19.7306 36.9946 19.8549 36.9946H19.9793H27.316C29.6787 36.9946 31.4197 37.492 32.2901 38.4869C32.6632 38.9843 32.9119 39.4817 33.0363 39.9791C33.1606 40.6008 33.1606 41.2226 33.0363 42.0931V42.5905L33.4093 42.8392C33.7824 42.9635 34.0311 43.2122 34.2798 43.461C34.6528 43.834 34.9015 44.3314 34.9015 44.9532C35.0259 45.5749 35.0259 46.3211 34.7772 47.1915C34.5285 48.1863 34.2798 48.9325 33.9067 49.6786C33.5337 50.3003 33.0362 50.7977 32.5388 51.2952C32.0414 51.6682 31.2953 51.9169 30.6736 52.1656C29.9274 52.29 29.1813 52.4143 28.3109 52.4143H27.6891C27.316 52.4143 26.943 52.5387 26.5699 52.7874C26.3212 53.0361 26.0725 53.4091 25.9482 53.7822V54.0309L25.2021 58.6319V58.7563V58.8806C25.2021 58.8806 25.2021 58.8806 25.0777 58.8806H21.5958V58.7563Z" fill="#888196"/>
<path d="M33.9068 42.0933C33.9068 42.2176 33.9068 42.342 33.7824 42.4663C32.7876 47.4404 29.5545 49.057 25.3265 49.057H23.2125C22.7151 49.057 22.2177 49.4301 22.2177 49.9275L21.0985 56.8912L20.8498 58.8808C20.8498 59.2539 21.0985 59.5026 21.3472 59.5026H25.2021C25.6995 59.5026 26.0726 59.1295 26.0726 58.7565V58.5078L26.8187 54.0311V53.7824C26.9431 53.285 27.3161 53.0363 27.6892 53.0363H28.3109C32.0415 53.0363 34.9016 51.544 35.6477 47.1917C36.0208 45.3264 35.7721 43.8342 34.9016 42.8394C34.6529 42.5907 34.2798 42.342 33.9068 42.0933Z" fill="#888196"/>
<path d="M32.9119 41.7202C32.7875 41.7202 32.6632 41.5959 32.4145 41.5959C32.2901 41.5959 32.0414 41.4715 31.9171 41.4715C31.2953 41.3472 30.6735 41.3472 30.0518 41.3472H24.3316C24.2072 41.3472 24.0829 41.3472 23.9585 41.4715C23.7098 41.5959 23.4611 41.8446 23.4611 42.0933L22.2176 49.8031V50.0518C22.3419 49.5544 22.715 49.1814 23.2124 49.1814H25.3264C29.5544 49.1814 32.7875 47.4404 33.7823 42.5907C33.7823 42.4663 33.7824 42.342 33.9067 42.2176C33.658 42.0933 33.4093 41.9689 33.1606 41.8446C33.0362 41.7202 32.9119 41.7202 32.9119 41.7202Z" fill="#12032E"/>
<path d="M23.4611 42.0931C23.4611 41.8444 23.7098 41.5957 23.9585 41.4713C24.0829 41.4713 24.2073 41.347 24.3316 41.347H30.0518C30.6736 41.347 31.4197 41.347 31.9171 41.4713C32.0414 41.4713 32.2902 41.4713 32.4145 41.5957C32.5389 41.5957 32.6632 41.72 32.9119 41.72C33.0363 41.72 33.0363 41.72 33.1606 41.8444C33.4093 41.9687 33.658 42.0931 33.9067 42.2174C34.1554 40.3522 33.9067 39.1086 32.9119 37.9895C31.7927 36.7459 29.8031 36.2485 27.3161 36.2485H19.9793C19.4819 36.2485 18.9844 36.6216 18.9844 37.119L16 56.2693C16 56.6423 16.2487 57.0154 16.6218 57.0154H21.0984L22.2176 49.8029L23.4611 42.0931Z" fill="#888196"/>
</svg>
