<svg width="128" height="124" viewBox="0 0 128 124" fill="none" xmlns="http://www.w3.org/2000/svg">
<path fill-rule="evenodd" clip-rule="evenodd" d="M62.698 52.134C63.566 52.5623 64.682 51.7669 64.496 54.5202L64.248 58.436C64.248 59.2926 64.124 59.5985 64.124 60.3328C64.124 60.8834 64.062 61.8012 63.938 62.3519C63.752 64.0038 63.938 64.4933 62.078 64.6769V65.1663C62.512 65.4111 65.798 65.2887 66.542 65.2887C66.976 65.2887 66.604 65.2887 66.914 65.1663C66.852 64.4933 66.604 64.6769 65.922 64.5545C65.302 64.4321 65.178 64.3709 65.116 63.8203C64.868 62.5966 65.302 56.2946 65.302 54.6426C65.674 55.0097 65.798 55.438 65.984 55.9275C66.232 56.417 66.356 56.7229 66.604 57.2123C66.852 57.7018 66.976 58.0689 67.162 58.5584C67.472 59.0479 67.596 59.3538 67.844 59.9045C68.526 61.4953 69.952 63.8203 70.324 65.4111C71.068 65.3499 70.758 65.4111 71.254 64.3098C72.06 62.5966 72.556 61.8012 73.3 60.2716L75.966 54.9485C76.09 54.7038 76.028 54.8873 76.09 54.765C76.09 55.9887 76.214 56.7229 76.214 57.9466C76.214 59.2314 76.462 63.4532 75.966 64.4321C75.594 64.4933 74.974 64.6769 74.54 64.6769V65.2887H79.5C79.934 65.2887 79.872 65.044 79.872 64.6769C79.5 64.6769 79.128 64.6157 78.818 64.4933C77.888 64.2486 78.074 62.8413 78.074 61.3117C78.074 60.3328 77.95 59.7821 77.95 58.9255V53.2965C77.95 52.6847 78.26 52.3788 78.818 52.3176C79.748 52.134 79.996 52.5011 79.748 51.5222C79.066 51.6446 76.834 51.8281 76.214 51.5222C76.152 52.3788 75.594 53.6025 75.222 54.3367C74.788 55.2544 74.354 56.0498 73.92 56.9676L71.006 62.2907C70.634 60.6999 66.294 54.0308 66.294 51.5222C65.674 51.8281 63.442 51.6446 62.76 51.5222C62.698 51.7669 62.698 51.7669 62.698 52.134ZM117.506 53.4189C117.506 59.5374 126 58.8643 126 54.0308C126 52.5623 126 51.7057 124.636 50.482C123.272 49.2584 120.916 49.0136 119.366 50.1149C118.312 50.9103 117.506 52.0117 117.506 53.4189ZM89.048 57.5183V57.9466C89.606 58.1301 89.916 58.5584 89.916 59.2926C89.916 60.0268 90.04 63.6979 89.73 64.2486C89.544 64.6157 88.986 64.6157 88.614 64.6769V65.2887H92.458C92.892 65.2887 92.52 65.2887 92.83 65.1663C92.768 64.4933 92.334 64.5545 91.714 64.4321C91.466 63.3308 91.59 60.5775 91.59 59.2926C91.59 57.8854 94.07 57.2735 95.124 58.6196C95.682 59.3538 95.558 63.2696 95.372 64.065C95.248 64.4321 95.124 64.6157 94.132 64.6769V65.1663C94.628 65.4111 97.666 65.2887 98.41 65.2887V64.6769C96.674 64.4933 97.046 63.8815 97.046 60.3328C97.046 58.5584 97.17 56.7841 94.504 56.7841C93.698 56.7841 92.892 57.09 92.272 57.4571C91.962 57.6406 91.962 57.6406 91.59 57.7018V56.5393C90.784 56.5393 89.916 57.2735 89.048 57.5183ZM4.418 52.2564C5.286 52.6235 6.216 52.134 6.216 53.4189L6.34 58.6808H8.076V53.0518C8.076 52.1952 8.51 52.3788 9.378 52.3788C12.726 52.3788 13.408 56.8452 10.99 58.3749C9.006 59.5985 4.17 58.8031 2 58.8031L2.496 58.9867C6.154 59.8433 14.462 60.6999 14.462 55.438C14.462 53.3577 12.974 52.0728 10.866 51.7057C8.944 51.3386 7.518 51.6446 5.72 51.6446C4.976 51.6446 4.48 51.5222 4.418 52.2564ZM29.466 57.0288C29.218 57.09 28.846 57.2735 28.598 57.3959C28.226 57.6406 28.288 57.6406 28.412 58.0689C30.024 58.0689 29.466 57.9466 29.466 58.8031C29.466 59.415 29.652 64.1262 29.342 64.4321C28.722 64.7381 28.226 64.3709 28.164 65.1663C28.66 65.3499 30.954 65.2275 31.946 65.2887C32.752 65.2887 32.628 65.4111 32.876 64.9216C32.256 64.065 31.202 65.3499 31.202 63.2084C31.202 55.9275 30.644 58.742 33.992 57.9466C34.178 57.2123 34.116 57.763 33.992 57.0288C31.388 57.0288 31.202 57.3347 31.202 56.2946C31.202 54.6426 31.388 50.6656 33.682 51.5834C34.302 51.8281 34.612 52.6235 35.17 52.6235C35.914 52.6235 36.286 52.0117 36.038 51.3998C35.418 50.0538 30.644 49.6866 29.776 54.5202C29.652 55.1933 29.466 56.3558 29.466 57.0288Z" fill="#888196"/>
<path fill-rule="evenodd" clip-rule="evenodd" d="M83.964 57.5182C87.25 57.5182 87.374 64.7992 84.336 64.7992C81.608 64.7992 81.05 60.5775 82.104 58.7419C82.414 58.1301 83.096 57.5182 83.964 57.5182ZM79.748 60.8222V61.6788C79.748 66.6347 88.49 67.1242 88.49 61.0669C88.49 55.132 79.748 55.6827 79.748 60.8222ZM106.284 57.6406C107.276 57.7018 107.524 57.9465 107.896 58.7419L109.384 62.7801C110.252 65.0439 110.314 65.3499 108.95 67.6749C108.64 68.1643 108.578 68.4703 107.834 68.4703C106.966 68.5315 106.78 68.5926 106.78 69.4492C106.78 70.2446 107.276 70.3058 107.834 70.3058C108.95 70.3058 109.446 68.6538 110.066 67.3078L113.414 60.3327C114.096 58.9867 114.406 57.7018 115.832 57.6406V57.0288H112.05V57.6406C112.484 57.6406 112.918 57.763 113.29 57.8242C113.29 58.436 112.608 59.9656 112.36 60.5163C112.112 61.0058 111.43 62.7801 111.12 62.9637L110.19 60.5163C110.004 59.9044 109.446 58.436 109.384 57.8242C110.624 57.5794 110.376 57.6406 110.376 57.0288H106.656C106.222 57.0288 106.284 57.2123 106.284 57.6406ZM36.41 59.2926C34.302 59.2926 36.906 57.5182 37.836 57.5182C38.828 57.5182 39.324 58.0077 39.324 58.8031C39.324 59.3538 38.58 59.109 38.022 59.1702C37.526 59.2314 37.03 59.2926 36.41 59.2926ZM33.868 61.1893C33.868 65.9617 38.208 66.0841 39.944 64.8604C40.502 64.4933 41.122 63.8814 40.998 63.2084C39.634 63.2696 40.812 64.1874 38.332 64.1874C36.286 64.1874 35.046 61.6176 35.418 60.0268C37.092 60.0268 39.572 60.2104 40.998 59.9044C40.998 58.6807 40.998 58.3136 40.378 57.6406C39.014 56.2334 36.224 56.6617 34.984 58.1301C34.364 58.8643 33.868 59.9044 33.868 61.1893ZM101.2 59.2926H100.456C100.456 58.6196 100.766 58.3748 101.138 58.0689C102.192 57.2123 104.114 57.2123 104.114 58.8031C104.114 59.3538 103.37 59.109 102.812 59.1702C102.316 59.2314 101.82 59.2926 101.2 59.2926ZM98.658 61.1893C98.658 62.6577 98.906 63.7591 99.96 64.6768C101.324 65.7782 103.556 65.717 104.858 64.7992C104.982 64.6768 106.594 63.2084 105.54 63.2084C104.734 63.2084 105.416 64.1874 103.122 64.1874C101.324 64.1874 100.332 62.3518 100.084 60.6998C99.96 59.7209 100.394 60.0268 102.626 60.0268C103.68 60.0268 104.92 60.088 105.788 59.9044C105.788 59.3538 106.098 58.6807 105.23 57.7018C103.866 56.1722 101.014 56.6617 99.774 58.1301C99.154 58.8031 98.658 59.9656 98.658 61.1893ZM15.702 59.2926C15.826 57.3347 19.422 56.784 19.422 58.6807C19.422 59.4761 16.508 59.2926 15.702 59.2926ZM13.966 60.8222C13.966 62.1683 13.904 63.4531 15.144 64.5545C16.694 65.9617 19.608 65.8393 20.848 64.1262C21.282 63.4531 21.158 62.8413 20.414 63.5143C18.244 65.411 15.454 63.3308 15.454 60.3327C15.454 59.7821 17.19 60.0268 18.368 60.0268C20.848 60.0268 21.158 60.2715 21.158 59.1702C21.158 57.7018 19.732 56.784 17.996 56.784C15.826 56.784 13.966 58.7419 13.966 60.8222ZM41.618 60.9446V61.8012C41.618 65.2275 45.586 66.3288 47.88 64.8604C48.252 64.6156 49.12 63.8814 49.12 63.3308C49.12 62.9025 49.12 63.3308 48.996 62.9637C48.314 63.0248 48.624 63.2084 48.066 63.6367C46.454 64.9216 43.168 64.065 43.168 60.5775C43.168 58.9867 44.284 57.6406 45.958 57.6406C47.384 57.6406 47.756 58.8031 48.252 58.8031C48.686 58.8031 49.058 58.1301 48.686 57.3959C48.376 56.7228 47.074 56.784 46.33 56.784C44.904 56.784 43.788 57.2735 43.044 57.9465C42.3 58.5584 41.618 59.7209 41.618 60.9446ZM49.616 57.9465C49.926 58.1301 50.112 58.0689 50.67 58.0689V62.9637C50.67 67.0018 55.134 65.2887 55.134 64.4321C55.134 63.8202 54.7 64.1874 54.452 64.3097C54.08 64.4933 53.894 64.5545 53.336 64.4321C52.654 64.1874 52.344 63.4531 52.344 62.5354V58.0689C55.258 58.0689 55.444 58.3748 55.134 57.0288C52.22 57.0288 52.406 57.2735 52.344 56.2945C52.344 55.8663 52.344 55.4991 51.972 55.6215C51.538 55.8051 51.6 56.784 50.112 57.3347C49.554 57.5182 49.616 57.3347 49.616 57.9465ZM21.964 57.7018C21.964 58.3136 22.708 58.0689 22.708 58.6807C22.708 60.088 22.832 63.2696 22.584 64.4321C22.212 64.4933 21.902 64.6156 21.468 64.6768V65.2887H25.746C26.118 65.2887 26.056 65.0439 26.118 64.6768C25.87 64.6768 25.126 64.5545 24.94 64.4933C24.568 64.4321 24.382 64.1874 24.382 63.6979V59.6597C24.382 59.0478 24.692 58.1913 25.374 58.1913C25.87 58.1913 26.428 58.6807 26.552 58.6807C28.474 58.6807 27.854 55.6215 25.312 57.2123C25.002 57.4571 24.816 57.763 24.382 57.8242V56.5393C23.762 56.5393 23.204 56.9676 22.46 57.2735C22.15 57.3959 21.964 57.3347 21.964 57.7018ZM4.54199 64.6768V65.2887H10.122V64.6768C7.70399 64.6156 8.07599 63.7591 8.07599 60.1492C7.08399 60.1492 7.20799 60.2104 6.33999 60.0268C6.33999 61.1893 6.21599 62.1071 6.21599 63.086C6.21599 64.4933 5.78199 64.5545 4.54199 64.6768Z" fill="#888196"/>
<path fill-rule="evenodd" clip-rule="evenodd" d="M80.244 71.4685C80.244 70.1224 81.794 70.1224 81.794 71.4685C81.794 72.6922 80.244 72.8757 80.244 71.4685ZM79.252 74.5889H80.244V72.9369C82.972 74.7112 83.716 69.6941 81.422 69.6941C80.244 69.6941 80.802 69.8777 80.12 70.0612V69.6941H79.252V74.5889ZM85.328 70.4283H85.452C85.824 70.4283 85.886 70.7342 86.01 70.979H84.708C84.77 70.6731 84.956 70.4283 85.328 70.4283ZM83.716 71.1014C83.716 72.0803 83.716 73.2428 85.576 73.2428C86.01 73.2428 86.444 73.1816 86.754 73.0593L86.63 72.325C85.886 72.5086 84.77 72.7533 84.708 71.7132H86.878C86.878 70.3671 86.816 69.6941 85.204 69.6941C84.46 69.6941 83.716 70.4283 83.716 71.1014ZM66.294 71.8356C66.294 74.0994 68.402 72.9981 68.526 72.9981L69.456 73.1204V69.6941H68.464C68.464 70.8566 68.774 72.4474 67.906 72.4474C67.038 72.4474 67.286 70.6731 67.286 69.6941H66.294V71.8356ZM95.372 70.4283H95.496C95.868 70.4283 95.992 70.6731 96.116 70.979H94.752C94.814 70.6731 95 70.4283 95.372 70.4283ZM93.822 71.3461C93.822 74.0994 96.798 73.2428 96.798 72.9369C96.798 72.0803 96.488 72.4474 95.806 72.5086C95.248 72.5086 94.814 72.325 94.752 71.7132H97.046C97.046 68.7152 93.822 69.327 93.822 71.3461ZM91.342 69.6941H90.908V70.5507H91.342V73.1204H92.334V70.5507H93.078V69.6941H92.334L92.458 69.0823C92.768 68.8987 92.768 68.9599 93.326 68.9599V68.1033C92.458 68.1033 91.404 68.0421 91.342 69.6941ZM74.416 69.0823V69.6941H73.92V70.5507H74.416C74.416 72.6922 74.23 73.2428 75.842 73.2428C76.338 73.2428 76.214 72.9981 76.214 72.4474C75.222 72.4474 75.408 72.325 75.408 70.5507H76.214V69.6941H75.408V68.8375C74.974 68.9599 74.85 69.0211 74.416 69.0823ZM102.006 69.0823V69.6941H101.572V70.5507H102.006C102.006 72.4474 101.82 73.2428 103.494 73.2428C103.928 73.2428 103.866 72.9981 103.866 72.4474C102.874 72.4474 103.432 72.5086 103.122 72.325C102.936 71.4685 102.998 71.5296 102.998 70.5507H103.866V69.6941H102.998V68.8375C102.626 68.9599 102.44 69.0211 102.006 69.0823ZM70.758 70.6119C70.758 72.0191 71.688 71.4685 72.246 72.2027C71.812 72.8145 71.812 72.5698 70.758 72.325C70.696 72.6922 70.262 73.2428 71.75 73.2428C73.3 73.2428 73.61 71.8356 72.618 71.2237C72.37 71.1014 71.936 71.0402 71.812 70.8566C71.502 70.5507 71.812 70.4283 72.184 70.4283C72.556 70.4283 72.37 70.4895 72.866 70.5507C72.99 70.2448 72.928 70.0612 73.052 69.8165C72.556 69.7553 70.758 69.2658 70.758 70.6119ZM97.914 71.4685C97.914 72.631 98.658 73.2428 99.836 73.2428C100.27 73.2428 100.332 73.1816 100.704 73.1204V72.325C98.1 72.9369 98.782 70.4283 99.96 70.4283C100.27 70.4283 100.084 70.4895 100.58 70.5507C101.014 69.5717 100.642 69.6941 99.464 69.6941C98.596 69.6941 97.914 70.5507 97.914 71.4685ZM64 71.5908C64 72.7533 63.07 72.3862 62.698 72.325C62.698 72.8145 62.636 72.8145 62.574 73.1204C65.55 73.8547 64.992 71.5908 64.992 68.4704H64V71.5908ZM88.118 73.1204H89.048C89.048 71.3461 88.8 70.8566 89.73 70.6119C90.04 70.4895 90.04 70.979 90.04 69.6941C89.358 69.6941 89.358 69.7553 88.924 70.0612V69.6941H88.118V73.1204Z" fill="#888196"/>
<path fill-rule="evenodd" clip-rule="evenodd" d="M121.164 52.3173C121.474 52.3173 121.474 52.1338 121.474 53.1127C121.474 53.4187 121.474 54.6424 121.35 54.8259C121.288 54.9483 121.102 54.9483 120.916 54.9483V55.0706H122.032V54.9483C121.598 54.9483 121.598 55.0095 121.598 54.0917V52.7456C121.722 52.9292 121.846 53.1127 121.908 53.3575C121.97 53.4187 122.032 53.541 122.094 53.6022L122.838 55.0706C122.9 55.1318 122.9 55.0095 122.962 54.9483L123.768 53.3575C123.83 53.2963 124.078 52.8068 124.078 52.7456V54.5812C124.078 54.9483 124.016 54.8871 123.706 54.9483V55.0706H124.822V54.9483C124.45 54.9483 124.45 54.8871 124.45 54.52V52.5009C124.45 52.2562 124.574 52.3173 124.76 52.3173V52.1338H124.078C124.078 52.1338 124.078 52.195 124.016 52.195L123.954 52.4397C123.892 52.5009 123.83 52.6233 123.768 52.7456C123.768 52.8068 123.706 52.9292 123.644 52.9904C123.582 53.1127 123.582 53.2351 123.52 53.2963C123.396 53.4798 123.334 53.7246 123.21 53.9081C123.21 54.0305 123.148 54.0917 123.086 54.2141C123.086 54.2752 122.962 54.4588 122.962 54.52L121.784 52.1338H121.164V52.3173Z" fill="#12032E"/>
<path fill-rule="evenodd" clip-rule="evenodd" d="M119.118 52.3173H119.428C119.49 52.3173 119.49 52.4397 119.49 52.5009V53.6022C119.552 53.6634 119.8 53.6022 119.862 53.6022V52.2562C120.234 52.2562 120.42 52.2562 120.606 52.4397C120.792 52.5621 120.854 52.8068 120.854 53.1127C120.792 53.3575 120.668 53.541 120.42 53.6022C120.11 53.7858 119.304 53.7858 118.932 53.7246C118.87 53.6634 118.746 53.6634 118.684 53.6634C118.808 53.7246 119.056 53.7858 119.18 53.7858C119.428 53.847 119.676 53.847 119.862 53.847C120.42 53.847 121.04 53.7858 121.226 53.2351C121.288 53.0516 121.288 52.868 121.226 52.6845C121.102 52.3785 120.792 52.195 120.42 52.1338H119.118V52.3173ZM119.118 54.9483V55.0706H120.234V54.9483C119.8 54.9483 119.862 54.9483 119.862 54.2752V53.9693H119.49V54.5812C119.49 54.9483 119.428 54.8871 119.118 54.9483Z" fill="#12032E"/>
</svg>
