<svg width="128" height="108" viewBox="0 0 128 108" fill="none" xmlns="http://www.w3.org/2000/svg">
<g clip-path="url(#clip0_4009_1351)">
<path d="M51.5363 43.8882V47.9185C51.5363 48.0819 51.5904 48.1182 51.7344 48.1182H53.9669C54.129 48.1182 54.183 48.1545 54.183 48.3179C54.165 48.7536 54.165 49.1893 54.183 49.625C54.183 49.8066 54.129 49.8247 53.9669 49.8247H51.7344C51.5904 49.8247 51.5363 49.861 51.5363 50.0244V55.4708C51.5363 55.6886 51.5543 55.8883 51.6084 56.1062C51.7704 57.0865 52.6166 57.7945 53.5888 57.7945C53.8049 57.8127 54.0209 57.8127 54.219 57.7945C54.327 57.7945 54.345 57.7945 54.345 57.9035V59.5192C54.345 59.5918 54.345 59.6463 54.237 59.6645C52.9767 59.7734 51.7704 59.6282 50.7081 58.8294C49.898 58.1939 49.5559 57.3044 49.4478 56.3059C49.4118 55.9609 49.3938 55.616 49.4118 55.2711V50.097C49.4118 49.8973 49.3578 49.861 49.1778 49.861C48.8357 49.8792 48.4936 49.861 48.1515 49.861C48.0255 49.861 47.9895 49.8247 47.9895 49.6976V48.2997C47.9895 48.1727 48.0435 48.1363 48.1515 48.1545C48.4936 48.1545 48.8357 48.1363 49.1778 48.1545C49.4118 48.1727 49.4839 48.1182 49.4839 47.864C49.4659 46.6477 49.4839 45.4132 49.4839 44.1968C49.4839 44.106 49.5019 44.0334 49.5019 43.9426L51.5363 43.8882Z" fill="#888196"/>
<path d="M36.0887 43.8884C36.2687 43.9247 36.3047 44.0518 36.3047 44.2151C36.2867 44.6508 36.2867 45.1047 36.3047 45.5404C36.3047 45.7038 36.2867 45.7583 36.1067 45.7401C35.6566 45.6857 35.2065 45.7401 34.7924 45.8672C33.9282 46.194 33.388 47.0472 33.4781 47.9731C33.4961 48.1184 33.5861 48.0821 33.6581 48.0821H35.8366C36.0167 48.0821 36.0707 48.1365 36.0707 48.3181C36.0527 48.7356 36.0527 49.1532 36.0707 49.5707C36.0707 49.7523 36.0347 49.8067 35.8546 49.7886C35.1525 49.7704 34.4323 49.7886 33.7121 49.7886C33.5141 49.7886 33.4601 49.8249 33.4601 50.0246C33.4601 53.129 33.4601 56.2334 33.4601 59.3197C33.4601 59.6828 33.5141 59.6283 33.154 59.6283C32.6499 59.6283 32.1457 59.6102 31.6596 59.6283C31.4256 59.6283 31.4076 59.5557 31.4076 59.356V50.079C31.4076 49.8249 31.3536 49.7523 31.1015 49.7704C30.7954 49.7886 30.4894 49.7704 30.1833 49.7704C30.0753 49.7704 30.0392 49.7523 30.0392 49.6252V48.2091C30.0392 48.1002 30.0753 48.0639 30.1833 48.0639H31.1915C31.3536 48.0639 31.4076 48.0276 31.4076 47.8642C31.3896 47.1925 31.5156 46.5389 31.7857 45.9217C32.3078 44.7598 33.244 44.1788 34.4503 43.9428C34.5943 43.9428 34.7204 43.9065 34.8464 43.8521L36.0887 43.8884Z" fill="#888196"/>
<path d="M45.739 56.5421C46.009 57.0141 46.2431 57.468 46.5131 57.9037C46.5852 57.9763 46.5852 58.1034 46.5131 58.176C46.4951 58.1942 46.4771 58.2123 46.4411 58.2305C45.6669 58.8477 44.7667 59.2834 43.8125 59.4831C41.9941 59.8825 40.2837 59.6284 38.7713 58.5028C37.421 57.5043 36.7368 56.1064 36.5928 54.4543C36.4307 53.1109 36.7368 51.7312 37.421 50.5693C38.3032 49.1351 39.6175 48.3363 41.2739 48.1366C42.3001 47.9732 43.3444 48.1366 44.2626 48.5904C45.6309 49.2984 46.3331 50.4785 46.6392 51.949C46.7652 52.6026 46.7832 53.2561 46.7292 53.9278C46.7112 54.1094 46.6572 54.1639 46.4591 54.1639H39.0054C38.7893 54.1639 38.7353 54.2183 38.7533 54.4362C38.8613 56.3061 40.3737 57.7766 42.2281 57.8129C43.3984 57.8492 44.5507 57.468 45.4869 56.7418C45.5589 56.6873 45.6489 56.6147 45.739 56.5421Z" fill="#888196"/>
<path d="M26.3304 57.5041C26.2043 57.7038 26.0783 57.9217 25.9343 58.1032C25.0341 59.2833 23.8278 59.7553 22.3694 59.6282C21.5952 59.5738 20.8571 59.2833 20.2629 58.8113C18.8946 57.6857 18.6965 55.6342 19.8128 54.2545C19.9749 54.0548 20.1549 53.8732 20.3529 53.728C21.1631 53.1289 22.0814 52.8747 23.0536 52.6932C24.0078 52.5298 24.98 52.4753 25.9523 52.4935C26.1323 52.4935 26.1683 52.439 26.1683 52.2756C26.1683 52.0396 26.1323 51.7855 26.0963 51.5495C25.8803 50.5328 25.1961 49.97 24.1158 49.8974C22.9816 49.8429 21.8653 50.1516 20.9291 50.8051C20.731 50.9322 20.677 50.8959 20.587 50.7144C20.3889 50.315 20.1729 49.9337 19.9388 49.5525C19.8668 49.4254 19.8848 49.3528 19.9929 49.2802C20.9111 48.6629 21.9733 48.2635 23.0716 48.1364C24.0078 47.9912 24.962 48.082 25.8442 48.3906C27.2126 48.8989 27.9327 49.9337 28.1668 51.3498C28.2388 51.7492 28.2568 52.1304 28.2568 52.5298V59.4104C28.2568 59.6282 28.2028 59.6827 28.0048 59.6645C27.5186 59.6464 27.0145 59.6464 26.5284 59.6645C26.3304 59.6645 26.2944 59.5919 26.2944 59.4285C26.3304 58.7931 26.3124 58.1577 26.3304 57.5041Z" fill="#888196"/>
<path d="M54.4891 48.1002H56.7216C56.8656 48.1002 56.8656 48.2091 56.9016 48.2999C57.6578 50.2606 58.396 52.2213 59.1342 54.1819C59.4943 55.0352 59.8003 55.9248 60.0524 56.8144C60.0704 56.8507 60.0884 56.887 60.1064 56.9233C60.4485 55.5072 61.0066 54.2183 61.4747 52.8748C62.0329 51.3498 62.591 49.8249 63.1491 48.2817C63.2031 48.1365 63.2572 48.082 63.4192 48.082C64.1034 48.1002 64.7875 48.082 65.4897 48.082C65.3637 48.4088 65.2376 48.6993 65.1296 49.0079C63.5272 53.1108 61.9068 57.2138 60.2864 61.3348C59.9444 62.2244 59.4222 62.9869 58.594 63.4771C57.3157 64.2214 56.0374 64.1488 54.7591 63.4226C54.6151 63.35 54.6151 63.2774 54.6871 63.1503C54.8852 62.7327 55.0832 62.3333 55.2453 61.8976C55.3173 61.7342 55.3713 61.7161 55.5153 61.8068C56.4875 62.4059 57.4238 62.2244 58.1079 61.3711C58.27 61.1714 58.396 60.9536 58.504 60.7357C58.7021 60.3 58.8821 59.8462 59.0802 59.4104C59.1162 59.3197 59.1162 59.2107 59.0622 59.12C57.9099 56.3968 56.7756 53.6736 55.6233 50.9504C55.2633 50.0972 54.9032 49.2258 54.5431 48.3725C54.5071 48.2636 54.4891 48.191 54.4891 48.1002Z" fill="#888196"/>
<path d="M16.9501 50.9141C16.1219 50.2242 15.0596 49.8793 13.9794 49.9701C13.6553 49.9882 13.3312 50.079 13.0431 50.2605C12.503 50.551 12.287 51.2409 12.593 51.7855C12.6651 51.9126 12.7551 52.0397 12.8811 52.1305C13.2232 52.4028 13.6193 52.6206 14.0154 52.7659C14.6815 53.0563 15.3477 53.2924 15.9959 53.6191C16.482 53.8551 16.9321 54.1638 17.3102 54.545C18.3724 55.7251 18.3004 57.5587 17.1301 58.6298C17.0581 58.6842 16.9861 58.7569 16.9141 58.8113C16.2479 59.3197 15.4377 59.6283 14.5915 59.6646C12.9711 59.8098 11.3687 59.3015 10.1265 58.2304C9.96441 58.1033 9.96441 57.9944 10.0904 57.831C10.3605 57.4497 10.6126 57.0866 10.8646 56.7054C10.9547 56.5783 10.9907 56.5783 11.1167 56.6691C11.9989 57.4497 13.1332 57.8673 14.3034 57.8128C14.6815 57.7947 15.0236 57.6857 15.3477 57.486C16.0859 56.9959 16.1399 56.1245 15.4377 55.5617C15.1136 55.3075 14.7536 55.126 14.3755 54.9626C13.7273 54.6721 13.0612 54.4361 12.431 54.1275C12.0349 53.9278 11.6568 53.6917 11.3147 53.4013C10.1265 52.4028 9.94641 50.6055 10.9547 49.4073C11.0987 49.2439 11.2607 49.0805 11.4408 48.9534C12.0889 48.4632 12.8811 48.1909 13.6733 48.1365C14.9156 48.0275 16.1039 48.2091 17.2021 48.8626C17.8323 49.2439 17.8323 49.262 17.4902 49.8975L16.9501 50.9141Z" fill="#888196"/>
<path d="M41.724 52.6022H39.0593C38.8433 52.6022 38.7893 52.5659 38.8433 52.3299C39.3474 50.1151 41.3459 49.4797 42.7862 49.8972C43.8845 50.2058 44.4066 51.0228 44.5686 52.0939C44.6407 52.5841 44.6407 52.5841 44.1365 52.5841L41.724 52.6022Z" fill="#12032E"/>
<path d="M25.2861 54.1094H26.0422C26.1503 54.1094 26.2043 54.1275 26.2043 54.2728C26.2043 55.5436 25.8082 56.6329 24.7819 57.4498C24.0978 58.0126 23.1436 58.1578 22.3154 57.7947C21.7032 57.5769 21.2891 57.0323 21.2351 56.3787C21.1451 55.707 21.4872 55.0534 22.0813 54.7448C22.6934 54.3817 23.3596 54.2728 24.0438 54.182C24.4759 54.1275 24.872 54.1094 25.2861 54.1094Z" fill="#12032E"/>
<path d="M77.6065 54.0912C77.6065 53.4376 77.5165 52.8022 77.3545 52.185C76.5263 49.4255 74.7078 47.7008 71.9352 46.9928C71.5211 46.8839 71.107 46.8294 70.6929 46.8112C70.6028 46.8112 70.6028 46.7568 70.6028 46.7023V44.0518H70.6749C70.7289 44.0699 70.8009 44.0699 70.8549 44.0518H70.9989C71.161 44.0881 71.341 44.0699 71.5211 44.0881C72.3853 44.197 73.2495 44.3967 74.0597 44.7235C75.1039 45.141 76.0941 45.7401 76.9403 46.4845C78.0206 47.4285 78.9028 48.5904 79.497 49.9157C79.9471 50.896 80.2351 51.9308 80.3432 52.9838C80.3612 53.1472 80.3432 53.3106 80.3792 53.474V53.6192C80.3612 53.6737 80.3612 53.7463 80.3792 53.8007V54.1094C80.3252 54.1457 80.2711 54.1638 80.2171 54.1457H77.8046C77.7145 54.1457 77.6425 54.1457 77.6065 54.0912Z" fill="#888196"/>
<path d="M77.6065 54.0908H80.3612V54.3631C80.3432 54.4176 80.3612 54.4721 80.3432 54.5084C80.3252 54.5447 80.3252 54.6173 80.3612 54.6536V54.7262C80.3252 54.9078 80.3432 55.0893 80.3252 55.2709C80.2531 55.8518 80.1271 56.4328 79.9651 57.0137C79.695 57.9396 79.2809 58.811 78.7408 59.6098C78.4527 60.0637 78.1106 60.4812 77.7505 60.8806C77.1024 61.5886 76.3642 62.2059 75.554 62.6961C74.3117 63.4585 72.9254 63.9306 71.467 64.094C71.323 64.1121 71.161 64.094 71.0169 64.1303H70.9629C70.9089 64.1121 70.8549 64.1303 70.8189 64.1121C70.7649 64.1121 70.7109 64.094 70.6749 64.1303H70.6028V61.4797C70.6028 61.3889 70.6208 61.3708 70.7109 61.3708C73.9516 61.2255 76.7963 58.7928 77.4625 55.5976C77.5525 55.1256 77.6065 54.6173 77.6065 54.0908Z" fill="#888196"/>
<path d="M70.8368 44.0518C70.7828 44.0881 70.7108 44.0881 70.6568 44.0518H70.8368Z" fill="#888196"/>
<path d="M80.3612 53.8007C80.3252 53.7462 80.3252 53.6736 80.3612 53.6191V53.8007Z" fill="#888196"/>
<path d="M80.3252 54.5266C80.3252 54.4721 80.3072 54.4177 80.3432 54.3813V54.5266C80.3432 54.5447 80.3432 54.5447 80.3252 54.5266Z" fill="#888196"/>
<path d="M80.3251 54.5269H80.3431V54.6721C80.3071 54.6358 80.3431 54.5813 80.3251 54.5269Z" fill="#888196"/>
<path d="M70.6568 64.1487C70.7108 64.1124 70.7648 64.1305 70.8008 64.1305V64.1487H70.6568Z" fill="#888196"/>
<path d="M70.8009 64.1487V64.1305C70.8549 64.1305 70.9089 64.0942 70.945 64.1487H70.8009Z" fill="#888196"/>
<path d="M68.2803 54.109V53.3283V50.1331V49.9697L68.8745 50.4417C70.3868 51.6399 71.9172 52.8381 73.4296 54.0363C73.4656 54.0545 73.5016 54.0726 73.5016 54.109C73.4476 54.1453 73.3755 54.1634 73.3035 54.1453H68.4604C68.4064 54.1634 68.3343 54.1453 68.2803 54.109Z" fill="#888196"/>
<path d="M68.2803 54.1094H73.5016C73.3395 54.2546 73.1775 54.3998 72.9974 54.5269C71.4851 55.7251 69.9547 56.9233 68.4244 58.1215C68.3883 58.1578 68.3343 58.176 68.2983 58.2123C68.2623 58.176 68.2803 58.1578 68.2803 58.1397V54.1638C68.2803 54.1275 68.2803 54.1094 68.2803 54.1094Z" fill="#888196"/>
<path d="M82.5937 63.9854C82.7197 63.2411 82.8457 62.5149 82.9898 61.7706C83.4939 59.0474 83.998 56.3424 84.5201 53.6192C84.8442 51.8401 85.1863 50.0791 85.5104 48.2999C85.5464 48.1547 85.5824 48.1002 85.7444 48.1002C86.2486 48.1184 86.7707 48.1184 87.2748 48.1002C87.4729 48.1002 87.4909 48.1729 87.4549 48.3362C87.3648 48.9172 87.2208 49.4981 87.0588 50.0609C87.1848 50.0428 87.2208 49.952 87.2748 49.8794C88.5171 48.2455 90.6956 47.6464 92.6041 48.4089C93.8104 48.899 94.4945 49.8612 94.7826 51.0957C95.3587 53.5466 94.5666 56.8144 92.154 58.5754C90.8397 59.5194 89.3993 59.9007 87.7969 59.465C86.9507 59.2471 86.2306 58.6662 85.8525 57.8674C85.8345 57.8311 85.7985 57.7947 85.7804 57.7403H85.7624C85.4204 59.8099 85.0063 61.8795 84.6102 63.9491L82.5937 63.9854Z" fill="#888196"/>
<path d="M105.945 63.9852C105.801 63.9126 105.639 63.8582 105.477 63.8582C105.099 63.7492 104.721 63.5858 104.379 63.368C104.271 63.2954 104.253 63.2409 104.325 63.132C104.577 62.7326 104.847 62.3332 105.099 61.9156C105.171 61.8067 105.207 61.7885 105.333 61.8612C106.125 62.3332 107.134 62.2424 107.818 61.607C108.16 61.3165 108.448 60.9534 108.682 60.554C108.898 60.1909 109.132 59.8097 109.366 59.4466C109.438 59.3377 109.474 59.1924 109.42 59.0472C108.61 55.4889 107.782 51.9125 106.954 48.336C106.918 48.1363 106.918 48.0819 107.152 48.0819C107.728 48.1 108.304 48.0819 108.862 48.0819C109.006 48.0819 109.078 48.1 109.114 48.2816C109.618 50.8414 110.122 53.4193 110.626 55.9973C110.698 56.3603 110.734 56.7234 110.788 57.1591C111.095 56.5056 111.401 55.9246 111.725 55.3437C113.003 53.0018 114.281 50.6598 115.56 48.3179C115.632 48.1545 115.776 48.0637 115.956 48.0819C116.64 48.1 117.324 48.0819 117.99 48.0819C118.026 48.1727 117.954 48.2271 117.918 48.2816C115.344 52.675 112.751 57.0865 110.176 61.4799C109.618 62.4421 108.88 63.2227 107.836 63.6948C107.548 63.8218 107.224 63.8582 106.936 63.9852H105.945Z" fill="#888196"/>
<path d="M102.452 57.5224C102.326 57.6858 102.218 57.831 102.11 57.9581C101.264 58.9385 100.22 59.592 98.8876 59.6647C98.0414 59.7373 97.1952 59.4831 96.493 58.9748C95.5388 58.2668 95.2147 57.0504 95.6288 55.7433C95.9349 54.7629 96.5831 54.0912 97.4473 53.6192C98.3655 53.129 99.3737 52.8022 100.4 52.6752C101.264 52.5481 102.146 52.4936 103.029 52.5118C103.209 52.5118 103.281 52.4573 103.299 52.2758C103.353 51.9127 103.353 51.5496 103.317 51.1865C103.209 50.4603 102.686 50.0064 101.894 49.9157C100.634 49.7704 99.5178 50.1698 98.4375 50.7689C98.1494 50.9323 98.1494 50.9323 98.0414 50.6055C97.9154 50.2061 97.7713 49.7886 97.6453 49.3892C97.6093 49.2803 97.6093 49.2258 97.7173 49.1713C99.3557 48.2999 101.084 47.8642 102.939 48.2092C104.325 48.4633 105.171 49.3166 105.423 50.6419C105.513 51.3317 105.495 52.0398 105.333 52.7115C104.901 54.9626 104.469 57.1956 104.037 59.4468C104.001 59.6102 103.947 59.6647 103.785 59.6647C103.281 59.6465 102.759 59.6647 102.254 59.6647C102.074 59.6647 102.056 59.6283 102.092 59.4468C102.2 58.8295 102.326 58.1941 102.452 57.5224Z" fill="#888196"/>
<path d="M86.3746 54.8718C86.4286 53.3287 86.9508 51.9489 88.121 50.8778C88.7692 50.2424 89.6514 49.9156 90.5516 49.9519C91.6319 50.0064 92.4061 50.6237 92.6761 51.6585C93.1082 53.2742 92.6221 55.7796 90.8217 57.0685C90.1915 57.5587 89.4174 57.7947 88.6252 57.7584C87.4729 57.6858 86.6627 56.9414 86.4466 55.7432C86.4106 55.4528 86.3746 55.1623 86.3746 54.8718Z" fill="#12032E"/>
<path d="M102.11 54.0728H102.831C102.939 54.0728 102.975 54.1091 102.939 54.218C102.686 55.507 101.948 56.6325 100.886 57.395C100.346 57.7763 99.6798 57.9578 99.0136 57.8852C97.5553 57.74 97.3032 56.4691 97.8074 55.5433C98.0414 55.162 98.3655 54.8716 98.7616 54.69C99.4457 54.3814 100.184 54.1817 100.922 54.1272C101.336 54.0909 101.732 54.0728 102.11 54.0728Z" fill="#12032E"/>
</g>
<defs>
<clipPath id="clip0_4009_1351">
<rect width="108" height="108" fill="white" transform="translate(10)"/>
</clipPath>
</defs>
</svg>
