<svg width="128" height="70" viewBox="0 0 128 70" fill="none" xmlns="http://www.w3.org/2000/svg">
<path fill-rule="evenodd" clip-rule="evenodd" d="M79.2812 28.7747C80.8681 28.7747 82.1544 27.486 82.1544 25.8968C82.1544 24.3066 80.8681 23.0166 79.2812 23.0166C77.6961 23.0166 76.4105 24.3066 76.4105 25.8968C76.4105 27.486 77.6961 28.7747 79.2812 28.7747ZM57.2763 30.329C57.1467 30.6554 56.2135 33.2976 53.9568 36.0361V24.327L47.9437 25.5183V46.7423H53.9568V40.1818C55.6984 42.8002 56.5583 46.7423 56.5583 46.7423H63.7608C63.0483 43.7733 59.9319 38.2989 59.9319 38.2989C62.7289 34.7442 63.9574 30.9565 64.1528 30.329H57.2763ZM73.0845 30.1074C67.6986 30.2807 64.9646 32.7029 64.9646 37.5179V46.7423H70.8404V39.2201C70.8404 36.3368 71.2169 35.101 74.63 34.9831V30.1919C74.0556 30.0697 73.0845 30.1074 73.0845 30.1074ZM37.8591 32.6661C37.1226 32.6175 35.4175 32.5071 35.4175 30.9683C35.4175 29.1114 37.8724 29.1114 38.7932 29.1114C40.4122 29.1114 42.5091 29.591 44.0065 30.04C44.0065 30.04 44.8418 30.3352 45.5527 30.6375L45.6187 30.6554V25.57L45.528 25.5431C43.7608 24.9233 41.7059 24.327 37.8962 24.327C31.3274 24.327 29 28.163 29 31.4491C29 33.3434 29.81 37.8017 37.3328 38.3159C37.9706 38.3552 39.663 38.453 39.663 40.0432C39.663 41.3561 38.2774 42.1303 35.9468 42.1303C33.3928 42.1303 30.9154 41.4774 29.4105 40.8582V46.0959C31.6633 46.6878 34.2028 46.9836 37.1791 46.9836C43.6018 46.9836 46.4784 43.3544 46.4784 39.7573C46.4784 35.6787 43.2595 33.0288 37.8591 32.6661ZM76.3685 46.7423H82.1967V30.3476H76.3685V46.7423ZM93.1709 25.3723V46.7423H99V24.327L93.1709 25.3723ZM84.6655 25.3723L90.4891 24.327V46.7423H84.6655V25.3723Z" fill="#888196"/>
</svg>
