<svg width="20" height="20" viewBox="0 0 20 20" fill="none" xmlns="http://www.w3.org/2000/svg">
<g clip-path="url(#clip0_1579_2278)">
<path d="M9.99886 13.8277C10.3014 13.8277 10.5461 13.5831 10.5461 13.2805C10.5461 12.9779 10.3014 12.7332 9.99886 12.7332C9.69628 12.7332 9.45265 12.9779 9.45265 13.2805C9.45265 13.5831 9.69727 13.8277 9.99886 13.8277Z" fill="#0BB1D3"/>
<path d="M9.99886 7.26487C10.3014 7.26487 10.5461 7.02023 10.5461 6.71764C10.5461 6.41504 10.3014 6.17041 9.99886 6.17041C9.69628 6.17041 9.45265 6.41504 9.45265 6.71764C9.45265 7.02023 9.69727 7.26487 9.99886 7.26487Z" fill="#0BB1D3"/>
<path d="M6.71881 10.5474C7.0204 10.5474 7.26502 10.3028 7.26502 10.0002C7.26502 9.69759 7.0204 9.45296 6.71881 9.45296C6.41721 9.45296 6.17162 9.69759 6.17162 10.0002C6.17162 10.3028 6.41623 10.5474 6.71881 10.5474Z" fill="#0BB1D3"/>
<path d="M9.99933 3.94807C6.66215 3.94807 3.94781 6.66358 3.94781 10C3.94781 13.3364 6.66215 16.0519 9.99933 16.0519C13.3365 16.0519 16.0509 13.3364 16.0509 10C16.0509 6.66358 13.3365 3.94807 9.99933 3.94807ZM13.2805 11.6407C12.5673 11.6407 11.9592 11.1839 11.7342 10.5472H10.5465V11.735C11.1831 11.961 11.6399 12.5691 11.6399 13.2814C11.6399 14.1862 10.9041 14.9221 9.99933 14.9221C9.09455 14.9221 8.35874 14.1862 8.35874 13.2814C8.35874 12.5681 8.81555 11.961 9.45214 11.735V10.5472H8.26443C8.03946 11.1839 7.43136 11.6407 6.71815 11.6407C5.81337 11.6407 5.07756 10.9048 5.07756 10C5.07756 9.09516 5.81337 8.3593 6.71815 8.3593C7.43136 8.3593 8.03946 8.81614 8.26443 9.45278H9.45214V8.26499C8.81555 8.03902 8.35874 7.43186 8.35874 6.7186C8.35874 5.81376 9.09455 5.0779 9.99933 5.0779C10.9041 5.0779 11.6399 5.81376 11.6399 6.7186C11.6399 7.43186 11.1831 8.03902 10.5465 8.26499V9.45278H11.7342C11.9592 8.81614 12.5673 8.3593 13.2805 8.3593C14.1853 8.3593 14.9211 9.09516 14.9211 10C14.9211 10.9048 14.1853 11.6407 13.2805 11.6407Z" fill="url(#paint0_linear_1579_2278)"/>
<path d="M13.2799 10.5474C13.5825 10.5474 13.8271 10.3028 13.8271 10.0002C13.8271 9.69759 13.5825 9.45296 13.2799 9.45296C12.9773 9.45296 12.7337 9.69759 12.7337 10.0002C12.7337 10.3028 12.9783 10.5474 13.2799 10.5474Z" fill="#0BB1D3"/>
<path fill-rule="evenodd" clip-rule="evenodd" d="M6.90949 3.55706L5.8043 1.64225C6.91244 1.0852 8.14632 0.742321 9.45094 0.666672V2.87523C8.54714 2.94401 7.68951 3.18176 6.90949 3.55706ZM15.8926 5.96601C15.3926 5.23801 14.7609 4.60629 14.0329 4.10622L15.1391 2.19043C16.1991 2.88994 17.1088 3.7997 17.8082 4.85977L15.8926 5.96601ZM9.45094 19.3331C8.14632 19.2575 6.91244 18.9146 5.8043 18.3575L6.90949 16.4427C7.68951 16.818 8.54714 17.0558 9.45094 17.1245V19.3331ZM16.4416 13.0878L18.3553 14.1931C18.9123 13.0849 19.2562 11.8519 19.3308 10.5462H17.1234C17.0546 11.4501 16.8169 12.3078 16.4416 13.0878ZM13.0876 16.4427L14.1928 18.3575C13.0857 18.9146 11.8518 19.2575 10.5462 19.3331V17.1245C11.451 17.0558 12.3086 16.818 13.0876 16.4427ZM16.4416 6.91126C16.8169 7.69133 17.0546 8.54901 17.1234 9.45287H19.3308C19.2562 8.14719 18.9123 6.91322 18.3553 5.80599L16.4416 6.91126ZM4.10562 14.0352C4.60566 14.7632 5.23636 15.3949 5.96529 15.8949L4.85912 17.8107C3.79814 17.1112 2.88942 16.2015 2.18996 15.1414L4.10562 14.0352ZM1.64214 5.80599C1.08512 6.91421 0.74227 8.14719 0.666626 9.45287H2.87504C2.94381 8.54901 3.18155 7.69133 3.55682 6.91126L1.64214 5.80599ZM14.0329 15.8949C14.7609 15.3949 15.3926 14.7632 15.8926 14.0352L17.8082 15.1414C17.1088 16.2015 16.1991 17.1112 15.1391 17.8107L14.0329 15.8949ZM2.87504 10.5462H0.666626C0.74227 11.8519 1.08512 13.0859 1.64214 14.1931L3.55682 13.0878C3.18155 12.3078 2.94381 11.4501 2.87504 10.5462ZM14.1928 1.64225C13.0857 1.0852 11.8518 0.742321 10.5462 0.666672V2.87523C11.451 2.94401 12.3086 3.18176 13.0876 3.55706L14.1928 1.64225ZM5.96529 4.10622C5.23636 4.60629 4.60566 5.23801 4.10562 5.96601L2.18996 4.85977C2.88942 3.7997 3.79814 2.88994 4.85912 2.19043L5.96529 4.10622Z" fill="url(#paint1_linear_1579_2278)"/>
</g>
<defs>
<linearGradient id="paint0_linear_1579_2278" x1="9.99933" y1="16.0519" x2="9.99933" y2="3.94804" gradientUnits="userSpaceOnUse">
<stop stop-color="#9F2FFF"/>
<stop offset="1" stop-color="#0BB1D3"/>
</linearGradient>
<linearGradient id="paint1_linear_1579_2278" x1="9.99873" y1="19.3331" x2="9.99873" y2="0.666612" gradientUnits="userSpaceOnUse">
<stop stop-color="#9F2FFF"/>
<stop offset="1" stop-color="#0BB1D3"/>
</linearGradient>
<clipPath id="clip0_1579_2278">
<rect width="19.9987" height="20" fill="white"/>
</clipPath>
</defs>
</svg>
