<svg width="20" height="20" viewBox="0 0 20 20" fill="none" xmlns="http://www.w3.org/2000/svg">
<path d="M10.0066 4.23313C10.3411 4.23313 10.6128 3.96203 10.6128 3.62692V1.93956C10.6128 1.6051 10.3417 1.33334 10.0066 1.33334C9.67154 1.33334 9.40046 1.60444 9.40046 1.93956V3.62692C9.40046 3.96138 9.67154 4.23313 10.0066 4.23313Z" fill="#0BB1D3"/>
<path d="M12.2439 4.68654C12.321 4.7192 12.4013 4.73488 12.4803 4.73488C12.7162 4.73488 12.9409 4.59639 13.0382 4.36514L13.6973 2.8117C13.8279 2.50337 13.6842 2.148 13.3759 2.01735C13.0682 1.88669 12.7122 2.03041 12.5816 2.33875L11.9225 3.89218C11.7919 4.20052 11.9356 4.55589 12.2439 4.68654Z" fill="#0BB1D3"/>
<path d="M6.96256 4.36509C7.06054 4.59569 7.28459 4.73418 7.5204 4.73418C7.59944 4.73418 7.67913 4.7185 7.75686 4.68583C8.06518 4.55518 8.20823 4.19916 8.07824 3.89148L7.4185 2.33804C7.2872 2.03036 6.93251 1.88599 6.6242 2.0173C6.31588 2.14795 6.17283 2.50397 6.30282 2.81165L6.96256 4.36509Z" fill="#0BB1D3"/>
<path d="M5.31713 15.2862H6.43411C6.27734 14.8798 6.1872 14.4389 6.18198 13.9803L3.1844 10.4051C3.16088 10.3763 3.13802 10.3469 3.11777 10.3182C2.78398 10.0889 2.39205 9.96738 1.98902 9.96738C1.87602 9.96738 1.75975 9.97914 1.64347 9.99939C1.06342 10.1013 0.561106 10.4521 0.267815 10.9629C-0.0280891 11.4705 -0.0803459 12.08 0.119536 12.6346C0.322684 13.1892 0.755109 13.6217 1.30642 13.8216L5.31647 15.2868L5.31713 15.2862Z" fill="url(#paint0_linear_1579_2282)"/>
<path d="M19.7333 10.9624C19.4374 10.4516 18.9383 10.1008 18.3576 9.99888C17.8383 9.90612 17.3099 10.0224 16.8833 10.3183C16.8631 10.3471 16.8395 10.3765 16.8167 10.4052L13.8191 13.9772C13.8132 14.4384 13.7263 14.8793 13.567 15.2857H14.6696L18.6914 13.8204C19.246 13.6205 19.6777 13.1881 19.8783 12.6335C20.0814 12.0795 20.0266 11.47 19.7333 10.9618V10.9624Z" fill="url(#paint1_linear_1579_2282)"/>
<path d="M6.3405 12.8169C6.57827 12.0245 7.06883 11.3399 7.71877 10.8552L7.1851 7.8228C7.17922 7.79405 7.17661 7.76466 7.17334 7.73591C6.95582 7.25708 6.5554 6.88277 6.05309 6.70312C5.8323 6.62212 5.60302 6.58096 5.3744 6.58096C5.02885 6.58096 4.68657 6.67111 4.37891 6.84814C3.87137 7.14145 3.51994 7.64315 3.41543 8.2239C3.31352 8.80398 3.47356 9.39322 3.85046 9.84592L6.33984 12.8176L6.3405 12.8169Z" fill="url(#paint2_linear_1579_2282)"/>
<path d="M13.6595 12.8136L16.1489 9.84526C16.5258 9.39256 16.6826 8.80332 16.5813 8.22323C16.4801 7.64314 16.1287 7.14079 15.6178 6.84748C15.1103 6.55417 14.4976 6.4993 13.9463 6.70246C13.4472 6.8821 13.0494 7.24793 12.826 7.72415C12.826 7.75616 12.8201 7.79078 12.8143 7.82279L12.2806 10.8552C12.9305 11.3399 13.4211 12.0219 13.6589 12.8136H13.6595Z" fill="url(#paint3_linear_1579_2282)"/>
<path d="M8.52093 10.394C8.97622 10.2025 9.47592 10.098 10.0011 10.098C10.5263 10.098 11.0227 10.2025 11.478 10.394L11.9568 7.67511C12.0587 7.09502 11.9019 6.50252 11.5218 6.05309C11.1449 5.60038 10.5903 5.34235 10.0011 5.34235C9.41191 5.34235 8.85799 5.60038 8.47782 6.05309C8.10027 6.50252 7.94088 7.09502 8.04278 7.67511L8.52159 10.394H8.52093Z" fill="url(#paint4_linear_1579_2282)"/>
<path d="M7.38623 15.2863H12.6152C12.8301 14.8774 12.9516 14.4129 12.9516 13.9197C12.9516 12.2885 11.6282 10.9683 10.0004 10.9683C8.37257 10.9683 7.04917 12.2885 7.04917 13.9197C7.04917 14.4129 7.17132 14.8774 7.38557 15.2863H7.38623ZM10.0004 12.0743C11.0161 12.0743 11.8457 12.9013 11.8457 13.9197C11.8457 14.1575 11.651 14.3548 11.4107 14.3548C11.1703 14.3548 10.9756 14.1575 10.9756 13.9197C10.9756 13.3801 10.5373 12.9444 10.0004 12.9444C9.75934 12.9444 9.56533 12.7497 9.56533 12.5093C9.56533 12.2689 9.75999 12.0743 10.0004 12.0743Z" fill="#0BB1D3"/>
<path d="M18.4986 16.1555H1.50211C1.24279 16.1555 1.07883 16.4338 1.2049 16.6605L1.51844 17.2242C1.93846 17.98 2.73537 18.4484 3.60022 18.4484H16.4005C17.2654 18.4484 18.0623 17.9794 18.4823 17.2242L18.7958 16.6605C18.9219 16.4338 18.7579 16.1555 18.4986 16.1555Z" fill="url(#paint5_linear_1579_2282)"/>
<defs>
<linearGradient id="paint0_linear_1579_2282" x1="3.21714" y1="15.2868" x2="3.21714" y2="9.96736" gradientUnits="userSpaceOnUse">
<stop stop-color="#9F2FFF"/>
<stop offset="1" stop-color="#0BB1D3"/>
</linearGradient>
<linearGradient id="paint1_linear_1579_2282" x1="16.7832" y1="15.2857" x2="16.7832" y2="9.96766" gradientUnits="userSpaceOnUse">
<stop stop-color="#9F2FFF"/>
<stop offset="1" stop-color="#0BB1D3"/>
</linearGradient>
<linearGradient id="paint2_linear_1579_2282" x1="5.55206" y1="12.8176" x2="5.55206" y2="6.58094" gradientUnits="userSpaceOnUse">
<stop stop-color="#9F2FFF"/>
<stop offset="1" stop-color="#0BB1D3"/>
</linearGradient>
<linearGradient id="paint3_linear_1579_2282" x1="14.446" y1="12.8136" x2="14.446" y2="6.58125" gradientUnits="userSpaceOnUse">
<stop stop-color="#9F2FFF"/>
<stop offset="1" stop-color="#0BB1D3"/>
</linearGradient>
<linearGradient id="paint4_linear_1579_2282" x1="9.99992" y1="10.394" x2="9.99992" y2="5.34233" gradientUnits="userSpaceOnUse">
<stop stop-color="#9F2FFF"/>
<stop offset="1" stop-color="#0BB1D3"/>
</linearGradient>
<linearGradient id="paint5_linear_1579_2282" x1="10.0004" y1="18.4484" x2="10.0004" y2="16.1555" gradientUnits="userSpaceOnUse">
<stop stop-color="#9F2FFF"/>
<stop offset="1" stop-color="#0BB1D3"/>
</linearGradient>
</defs>
</svg>
