<svg width="24" height="24" viewBox="0 0 24 24" fill="none" xmlns="http://www.w3.org/2000/svg">
<path d="M21.9945 5.60074L21.6376 2.86637C21.6032 2.60289 21.3958 2.39551 21.1323 2.36118L18.3986 2.00493C18.208 1.98012 18.0182 2.05 17.8893 2.19188L8.40942 12.6226C8.19907 12.8541 8.20759 13.2099 8.42872 13.431L10.5681 15.5704C10.6822 15.6846 10.8323 15.7421 10.9825 15.7421C11.1234 15.7421 11.2645 15.6915 11.3765 15.5898L21.8075 6.1102C21.9495 5.98121 22.0193 5.79094 21.9945 5.60074Z" fill="#F0F5FA"/>
<path d="M21.6381 2.86638C21.6209 2.73482 21.5606 2.61728 21.4717 2.52826L9.49911 14.5009L10.5686 15.5704C10.6827 15.6845 10.8328 15.742 10.983 15.742C11.1239 15.742 11.265 15.6915 11.377 15.5897L21.808 6.11021C21.95 5.98123 22.0198 5.79095 21.995 5.60076L21.6381 2.86638Z" fill="#D7E3F0"/>
<path d="M11.6656 14.118L9.8826 12.335C9.65381 12.1061 9.2828 12.1061 9.05397 12.335L4.26413 17.1248C4.0353 17.3536 4.0353 17.7246 4.26413 17.9534L6.04717 19.7365C6.16159 19.8509 6.31155 19.9081 6.46147 19.9081C6.61139 19.9081 6.76139 19.8509 6.87577 19.7365L11.6656 14.9466C11.8945 14.7178 11.8945 14.3468 11.6656 14.118Z" fill="#595454"/>
<path d="M10.7737 13.226L5.15518 18.8445L6.0467 19.736C6.16112 19.8504 6.31108 19.9076 6.461 19.9076C6.61092 19.9076 6.76092 19.8505 6.8753 19.736L11.6652 14.9461C11.894 14.7173 11.894 14.3463 11.6652 14.1175L10.7737 13.226Z" fill="#383D40"/>
<path d="M12.7655 14.8247L9.17594 11.2351C7.71352 9.77271 5.33399 9.77271 3.87161 11.2351L3.73075 11.3759C3.6479 11.4588 3.61931 11.5815 3.65696 11.6924C3.69458 11.8033 3.79196 11.8833 3.9081 11.8986L5.42345 12.0985L11.9021 18.5771L12.102 20.0924C12.1173 20.2086 12.1972 20.3059 12.3081 20.3436C12.3405 20.3546 12.3739 20.3599 12.407 20.3599C12.4873 20.3599 12.5659 20.3285 12.6246 20.2698L12.7655 20.129C13.4721 19.4223 13.8613 18.4805 13.8613 17.4768C13.8613 16.4732 13.4721 15.5313 12.7655 14.8247Z" fill="#FFD845"/>
<path d="M10.9707 13.0298L8.66281 15.3378L11.9021 18.5771L12.102 20.0924C12.1173 20.2086 12.1973 20.3059 12.3082 20.3436C12.3406 20.3546 12.3739 20.3599 12.407 20.3599C12.4873 20.3599 12.566 20.3285 12.6246 20.2698L12.7655 20.129C13.4721 19.4223 13.8613 18.4805 13.8613 17.4768C13.8613 16.4732 13.4721 15.5313 12.7655 14.8247L10.9707 13.0298Z" fill="#FFB454"/>
<path d="M11.2886 16.2992H8.28639C7.9628 16.2992 7.70045 16.0369 7.70045 15.7133V12.7111C7.70045 12.3875 7.9628 12.1252 8.28639 12.1252H11.2886C11.6122 12.1252 11.8745 12.3875 11.8745 12.7111V15.7133C11.8745 16.0369 11.6122 16.2992 11.2886 16.2992Z" fill="#FFB454"/>
<path d="M7.87269 16.1283C7.9787 16.2343 8.12519 16.2999 8.28702 16.2999H11.2892C11.6128 16.2999 11.8751 16.0375 11.8751 15.7139V12.7118C11.8751 12.55 11.8096 12.4035 11.7035 12.2974L7.87269 16.1283Z" fill="#FF8659"/>
<path fill-rule="evenodd" clip-rule="evenodd" d="M8.87233 13.2971H10.7026V15.1274H8.87233V13.2971Z" fill="#66B3FF"/>
<path d="M4.31872 17.0698L2.32927 18.0322C2.09072 18.1485 1.96009 18.4106 2.01087 18.6711L2.47685 21.0604C2.52251 21.2946 2.7056 21.4777 2.93982 21.5234L5.32915 21.9894C5.36673 21.9967 5.40431 22.0003 5.44149 22.0003C5.66212 22.0003 5.86841 21.8752 5.96794 21.6711L6.93044 19.6816L4.31872 17.0698Z" fill="#FFD845"/>
<path fill-rule="evenodd" clip-rule="evenodd" d="M8.87233 15.1273H10.7026V13.2971L8.87233 15.1273Z" fill="#297ACC"/>
<path d="M2.63831 21.3617C2.71905 21.4424 2.82338 21.4996 2.94045 21.5225L5.32979 21.9884C5.36737 21.9958 5.40494 21.9993 5.44213 21.9993C5.66276 21.9993 5.86905 21.8743 5.96858 21.6702L6.93108 19.6806L5.62526 18.3748L2.63831 21.3617Z" fill="#FFB454"/>
</svg>
