<svg width="20" height="20" viewBox="0 0 20 20" fill="none" xmlns="http://www.w3.org/2000/svg">
<path d="M7.6578 5.7464L7.46793 7.23943C7.42819 7.45494 7.45641 7.67291 7.54985 7.87079C7.71961 8.23032 8.06986 8.43977 8.43381 8.43977C8.57778 8.43977 8.72398 8.40696 8.86185 8.33771L10.1932 7.66935L11.5612 8.34145C11.7336 8.4263 11.926 8.45665 12.1178 8.42931C12.3773 8.39231 12.6072 8.25333 12.7653 8.03794C12.9234 7.82255 12.9906 7.55662 12.9547 7.28853L12.7495 5.77437L13.7602 4.67492C13.9122 4.52492 14.0115 4.33278 14.0477 4.11844C14.0928 3.85211 14.0346 3.58364 13.8839 3.36243C13.7332 3.14122 13.5079 2.9938 13.2507 2.94747L11.7916 2.68091L11.0683 1.3087C11.0683 1.30862 11.0683 1.30878 11.0683 1.3087C10.9766 1.13487 10.8384 0.993543 10.6689 0.900263C10.438 0.773311 10.173 0.746631 9.92269 0.825185C9.6724 0.903739 9.46673 1.07815 9.34352 1.31639L8.6469 2.66501L7.18128 2.94587C6.9825 2.97825 6.80077 3.07146 6.65522 3.21583C6.46652 3.40302 6.35982 3.65481 6.35474 3.92481C6.34967 4.19481 6.44686 4.45067 6.62866 4.64559L7.6578 5.7464ZM7.18041 3.77891C7.22272 3.73692 7.26946 3.72223 7.30116 3.71731C7.30548 3.71665 7.30976 3.71591 7.31404 3.71508L8.96465 3.39876C9.07797 3.37704 9.17554 3.30329 9.22974 3.19837L10.012 1.68389C10.0399 1.62994 10.0865 1.59041 10.1433 1.5726C10.1646 1.56588 10.1865 1.56256 10.2082 1.56256C10.2441 1.56256 10.2798 1.57166 10.3124 1.58959C10.3509 1.61076 10.3822 1.64272 10.4029 1.68198L11.2132 3.21927C11.2683 3.32372 11.3665 3.39661 11.48 3.41735L13.1196 3.71688C13.1785 3.72747 13.2298 3.7611 13.2642 3.81157C13.2986 3.86204 13.3119 3.92329 13.3016 3.98411C13.2909 4.04711 13.259 4.08891 13.2341 4.11286C13.2285 4.11828 13.223 4.12391 13.2176 4.12969L12.0744 5.37331C11.9951 5.45956 11.9582 5.57839 11.9741 5.69612L12.2044 7.39603C12.2126 7.45689 12.1973 7.51736 12.1613 7.56634C12.1254 7.61529 12.0731 7.64693 12.0141 7.65533C11.9696 7.66169 11.9258 7.65509 11.8873 7.63619L10.3544 6.88307C10.2503 6.83193 10.1294 6.83248 10.0258 6.88451L8.53032 7.63521C8.4193 7.69103 8.28499 7.64322 8.23094 7.52869C8.20337 7.47029 8.20591 7.41638 8.21288 7.38142C8.21473 7.37213 8.21625 7.36279 8.21746 7.35338L8.43264 5.6614C8.44763 5.54355 8.40976 5.42507 8.32976 5.33949L7.17435 4.1036C7.13314 4.05938 7.11106 4.00125 7.11219 3.93989C7.11333 3.87864 7.13753 3.82141 7.18041 3.77891Z" fill="url(#paint0_linear_1579_2285)"/>
<path d="M7.18041 3.77891C7.22272 3.73692 7.26946 3.72223 7.30116 3.71731C7.30548 3.71665 7.30976 3.71591 7.31404 3.71508L8.96465 3.39876C9.07797 3.37704 9.17554 3.30329 9.22974 3.19837L10.012 1.68389C10.0399 1.62994 10.0865 1.59041 10.1433 1.5726C10.1646 1.56588 10.1865 1.56256 10.2082 1.56256C10.2441 1.56256 10.2798 1.57166 10.3124 1.58959C10.3509 1.61076 10.3822 1.64272 10.4029 1.68198L11.2132 3.21927C11.2683 3.32372 11.3665 3.39661 11.48 3.41735L13.1196 3.71688C13.1785 3.72747 13.2298 3.7611 13.2642 3.81157C13.2986 3.86204 13.3119 3.92329 13.3016 3.98411C13.2909 4.04711 13.259 4.08891 13.2341 4.11286C13.2285 4.11828 13.223 4.12391 13.2176 4.12969L12.0744 5.37331C11.9951 5.45956 11.9582 5.57839 11.9741 5.69612L12.2044 7.39603C12.2126 7.45689 12.1973 7.51736 12.1613 7.56634C12.1254 7.61529 12.0731 7.64693 12.0141 7.65533C11.9696 7.66169 11.9258 7.65509 11.8873 7.63619L10.3544 6.88307C10.2503 6.83193 10.1294 6.83248 10.0258 6.88451L8.53032 7.63521C8.4193 7.69103 8.28499 7.64322 8.23094 7.52869C8.20337 7.47029 8.20591 7.41638 8.21288 7.38142C8.21473 7.37213 8.21625 7.36279 8.21746 7.35338L8.43264 5.6614C8.44763 5.54355 8.40976 5.42507 8.32976 5.33949L7.17435 4.1036C7.13314 4.05938 7.11106 4.00125 7.11219 3.93989C7.11333 3.87864 7.13753 3.82141 7.18041 3.77891Z" fill="url(#paint1_linear_1579_2285)"/>
<path d="M4.28097 0.728975L5.77611 1.61921C5.83577 1.65476 5.90088 1.67163 5.96515 1.67163C6.09606 1.67163 6.22336 1.60155 6.29351 1.47624C6.39812 1.2894 6.33604 1.0505 6.15488 0.942647L4.65974 0.0524122C4.47861 -0.0554784 4.24692 0.00854502 4.14234 0.195381C4.03773 0.382217 4.09981 0.621123 4.28097 0.728975Z" fill="#0BB1D3"/>
<path d="M3.1882 5.41209C3.20634 5.41209 3.22471 5.41073 3.24323 5.40799L4.95165 5.15163C5.15865 5.12057 5.30205 4.92229 5.27194 4.70881C5.24179 4.49534 5.04968 4.34748 4.84257 4.3785L3.13415 4.63487C2.92715 4.66592 2.78375 4.8642 2.81386 5.07768C2.84132 5.27209 3.00317 5.41209 3.1882 5.41209Z" fill="#0BB1D3"/>
<path d="M5.78947 7.78889L4.56871 9.04787C4.4208 9.20041 4.4208 9.44776 4.56871 9.60033C4.64268 9.67662 4.73961 9.71475 4.83654 9.71475C4.93346 9.71475 5.03043 9.67662 5.10436 9.60033L6.32512 8.34135C6.47303 8.18881 6.47303 7.94147 6.32512 7.78889C6.17722 7.63631 5.93738 7.63635 5.78947 7.78889Z" fill="#0BB1D3"/>
<path d="M14.4505 1.67164C14.5147 1.67164 14.5799 1.65473 14.6395 1.61922L16.1347 0.728983C16.3158 0.621132 16.3779 0.382225 16.2733 0.195389C16.1687 0.00851447 15.9371 -0.0554699 15.7559 0.0524207L14.2608 0.942655C14.0796 1.05051 14.0175 1.28941 14.1221 1.47625C14.1923 1.60156 14.3196 1.67164 14.4505 1.67164Z" fill="#0BB1D3"/>
<path d="M15.1446 4.70871C15.1145 4.92219 15.2579 5.12047 15.4649 5.15152L17.1733 5.40789C17.1918 5.41066 17.2101 5.41199 17.2283 5.41199C17.4133 5.41199 17.5752 5.27199 17.6027 5.07754C17.6328 4.86406 17.4894 4.66578 17.2824 4.63473L15.5739 4.37836C15.3671 4.34742 15.1747 4.49523 15.1446 4.70871Z" fill="#0BB1D3"/>
<path d="M14.0895 7.78896C13.9416 7.9415 13.9416 8.18885 14.0895 8.34143L15.3103 9.60041C15.3842 9.6767 15.4812 9.71482 15.5781 9.71482C15.675 9.71482 15.772 9.6767 15.8459 9.60041C15.9938 9.44787 15.9938 9.20053 15.8459 9.04795L14.6251 7.78896C14.4773 7.63643 14.2374 7.63643 14.0895 7.78896Z" fill="#0BB1D3"/>
<path fill-rule="evenodd" clip-rule="evenodd" d="M13.2378 12.9688H17.4042C18.0307 12.9688 18.5404 13.4945 18.5404 14.1406V19.6094C18.5404 19.8251 18.3709 20 18.1617 20H2.25364C2.04445 20 1.87488 19.8251 1.87488 19.6094V12.5781C1.87488 11.932 2.38462 11.4063 3.01117 11.4063H7.17756V11.0156C7.17756 10.3694 7.6873 9.84375 8.31385 9.84375H12.1015C12.728 9.84375 13.2378 10.3694 13.2378 11.0156V12.9688ZM16.4582 15.7031C16.4582 15.057 15.95 14.5312 15.3254 14.5312C14.9941 14.5312 14.6804 14.6807 14.4648 14.9411C14.3289 15.1052 14.3478 15.3518 14.5068 15.4919C14.666 15.632 14.905 15.6125 15.0409 15.4485C15.1124 15.3621 15.2161 15.3125 15.3254 15.3125C15.5323 15.3125 15.7006 15.4878 15.7006 15.7032C15.7006 15.8093 15.6604 15.9086 15.5873 15.9828C15.5066 16.0648 15.4656 16.1798 15.4759 16.2963C15.4861 16.4127 15.5463 16.5184 15.6401 16.5841C15.796 16.6935 15.8891 16.8753 15.8891 17.0704C15.8891 17.3934 15.6362 17.6563 15.3254 17.6563C15.2007 17.6563 15.0826 17.6148 14.9838 17.5365C14.818 17.405 14.5802 17.437 14.4526 17.6079C14.3251 17.7789 14.3561 18.0241 14.5219 18.1557C14.7543 18.3401 15.0321 18.4376 15.3254 18.4376C16.0539 18.4376 16.6467 17.8243 16.6467 17.0704C16.6467 16.7512 16.5394 16.4471 16.3493 16.2061C16.4206 16.0511 16.4582 15.8802 16.4582 15.7031ZM4.75029 16.0939H5.663C5.87219 16.0939 6.04176 16.2688 6.04176 16.4845C6.04176 16.7003 5.87219 16.8751 5.663 16.8751H4.14805C3.93886 16.8751 3.76928 16.7003 3.76928 16.4845C3.76928 15.8736 4.2093 15.5235 4.59753 15.2145L4.59757 15.2145C5.02179 14.8769 5.27973 14.643 5.28427 14.2421C5.28738 13.9703 5.12341 13.8051 4.95952 13.7619C4.86142 13.7362 4.67753 13.7303 4.54852 13.9812C4.45049 14.1718 4.22126 14.2444 4.03643 14.1433C3.85163 14.0422 3.78125 13.8057 3.87928 13.6151C4.13896 13.1103 4.63647 12.8708 5.1467 13.0049C5.68042 13.1453 6.04847 13.6578 6.04173 14.2513C6.03252 15.0593 5.49346 15.4883 5.06027 15.833C4.93827 15.9301 4.83373 16.0148 4.75029 16.0939ZM10.6273 14.5312H10.5861V11.7969C10.5861 11.6573 10.5139 11.5284 10.3967 11.4586C10.2796 11.3888 10.1352 11.3888 10.0179 11.4586L9.598 11.7086C9.41684 11.8165 9.35476 12.0554 9.45938 12.2422C9.5368 12.3805 9.68391 12.4514 9.82856 12.4353V14.5312H9.78739C9.57819 14.5312 9.40862 14.7061 9.40862 14.9218C9.40862 15.1376 9.57819 15.3125 9.78739 15.3125H10.6273C10.8365 15.3125 11.006 15.1376 11.006 14.9218C11.006 14.7061 10.8365 14.5312 10.6273 14.5312ZM7.17726 16.4845C7.17726 16.2687 7.34683 16.0938 7.55603 16.0938C7.76522 16.0938 7.93479 16.2685 7.93479 16.4842V16.4845C7.93479 16.7002 7.76522 16.8751 7.55603 16.8751C7.34683 16.8751 7.17726 16.7002 7.17726 16.4845Z" fill="url(#paint2_linear_1579_2285)"/>
<defs>
<linearGradient id="paint0_linear_1579_2285" x1="10.2086" y1="8.43977" x2="10.2086" y2="0.78092" gradientUnits="userSpaceOnUse">
<stop stop-color="#9F2FFF"/>
<stop offset="1" stop-color="#0BB1D3"/>
</linearGradient>
<linearGradient id="paint1_linear_1579_2285" x1="10.2086" y1="8.43977" x2="10.2086" y2="0.78092" gradientUnits="userSpaceOnUse">
<stop stop-color="#9F2FFF"/>
<stop offset="1" stop-color="#0BB1D3"/>
</linearGradient>
<linearGradient id="paint2_linear_1579_2285" x1="10.2077" y1="20" x2="10.2077" y2="9.84372" gradientUnits="userSpaceOnUse">
<stop stop-color="#9F2FFF"/>
<stop offset="1" stop-color="#0BB1D3"/>
</linearGradient>
</defs>
</svg>
