<svg width="20" height="20" viewBox="0 0 20 20" fill="none" xmlns="http://www.w3.org/2000/svg">
<g clip-path="url(#clip0_1579_2291)">
<path d="M17.047 15.7754H2.94895C2.30827 15.7754 1.78894 16.2948 1.78894 16.9355C1.78894 17.5762 2.30827 18.0956 2.94895 18.0956H17.047C17.6877 18.0956 18.207 17.5762 18.207 16.9355C18.207 16.2948 17.6877 15.7754 17.047 15.7754Z" fill="#0BB1D3"/>
<path d="M9.81121 4.09838C9.82127 4.10026 9.83071 4.10152 9.84076 4.10278C9.89232 4.11032 9.94451 4.11535 9.99795 4.11535C10.0514 4.11535 10.1036 4.11032 10.1551 4.10278C10.1652 4.10152 10.1752 4.10026 10.1847 4.09838C10.2362 4.08957 10.2872 4.07763 10.3362 4.06191C10.7813 3.91918 11.1033 3.5023 11.1033 3.00934C11.1033 2.39881 10.6084 1.90396 9.99795 1.90396C9.38745 1.90396 8.89264 2.39881 8.89264 3.00934C8.89264 3.55575 9.29 4.00909 9.81121 4.09775V4.09838Z" fill="url(#paint0_linear_1579_2291)"/>
<path d="M1.12983 8.30298C1.16944 8.30235 1.20779 8.2992 1.24614 8.29417C1.2474 8.29417 1.24803 8.29417 1.24929 8.29417C1.28701 8.28914 1.32348 8.28223 1.35994 8.27405C1.36057 8.27405 1.36183 8.27405 1.36246 8.27405C1.39893 8.26525 1.43476 8.25456 1.46997 8.24261C1.90128 8.09171 2.21062 7.68238 2.21062 7.20011C2.21062 6.58957 1.71581 6.09473 1.10531 6.09473C0.494811 6.09473 0 6.58768 0 7.19822C0 7.80876 0.494811 8.3036 1.10531 8.3036C1.11348 8.3036 1.12103 8.30235 1.1292 8.30235L1.12983 8.30298Z" fill="url(#paint1_linear_1579_2291)"/>
<path d="M18.8932 6.09273C18.2827 6.09273 17.7879 6.58758 17.7879 7.19811C17.7879 7.64077 18.0488 8.0218 18.4248 8.19849C18.4581 8.21421 18.4927 8.22867 18.5285 8.24062C18.5285 8.24062 18.5291 8.24062 18.5298 8.24062C18.5644 8.25256 18.6002 8.26325 18.6367 8.27206C18.6379 8.27206 18.6385 8.27206 18.6398 8.27269C18.6763 8.28149 18.7127 8.28778 18.7498 8.29281C18.7511 8.29281 18.7517 8.29281 18.753 8.29281C18.7913 8.29784 18.8303 8.30035 18.8693 8.30161C18.8775 8.30161 18.885 8.30287 18.8932 8.30287C19.5037 8.30287 19.9985 7.80802 19.9985 7.19748C19.9985 6.58695 19.5037 6.0921 18.8932 6.0921V6.09273Z" fill="url(#paint2_linear_1579_2291)"/>
<path d="M15.0701 10.8506C13.0003 10.8506 11.221 8.25945 10.4332 4.54718C10.2949 4.58616 10.149 4.6088 9.9981 4.6088C9.84721 4.6088 9.70134 4.58616 9.56302 4.54718C8.77459 8.26008 6.99591 10.8506 4.92613 10.8506C3.7548 10.8506 2.67779 10.0181 1.81957 8.62603C1.61963 8.72663 1.39581 8.78637 1.15878 8.79454C1.32853 11.1021 1.89942 13.2312 2.76581 15.025H17.2304C18.0968 13.2312 18.6677 11.1028 18.8374 8.79454C18.6004 8.78637 18.3766 8.72726 18.176 8.62603C17.3178 10.0188 16.2408 10.8506 15.0694 10.8506H15.0701Z" fill="url(#paint3_linear_1579_2291)"/>
<path d="M1.12983 8.30298C1.16944 8.30235 1.20779 8.2992 1.24614 8.29417C1.2474 8.29417 1.24803 8.29417 1.24929 8.29417C1.28701 8.28914 1.32348 8.28223 1.35994 8.27405C1.36057 8.27405 1.36183 8.27405 1.36246 8.27405C1.39893 8.26525 1.43476 8.25456 1.46997 8.24261C1.90128 8.09171 2.21062 7.68238 2.21062 7.20011C2.21062 6.58957 1.71581 6.09473 1.10531 6.09473C0.494811 6.09473 0 6.58768 0 7.19822C0 7.80876 0.494811 8.3036 1.10531 8.3036C1.11348 8.3036 1.12103 8.30235 1.1292 8.30235L1.12983 8.30298Z" fill="url(#paint4_linear_1579_2291)"/>
<path d="M18.8932 6.09273C18.2827 6.09273 17.7879 6.58758 17.7879 7.19811C17.7879 7.64077 18.0488 8.0218 18.4248 8.19849C18.4581 8.21421 18.4927 8.22867 18.5285 8.24062C18.5285 8.24062 18.5291 8.24062 18.5298 8.24062C18.5644 8.25256 18.6002 8.26325 18.6367 8.27206C18.6379 8.27206 18.6385 8.27206 18.6398 8.27269C18.6763 8.28149 18.7127 8.28778 18.7498 8.29281C18.7511 8.29281 18.7517 8.29281 18.753 8.29281C18.7913 8.29784 18.8303 8.30035 18.8693 8.30161C18.8775 8.30161 18.885 8.30287 18.8932 8.30287C19.5037 8.30287 19.9985 7.80802 19.9985 7.19748C19.9985 6.58695 19.5037 6.0921 18.8932 6.0921V6.09273Z" fill="url(#paint5_linear_1579_2291)"/>
<path d="M17.2323 15.0244C18.0986 13.2305 18.6695 11.1021 18.8393 8.7939C18.6023 8.78572 18.3784 8.72662 18.1779 8.62539C17.3196 10.0181 16.2426 10.85 15.0713 10.85C13.0015 10.85 11.2222 8.25881 10.4344 4.54654C10.2961 4.58552 10.1502 4.60816 9.99934 4.60816V15.0238H17.2316L17.2323 15.0244Z" fill="url(#paint6_linear_1579_2291)"/>
<path d="M10.1565 4.10342C10.1666 4.10216 10.1766 4.10091 10.1861 4.09902C10.2376 4.09022 10.2886 4.07827 10.3376 4.06255C10.7827 3.91982 11.1046 3.50294 11.1046 3.00998C11.1046 2.39945 10.6098 1.9046 9.99934 1.9046V4.11537C10.0528 4.11537 10.105 4.11034 10.1565 4.10279V4.10342Z" fill="url(#paint7_linear_1579_2291)"/>
<path d="M13.954 7.50956C13.9609 7.51082 13.9678 7.51145 13.9741 7.5127C14.0093 7.51773 14.0452 7.52151 14.0823 7.52151C14.1193 7.52151 14.1546 7.51773 14.1898 7.5127C14.1967 7.51145 14.2036 7.51082 14.2105 7.50956C14.2457 7.50327 14.2809 7.49573 14.3143 7.48504C14.6192 7.38695 14.8399 7.10149 14.8399 6.76384C14.8399 6.34507 14.5004 6.00616 14.0823 6.00616C13.6641 6.00616 13.3246 6.3457 13.3246 6.76384C13.3246 7.13858 13.5969 7.44857 13.954 7.51019V7.50956Z" fill="url(#paint8_linear_1579_2291)"/>
<path d="M5.78787 7.50956C5.79478 7.51082 5.8017 7.51145 5.80799 7.5127C5.8432 7.51773 5.87903 7.52151 5.91613 7.52151C5.95322 7.52151 5.98843 7.51773 6.02364 7.5127C6.03056 7.51145 6.03747 7.51082 6.04439 7.50956C6.0796 7.50327 6.11418 7.49573 6.14813 7.48504C6.45306 7.38695 6.67375 7.10149 6.67375 6.76384C6.67375 6.34507 6.33486 6.00616 5.91613 6.00616C5.49739 6.00616 5.15851 6.3457 5.15851 6.76384C5.15851 7.13858 5.43075 7.44857 5.78787 7.51019V7.50956Z" fill="url(#paint9_linear_1579_2291)"/>
<path d="M6.72094 9.5141C6.51724 9.00228 6.34496 8.43324 6.21419 7.81705C6.11925 7.84408 6.01928 7.85917 5.91617 7.85917C5.81306 7.85917 5.71309 7.84408 5.61815 7.81705C5.41004 8.7973 5.10071 9.66312 4.71844 10.3573C4.79074 10.3648 4.86053 10.3699 4.92655 10.3699C5.54585 10.3699 6.15697 10.0655 6.72094 9.51473V9.5141Z" fill="url(#paint10_linear_1579_2291)"/>
<path d="M15.2803 10.3579C14.898 9.66312 14.5887 8.7973 14.3806 7.81705C14.2856 7.84408 14.1857 7.85917 14.0825 7.85917C13.9794 7.85917 13.8795 7.84408 13.7845 7.81705C13.6537 8.43324 13.4815 9.00228 13.2778 9.51473C13.8417 10.0655 14.4529 10.3699 15.0722 10.3699C15.1426 10.3699 15.2124 10.3655 15.2809 10.3585L15.2803 10.3579Z" fill="url(#paint11_linear_1579_2291)"/>
</g>
<defs>
<linearGradient id="paint0_linear_1579_2291" x1="9.99795" y1="4.11535" x2="9.99795" y2="1.90395" gradientUnits="userSpaceOnUse">
<stop stop-color="#9F2FFF"/>
<stop offset="1" stop-color="#0BB1D3"/>
</linearGradient>
<linearGradient id="paint1_linear_1579_2291" x1="1.10531" y1="8.3036" x2="1.10531" y2="6.09472" gradientUnits="userSpaceOnUse">
<stop stop-color="#9F2FFF"/>
<stop offset="1" stop-color="#0BB1D3"/>
</linearGradient>
<linearGradient id="paint2_linear_1579_2291" x1="18.8932" y1="8.30287" x2="18.8932" y2="6.09209" gradientUnits="userSpaceOnUse">
<stop stop-color="#9F2FFF"/>
<stop offset="1" stop-color="#0BB1D3"/>
</linearGradient>
<linearGradient id="paint3_linear_1579_2291" x1="9.9981" y1="15.025" x2="9.9981" y2="4.54715" gradientUnits="userSpaceOnUse">
<stop stop-color="#9F2FFF"/>
<stop offset="1" stop-color="#0BB1D3"/>
</linearGradient>
<linearGradient id="paint4_linear_1579_2291" x1="1.10531" y1="8.3036" x2="1.10531" y2="6.09472" gradientUnits="userSpaceOnUse">
<stop stop-color="#9F2FFF"/>
<stop offset="1" stop-color="#0BB1D3"/>
</linearGradient>
<linearGradient id="paint5_linear_1579_2291" x1="18.8932" y1="8.30287" x2="18.8932" y2="6.09209" gradientUnits="userSpaceOnUse">
<stop stop-color="#9F2FFF"/>
<stop offset="1" stop-color="#0BB1D3"/>
</linearGradient>
<linearGradient id="paint6_linear_1579_2291" x1="14.4193" y1="15.0244" x2="14.4193" y2="4.54651" gradientUnits="userSpaceOnUse">
<stop stop-color="#9F2FFF"/>
<stop offset="1" stop-color="#0BB1D3"/>
</linearGradient>
<linearGradient id="paint7_linear_1579_2291" x1="10.552" y1="4.11537" x2="10.552" y2="1.90459" gradientUnits="userSpaceOnUse">
<stop stop-color="#9F2FFF"/>
<stop offset="1" stop-color="#0BB1D3"/>
</linearGradient>
<linearGradient id="paint8_linear_1579_2291" x1="14.0823" y1="7.52151" x2="14.0823" y2="6.00616" gradientUnits="userSpaceOnUse">
<stop stop-color="#9F2FFF"/>
<stop offset="1" stop-color="#0BB1D3"/>
</linearGradient>
<linearGradient id="paint9_linear_1579_2291" x1="5.91613" y1="7.52151" x2="5.91613" y2="6.00616" gradientUnits="userSpaceOnUse">
<stop stop-color="#9F2FFF"/>
<stop offset="1" stop-color="#0BB1D3"/>
</linearGradient>
<linearGradient id="paint10_linear_1579_2291" x1="5.71969" y1="10.3699" x2="5.71969" y2="7.81704" gradientUnits="userSpaceOnUse">
<stop stop-color="#9F2FFF"/>
<stop offset="1" stop-color="#0BB1D3"/>
</linearGradient>
<linearGradient id="paint11_linear_1579_2291" x1="14.2793" y1="10.3699" x2="14.2793" y2="7.81704" gradientUnits="userSpaceOnUse">
<stop stop-color="#9F2FFF"/>
<stop offset="1" stop-color="#0BB1D3"/>
</linearGradient>
<clipPath id="clip0_1579_2291">
<rect width="19.9987" height="20" fill="white"/>
</clipPath>
</defs>
</svg>
